<svg xmlns="http://www.w3.org/2000/svg" viewBox="0 0 720 140" fill="none">
  <defs>
    <linearGradient id="eb-bg" x1="0" y1="0" x2="720" y2="140" gradientUnits="userSpaceOnUse">
      <stop offset="0%" stop-color="#f59e0b" stop-opacity="0.12"/>
      <stop offset="55%" stop-color="#d97706" stop-opacity="0.07"/>
      <stop offset="100%" stop-color="#fb923c" stop-opacity="0.04"/>
    </linearGradient>
    <linearGradient id="eb-annex" x1="0" y1="0" x2="1" y2="1" gradientUnits="objectBoundingBox">
      <stop offset="0%" stop-color="#f59e0b"/>
      <stop offset="100%" stop-color="#d97706"/>
    </linearGradient>
    <linearGradient id="eb-pkg" x1="0" y1="0" x2="1" y2="1" gradientUnits="objectBoundingBox">
      <stop offset="0%" stop-color="#fb923c"/>
      <stop offset="100%" stop-color="#ea580c"/>
    </linearGradient>
    <linearGradient id="eb-plugin" x1="0" y1="0" x2="1" y2="1" gradientUnits="objectBoundingBox">
      <stop offset="0%" stop-color="#fbbf24"/>
      <stop offset="100%" stop-color="#f59e0b"/>
    </linearGradient>
    <filter id="eb-glow">
      <feGaussianBlur stdDeviation="2.5" result="blur"/>
      <feMerge><feMergeNode in="blur"/><feMergeNode in="SourceGraphic"/></feMerge>
    </filter>
  </defs>

  <rect width="720" height="140" rx="16" fill="url(#eb-bg)" stroke="#f59e0b" stroke-width="0.6" stroke-opacity="0.25"/>

  <!-- LEFT: Annexes pillar -->
  <rect x="28" y="18" width="185" height="104" rx="10" fill="#0f172a" fill-opacity="0.50" stroke="#f59e0b" stroke-width="0.9" stroke-opacity="0.45"/>
  <rect x="28" y="18" width="185" height="24" rx="10" fill="url(#eb-annex)" opacity="0.75"/>
  <rect x="28" y="30" width="185" height="12" fill="url(#eb-annex)" opacity="0.75"/>
  <text x="120" y="34" text-anchor="middle" font-family="system-ui,sans-serif" font-size="9" fill="#fff" font-weight="700">🌀 Annexes</text>
  <!-- Annex items -->
  <rect x="40" y="52" width="5" height="5" rx="2" fill="#fbbf24" opacity="0.85"/>
  <text x="51" y="58" font-family="monospace" font-size="8" fill="#fde68a" opacity="0.9">bin-gem-node</text>
  <rect x="40" y="64" width="5" height="5" rx="2" fill="#fbbf24" opacity="0.85"/>
  <text x="51" y="70" font-family="monospace" font-size="8" fill="#fde68a" opacity="0.9">rust</text>
  <rect x="40" y="76" width="5" height="5" rx="2" fill="#fbbf24" opacity="0.85"/>
  <text x="51" y="82" font-family="monospace" font-size="8" fill="#fde68a" opacity="0.9">patch-dl</text>
  <rect x="40" y="88" width="5" height="5" rx="2" fill="#fbbf24" opacity="0.85"/>
  <text x="51" y="94" font-family="monospace" font-size="8" fill="#fde68a" opacity="0.9">meta-plugins</text>
  <rect x="40" y="100" width="5" height="5" rx="2" fill="#fbbf24" opacity="0.85"/>
  <text x="51" y="106" font-family="monospace" font-size="8" fill="#fde68a" opacity="0.9">readurl  ···</text>
  <text x="120" y="132" text-anchor="middle" font-family="system-ui,sans-serif" font-size="8.5" fill="#f59e0b" opacity="0.9" font-weight="600">Extend Zi's lifecycle</text>

  <!-- Connector arrow -->
  <path d="M221 70 L247 70" stroke="#f59e0b" stroke-width="1.5" stroke-dasharray="4 2" opacity="0.55"/>
  <polygon points="247,67 253,70 247,73" fill="#f59e0b" opacity="0.65"/>

  <!-- CENTER: Packages pillar -->
  <rect x="260" y="18" width="200" height="104" rx="10" fill="#0f172a" fill-opacity="0.50" stroke="#fb923c" stroke-width="0.9" stroke-opacity="0.45"/>
  <rect x="260" y="18" width="200" height="24" rx="10" fill="url(#eb-pkg)" opacity="0.75"/>
  <rect x="260" y="30" width="200" height="12" fill="url(#eb-pkg)" opacity="0.75"/>
  <text x="360" y="34" text-anchor="middle" font-family="system-ui,sans-serif" font-size="9" fill="#fff" font-weight="700">📦 Packages</text>
  <!-- Package boxes -->
  <rect x="274" y="50" width="76" height="22" rx="5" fill="#f97316" fill-opacity="0.15" stroke="#fb923c" stroke-width="0.8" stroke-opacity="0.5"/>
  <text x="312" y="65" text-anchor="middle" font-family="monospace" font-size="8.5" fill="#fed7aa">fzf</text>
  <rect x="358" y="50" width="90" height="22" rx="5" fill="#f97316" fill-opacity="0.15" stroke="#fb923c" stroke-width="0.8" stroke-opacity="0.5"/>
  <text x="403" y="65" text-anchor="middle" font-family="monospace" font-size="8.5" fill="#fed7aa">neovim</text>
  <rect x="274" y="78" width="76" height="22" rx="5" fill="#f97316" fill-opacity="0.15" stroke="#fb923c" stroke-width="0.8" stroke-opacity="0.5"/>
  <text x="312" y="93" text-anchor="middle" font-family="monospace" font-size="7.5" fill="#fed7aa">any-gem</text>
  <rect x="358" y="78" width="90" height="22" rx="5" fill="#f97316" fill-opacity="0.15" stroke="#fb923c" stroke-width="0.8" stroke-opacity="0.5"/>
  <text x="403" y="93" text-anchor="middle" font-family="monospace" font-size="7" fill="#fed7aa">zsh-completions</text>
  <text x="360" y="132" text-anchor="middle" font-family="system-ui,sans-serif" font-size="8.5" fill="#fb923c" opacity="0.9" font-weight="600">Curated, ready-to-use</text>

  <!-- Connector arrow -->
  <path d="M468 70 L494 70" stroke="#f59e0b" stroke-width="1.5" stroke-dasharray="4 2" opacity="0.55"/>
  <polygon points="494,67 500,70 494,73" fill="#f59e0b" opacity="0.65"/>

  <!-- RIGHT: Plugins pillar -->
  <rect x="507" y="18" width="185" height="104" rx="10" fill="#0f172a" fill-opacity="0.50" stroke="#fbbf24" stroke-width="0.9" stroke-opacity="0.45"/>
  <rect x="507" y="18" width="185" height="24" rx="10" fill="url(#eb-plugin)" opacity="0.75"/>
  <rect x="507" y="30" width="185" height="12" fill="url(#eb-plugin)" opacity="0.75"/>
  <text x="599" y="34" text-anchor="middle" font-family="system-ui,sans-serif" font-size="9" fill="#fff" font-weight="700">⚙️ Plugins</text>
  <!-- Plugin items -->
  <rect x="519" y="52" width="5" height="5" rx="2" fill="#fbbf24" opacity="0.85"/>
  <text x="530" y="58" font-family="monospace" font-size="8" fill="#fde68a" opacity="0.9">fast-syntax-highlighting</text>
  <rect x="519" y="64" width="5" height="5" rx="2" fill="#fbbf24" opacity="0.85"/>
  <text x="530" y="70" font-family="monospace" font-size="8" fill="#fde68a" opacity="0.9">zsh-autosuggestions</text>
  <rect x="519" y="76" width="5" height="5" rx="2" fill="#fbbf24" opacity="0.85"/>
  <text x="530" y="82" font-family="monospace" font-size="8" fill="#fde68a" opacity="0.9">history-search-multi-word</text>
  <rect x="519" y="88" width="5" height="5" rx="2" fill="#fbbf24" opacity="0.85"/>
  <text x="530" y="94" font-family="monospace" font-size="8" fill="#fde68a" opacity="0.9">diff-so-fancy</text>
  <rect x="519" y="100" width="5" height="5" rx="2" fill="#fbbf24" opacity="0.85"/>
  <text x="530" y="106" font-family="monospace" font-size="8" fill="#fde68a" opacity="0.9">zbrowse  ···</text>
  <text x="599" y="132" text-anchor="middle" font-family="system-ui,sans-serif" font-size="8.5" fill="#fbbf24" opacity="0.9" font-weight="600">Syntax · completions · themes</text>

  <g opacity="0.12">
    <circle cx="20" cy="20" r="1.5" fill="#f59e0b"/>
    <circle cx="700" cy="20" r="1.5" fill="#f59e0b"/>
    <circle cx="20" cy="120" r="1.5" fill="#f59e0b"/>
    <circle cx="700" cy="120" r="1.5" fill="#f59e0b"/>
  </g>
</svg>
