<svg fill="none" height="892" viewBox="0 0 892 892" width="892" xmlns="http://www.w3.org/2000/svg"><g fill="#f15a24"><path d="m373.246 458.086-30.617 36.392c-.263.339-.39.764-.354 1.191s.23.825.546 1.115c.144.129.313.228.497.29.183.063.377.087.571.073.238-.001.475-.05.695-.144.22-.093.419-.229.586-.4l30.649-36.382c.134-.169.233-.362.292-.569.058-.207.075-.423.049-.637-.025-.214-.093-.42-.2-.607-.106-.187-.248-.351-.419-.483-.331-.271-.752-.405-1.179-.376-.427.03-.826.222-1.116.537z"/><path d="m351.633 458.417c-2.364 0-4.631.939-6.303 2.611-1.672 1.671-2.611 3.939-2.611 6.303s.939 4.631 2.611 6.303 3.939 2.611 6.303 2.611c2.354-.033 4.602-.983 6.267-2.648 1.664-1.664 2.614-3.912 2.647-6.266-.003-2.363-.943-4.629-2.614-6.3s-3.937-2.611-6.3-2.614zm0 12.682c-.987-.037-1.925-.446-2.623-1.144-.699-.699-1.108-1.637-1.145-2.624 0-.745.221-1.474.635-2.094.414-.619 1.002-1.103 1.691-1.388s1.446-.36 2.177-.214c.731.145 1.403.504 1.93 1.031s.886 1.199 1.031 1.93c.146.731.071 1.488-.214 2.177s-.768 1.277-1.388 1.691-1.348.635-2.094.635z"/><path d="m366.583 478.54c-1.765-.002-3.492.519-4.961 1.499-1.469.979-2.615 2.372-3.292 4.003-.677 1.63-.855 3.425-.512 5.157s1.192 3.323 2.44 4.572c1.248 1.25 2.838 2.101 4.57 2.446 1.731.345 3.526.169 5.157-.506 1.632-.675 3.026-1.819 4.007-3.287.982-1.468 1.505-3.194 1.505-4.96.006-1.172-.221-2.334-.667-3.419-.445-1.085-1.102-2.07-1.93-2.9-.829-.83-1.814-1.487-2.898-1.934s-2.246-.676-3.419-.671zm0 12.693c-.497.007-.991-.085-1.452-.272s-.88-.464-1.232-.815-.631-.77-.819-1.23c-.188-.461-.282-.954-.276-1.452.006-.998.406-1.954 1.115-2.658.708-.704 1.666-1.099 2.664-1.099.497-.006.989.088 1.449.275s.878.465 1.229.816.628.768.816 1.228c.187.46.28.953.275 1.449-.009.996-.409 1.949-1.114 2.652s-1.659 1.1-2.655 1.106z"/><path d="m408.992 492.983h-21.874c-.439 0-.86.174-1.17.484-.311.311-.485.732-.485 1.17 0 .439.174.86.485 1.171.31.31.731.484 1.17.484h21.874c.438 0 .859-.174 1.17-.484.31-.311.484-.732.484-1.171 0-.438-.174-.859-.484-1.17-.311-.31-.732-.484-1.17-.484z"/></g><g fill="#000"><path d="m741.286 464.833h-11.198v11.198h11.198z"/><path d="m560.512 565.661h-11.198v11.199h11.198z"/><path d="m574.406 554.452h1.868 17.498v3.138l.352-.042v19.312h11.198v-20.551-1.857h-11.198v-11.199h-.352-17.498-1.868-13.899v11.199z"/><path d="m594.126 532.044h2.178 9.021v-5.391-5.808h-11.199z"/><path d="m576.274 509.649h-1.868-13.899v11.198h13.899 1.868 17.85v-11.198z"/><path d="m560.512 520.845h-11.198v22.408h11.198z"/><path d="m574.406 576.86h-13.899v11.199h13.045 1.933 18.639v-11.199h-17.85z"/><path d="m641.704 551.656 8.199-.043h.673l1.302-.011 23.433-.128v33.788h11.209v-78.422h-11.209v33.606h-23.433-1.302-.673-8.199v-33.606h-11.198v78.422h11.198z"/><path d="m490.522 557.261h-11.199v11.198h11.199z"/><path d="m501.723 546.052h-11.199v11.209h11.199z"/><path d="m512.934 534.853h-11.209v11.198h11.209z"/><path d="m468.114 523.825h44.816v11.027h11.198v-22.407h-56.014z"/><path d="m468.114 581.281v.032.021.032.021.022.939.94.021.032.021.032.022 7.451h56.014v-7.697-.021-.032-.022-.042-.022-.95-.95-.021-.022-.032-.021-.032-1.345h-44.805v-11.199h-11.209z"/><path d="m77.1049 514.548h-7.0351v7.036h7.0351z"/><path d="m87.6635 528.618h-7.0351v7.035h7.0351z"/><path d="m87.6635 514.548h-7.0351v7.036h7.0351z"/><path d="m59.5122 482.885h-3.5122v59.804h3.5122z"/><path d="m77.1049 528.618h-7.0351v7.035h7.0351z"/><path d="m108.772 493.431h-42.2217v10.558h42.2217z"/><path d="m112.292 528.618h-7.035v7.035h7.035z"/><path d="m126.362 514.548h-7.035v7.036h7.035z"/><path d="m126.362 528.618h-7.035v7.035h7.035z"/><path d="m101.734 514.548h-7.0353v7.036h7.0353z"/><path d="m112.292 514.548h-7.035v7.036h7.035z"/><path d="m101.734 528.618h-7.0353v7.035h7.0353z"/><path d="m555.165 372.416-2.69-.086 161.808-195.318 1.644 1.367z"/><path d="m314.697 372.416-147.898-194.112 1.698-1.292 148.815 195.318z"/><path d="m764.774 265.926.491-37.065c-.015-13.6-5.365-26.651-14.902-36.347-9.536-9.696-22.497-15.263-36.095-15.503l-1.75 2.135h.886c13.182.014 25.82 5.256 35.142 14.576s14.567 21.957 14.584 35.139l-.491 37.065h-4.078v14.071h-14.07v14.07h-10.558v14.07h-6.47v-46.353c-.028-12.06-4.776-23.63-13.228-32.233-8.451-8.603-19.935-13.556-31.993-13.799l-1.719 2.071h.865c11.668.011 22.855 4.651 31.107 12.9 8.252 8.25 12.894 19.436 12.908 31.104v46.353h-1.996v56.302h1.996v21.543h-3.395v20.817h-4.377v-5.871h-10.579v-27.756h-12.405v51.776h-4.964v-130.241c-.012-10.549-4.151-20.674-11.533-28.21-7.382-7.535-17.42-11.882-27.966-12.111l-1.666 2.018h.822c10.157.008 19.896 4.046 27.079 11.227 7.184 7.181 11.224 16.919 11.236 27.076v130.241h-.758v17.486h-35.016v-114.846c-.011-9.021-3.545-17.681-9.849-24.134-6.303-6.454-14.878-10.19-23.896-10.412l-1.633 1.964h.822c8.638.009 16.921 3.444 23.029 9.552 6.108 6.109 9.544 14.391 9.552 23.03v114.793h-35.827v-81.87c-.011-7.497-2.942-14.695-8.172-20.066-5.229-5.371-12.346-8.494-19.84-8.705l-1.569 1.9h.79c7.116.02 13.935 2.859 18.963 7.895s7.856 11.859 7.864 18.976v81.87h-35.837v-48.947c-.005-5.972-2.329-11.709-6.481-16-4.153-4.292-9.809-6.804-15.778-7.006l-1.537 1.858h.769c5.608.005 10.985 2.235 14.951 6.199 3.967 3.965 6.199 9.341 6.207 14.949v48.947h-35.773v-16.014c.003-4.471-1.711-8.773-4.788-12.017s-7.283-5.183-11.748-5.416h-176.871l.811 2.136h175.174c4.052.005 7.937 1.618 10.803 4.483 2.866 2.866 4.478 6.751 4.484 10.804v10.334h-205.716v-10.377c.017-4.045 1.634-7.919 4.499-10.776 2.864-2.856 6.743-4.463 10.788-4.468h.801l-1.644-2.136c-4.474.212-8.695 2.137-11.788 5.377-3.093 3.239-4.82 7.545-4.823 12.024v139.614c-.012 2.608.569 5.185 1.699 7.535 1.13 2.351 2.779 4.414 4.824 6.033l-27.116 21.864-.416-.182c-3.644-1.718-6.723-4.437-8.88-7.84-2.157-3.402-3.301-7.347-3.301-11.376v-188.549c.008-5.607 2.239-10.981 6.203-14.945 3.965-3.964 9.339-6.195 14.945-6.203h.705l-1.41-1.858c-5.977.189-11.647 2.694-15.811 6.988-4.164 4.293-6.495 10.037-6.5 16.018v188.603c.007 4.293 1.209 8.499 3.472 12.147 2.262 3.649 5.496 6.595 9.338 8.51l-26.453 21.351-.641-.182c-5.501-1.699-10.317-5.11-13.746-9.735s-5.293-10.224-5.32-15.982v-237.635c.008-7.124 2.842-13.954 7.879-18.991s11.867-7.871 18.991-7.88h.726l-1.442-1.9c-7.505.195-14.638 3.31-19.881 8.683s-8.184 12.58-8.195 20.088v237.614c.027 6.058 1.953 11.956 5.508 16.862 3.554 4.906 8.557 8.575 14.306 10.488l-25.749 20.86c-.278 0-.556-.085-.833-.139-7.429-1.447-14.122-5.435-18.931-11.279s-7.435-13.179-7.427-20.747v-3.203l.192-.106v-42.702l19.344 2.135v-23.988l-19.536-11.69v-7.6l.192-14.209-.192-.107v-185.112c.009-8.63 3.437-16.904 9.533-23.011 6.097-6.107 14.366-9.548 22.995-9.571h.748l-1.495-1.964c-9.028.206-17.618 3.935-23.934 10.39-6.315 6.456-9.856 15.125-9.864 24.156v184.023l-33.222-18.341v-198.563c.014-10.154 4.054-19.889 11.234-27.069s16.915-11.22 27.069-11.234h.758l-1.527-2.018c-10.546.229-20.584 4.576-27.966 12.111-7.382 7.536-11.521 17.661-11.533 28.21v112.092h-2.626v-20.817h-6.202v20.817h-4.377v-5.871h-10.58v-27.756h-9.351v-111.431c.014-11.655 4.646-22.83 12.881-31.077 8.236-8.248 19.404-12.896 31.059-12.927h.8l-1.58-2.028c-12.08.218-23.594 5.166-32.066 13.782-8.471 8.615-13.225 20.21-13.24 32.293v111.345h-.972v51.819h-7.739v33.094h8.711v35.389h-8.722v-10.548h-3.523v-3.523h-20.86v-250.542c.017-13.183 5.262-25.821 14.584-35.143 9.321-9.322 21.96-14.566 35.143-14.583h.854l-1.612-2.135c-13.609.224-26.586 5.783-36.136 15.481s-14.91 22.759-14.925 36.37v250.51h-57.9678v3.523h77.4078v59.782h-77.4078v3.523h7.0885v14.07h50.8903v102.25c-.002 6.811 1.339 13.555 3.944 19.848 2.606 6.293 6.426 12.01 11.242 16.826s10.534 8.636 16.827 11.242 13.037 3.946 19.848 3.945h544.127c7.112-.008 14.147-1.475 20.669-4.31s12.394-6.978 17.251-12.173l.288-.309c8.794-9.552 13.668-22.065 13.654-35.048l1.409-298.09h-2.135l-.908 182.923v-104.939h-36.211v-17.433h4.367v-18.149h-3.641v-20.817h-.726v-21.585h97.947v-14.081h3.523v-14.071h3.513v-14.07h3.523v-56.292zm-594.153 446.33h-1.323c-7.892-.015-15.668-1.901-22.69-5.503s-13.09-8.817-17.706-15.218c-6.087-8.444-9.353-18.595-9.331-29.005v-102.249h33.094v86.161c-.009 11.616 4.37 22.806 12.26 31.33 7.891 8.524 18.711 13.753 30.293 14.639zm27.052-21.81h-1.185c-11.268-.575-21.883-5.459-29.65-13.641-7.767-8.183-12.092-19.038-12.08-30.32v-217.779h6.127v19.771h13.804v-23.486h13.205v206.666h.064c.282 9.513 3.927 18.619 10.287 25.699 6.359 7.081 15.023 11.679 24.451 12.978zm27.201-21.948-1.004-.097c-9.322-1.052-17.932-5.495-24.191-12.483-6.26-6.988-9.732-16.033-9.756-25.414l33.211-18.351v2.135c.003 7.876 2.697 15.516 7.636 21.651 4.94 6.135 11.828 10.399 19.522 12.083zm492.757-243.507h7.772v17.475h-7.772zm-20.433 3.736h6.619v13.739h-6.619zm-100.658 193.845-1.153-.897h2.914c-.427.246-.875.48-1.324.694zm-160.783-12.106v-123.227h283.113v123.227zm190.46 35.154-27.98-21.735c1.281-.638 2.509-1.377 3.672-2.21h47.154c-1.276 5.561-3.999 10.687-7.893 14.858-3.893 4.171-8.819 7.24-14.28 8.895zm29.07 22.568-27.159-21.084c5.72-1.854 10.851-5.18 14.879-9.643 4.029-4.463 6.813-9.907 8.073-15.786h36.575v8.679c.009 8.972-3.135 17.662-8.881 24.552-5.747 6.889-13.731 11.542-22.559 13.143-.331.054-.619.107-.928.139zm28.578 22.184-26.422-20.508c9.107-1.851 17.294-6.795 23.17-13.995 5.877-7.2 9.081-16.211 9.07-25.504v-8.679h35.72v24.767c-.051 11.027-4.218 21.637-11.685 29.752-7.466 8.114-17.694 13.147-28.679 14.113zm79.639-102.314-.353 74.472c.031 12.588-4.733 24.715-13.323 33.916l-.234.267c-4.656 4.902-10.258 8.807-16.468 11.479s-12.898 4.055-19.658 4.064h-1.377l-25.739-19.984c11.288-1.264 21.718-6.63 29.309-15.08 7.591-8.449 11.814-19.392 11.866-30.75v-24.767h2.605v-10.547l.694-.662h10.462v-10.056l1.196-1.143h10.013v-9.608l1.687-1.612zm-22.216-134.425v11.198h11.209v123.227h-11.209v11.209h-11.199v-123.237h-283.134v-11.199h-11.198v11.199h-11.21v105.249h-78.475c-4.052-.008-7.935-1.622-10.8-4.487s-4.479-6.748-4.487-10.8v-127.123h205.716v3.512h-78.337v8.54l-2.135 2.68h-9.063v11.198h11.209v-11.166zm77.109-96.239h-87.955v-42.211h87.955zm3.523-49.257h-80.92v-6.982h80.92zm3.512-14.07h-73.885v-7.035h73.885zm3.523-14.07h-63.327v-7.035h63.327z"/><path d="m166.799 177.011 178.43 231.966h176.721l193.973-231.977zm179.551 63.358h-5.904v29.208h5.904v5.84h-17.689v-5.84h5.892v-29.208h-5.892v-5.839h17.689zm62.142 6.512v5.434h-5.488v5.434h-5.465v5.423h-5.477v5.434h-4.131v5.434h-5.477v-5.434h-4.089v-5.434h-5.476v-5.423h-5.487v-5.434h-5.477v-10.867h5.477v-5.413h10.963v5.423h5.477v5.434h2.701v-5.434h5.487v-5.423h10.953v5.423h5.487zm47.388.385h-7.099v7.035h-7.11v7.046h-7.099v7.035h21.351v7.035h-35.55v-7.035h7.057v-7.035h7.099v-7.046h7.099v-7.035h-21.351v-7.035h35.507zm43.278 0h-28.407v7.035h21.351v7.046h7.099v7.035h-7.099v7.035h-28.45v-7.035h28.407v-7.035h-21.351v-7.046h-7.099v-7.035h7.099v-7.035h28.408zm43.278 28.151h-7.109v-28.151h-21.351v28.151h-7.11v-49.257h7.11v14.071h21.351v7.035h7.109zm29.07 0h-7.099v-7.035h7.141zm-7.099-14.07v-35.229h7.141v35.229z"/></g></svg>