<svg fill="none" height="892" viewBox="0 0 892 892" width="892" xmlns="http://www.w3.org/2000/svg"><g fill="#000"><path d="m55.6992 536.531v-21.525h21.5276v-107.636h-21.5276v-21.525h64.5798v21.525h-21.5247v107.636h21.5247v21.525z"/><path d="m327.185 411.37v-20.012h-20.011-20.012v20.012h-20.011v20.012h-9.854v-20.012h-20.012v-20.012h-20.012-20.011v20.012h-20.012v20.012 20.012h20.012v20.011h19.86.151v20.011h19.86.152v20.012h12.179 2.729v20.011h20.011v-20.011h2.779 12.179v-20.012h20.012v-20.011h20.011v-20.011h20.012v-20.012-20.012z"/><path d="m468.378 458.734v-25.934h-77.799v-25.934h129.664v25.934h-25.934v25.934zm-77.799 77.799v-25.934h25.931v-25.934h25.934v25.934h77.799v25.934zm51.865-51.868v-25.931h25.934v25.931z"/><path d="m548.607 458.734v-25.934h25.931v25.934zm0 77.799v-25.934h103.731v25.934zm25.931-103.733v-25.934h103.733v25.934zm0 51.865v-25.931h77.8v25.931zm77.8 25.934v-25.934h25.933v25.934z"/><path d="m706.636 536.532v-181.532h25.931v51.865h77.799v25.934h-77.799v103.733zm103.73 0v-103.733h25.934v103.733z"/></g></svg>