<svg fill="none" height="892" viewBox="0 0 892 892" width="892" xmlns="http://www.w3.org/2000/svg"><path d="m298.626 687.655h-31.38c-1.611 0-1.974-.832-.828-1.867l18.937-17.055c1.179-.908 2.616-1.416 4.103-1.452h27.161c1.394 0 1.965.634 1.273 1.452l-14.747 17.045c-1.239 1.138-2.839 1.802-4.519 1.877z" fill="#f15a24"/><path d="m634.164 636.554h-35.033c-1.433-.021-2.841-.375-4.113-1.035l-12.177-7.432c-.794-.484-.45-.866.779-.866h31.772c1.363.028 2.708.322 3.958.866l15.124 7.432c1.103.546 1.045 1.035-.31 1.035z" fill="#f15a24"/><path d="m637.479 590.949-2.453 11.384-1.834 7.151c-.989-.323-1.937-.759-2.825-1.301l-21.719-13.847c-.358-.196-.661-.479-.88-.823l.174-.658 5.114-16.449z" fill="#e04312"/><path d="m702.664 610.07c-.184.208-.658.334-1.451.334h-63.41c-1.575-.06-3.132-.362-4.615-.895l.483-7.156 1.563-11.409c1.096.352 2.236.547 3.387.581h53.844.31l.866-.765 8.839 18.599z" fill="#dd4c1f"/><path d="m692.465 591.525h-53.845c-2.226-.102-4.394-.743-6.318-1.868l-18.439-11.771c-1.272-.813-1.045-1.495.658-1.495h47.55c2.094.103 4.148.61 6.048 1.495l23.949 11.771c2.051 1.002 2.327 1.868.397 1.868z" fill="#f15a24"/><path d="m225.719 613.548 2.453 11.385 1.833 7.151c.989-.323 1.938-.76 2.826-1.302l21.714-13.866c.358-.196.661-.479.88-.823l-.174-.658-5.114-16.45z" fill="#e04312"/><path d="m160.534 632.674c.184.208.658.334 1.452.334h63.409c1.575-.06 3.132-.362 4.616-.895l-.484-7.156-1.563-11.409c-1.096.352-2.236.547-3.387.581h-53.844-.31l-.87-.764-8.835 18.598z" fill="#dd4c1f"/><path d="m170.729 614.129h53.844c2.227-.103 4.396-.742 6.323-1.863l18.434-11.776c1.277-.813 1.045-1.495-.658-1.495h-47.564c-2.092.106-4.144.613-6.043 1.495l-23.954 11.776c-2.023 1.002-2.313 1.863-.382 1.863z" fill="#f15a24"/><path d="m244.404 649.259h-39.465c-1.524 0-1.543-.585-.058-1.311l18.99-9.323c1.462-.658 3.038-1.024 4.64-1.079h35.381c1.365 0 1.67.484.678 1.079l-15.289 9.323c-1.505.801-3.173 1.25-4.877 1.311z" fill="#f15a24"/><path d="m276.814 649.259h-23.426c-1.2 0-1.418-.483-.484-1.045l15.782-9.85c1.019-.541 2.151-.833 3.305-.852h20.993c1.079 0 1.451.378.783.852l-13.372 9.845c-1.077.667-2.314 1.03-3.581 1.05z" fill="#f15a24"/><path d="m308.742 649.259h-23.426c-1.2 0-1.548-.483-.784-1.045l13.005-9.85c.926-.558 1.987-.853 3.068-.852h20.973c1.079 0 1.539.378 1.026.852l-10.591 9.845c-.595.581-2.047 1.05-3.271 1.05z" fill="#f15a24"/><path d="m340.587 649.259h-23.422c-1.204 0-1.683-.483-1.083-1.045l10.232-9.85c.484-.484 1.752-.852 2.831-.852h20.978c1.079 0 1.64.378 1.263.852l-7.814 9.845c-.45.581-1.78 1.05-2.985 1.05z" fill="#f15a24"/><path d="m373.719 649.259h-23.422c-1.204 0-1.819-.483-1.388-1.045l7.344-9.85c.358-.484 1.5-.852 2.579-.852h20.993c1.074 0 1.751.378 1.509.852l-4.925 9.845c-.29.581-1.485 1.05-2.69 1.05z" fill="#f15a24"/><path d="m404.2 649.259h-23.422c-1.204 0-1.935-.484-1.669-1.045l4.693-9.846c.228-.483 1.268-.851 2.347-.851h20.993c1.074 0 1.853.377 1.742.851l-2.274 9.846c-.136.576-1.205 1.045-2.41 1.045z" fill="#f15a24"/><path d="m437.492 649.259h-23.422c-1.205 0-2.081-.484-1.979-1.045l1.795-9.846c.087-.483 1.016-.851 2.095-.851h20.993c1.079 0 1.964.377 1.993.851l.624 9.846c.039.576-.895 1.045-2.099 1.045z" fill="#f15a24"/><path d="m468.781 649.259h-23.427c-1.205 0-2.211-.483-2.264-1.045l-.934-9.85c-.044-.484.784-.852 1.863-.852h20.988c1.079 0 2.071.378 2.23.852l3.353 9.845c.198.581-.61 1.05-1.809 1.05z" fill="#f15a24"/><path d="m500.064 649.259h-23.421c-1.205 0-2.342-.483-2.555-1.045l-3.658-9.85c-.179-.484.547-.852 1.621-.852h20.993c1.079 0 2.173.378 2.468.852l6.076 9.845c.354.581-.319 1.05-1.524 1.05z" fill="#f15a24"/><path d="m530.148 649.259h-23.426c-1.205 0-2.463-.484-2.83-1.045l-6.29-9.846c-.3-.483.319-.851 1.398-.851h20.993c1.079 0 2.274.377 2.695.851l8.709 9.846c.503.576-.049 1.045-1.249 1.045z" fill="#f15a24"/><path d="m564.238 649.259h-23.422c-1.204 0-2.603-.484-3.144-1.045l-9.251-9.85c-.445-.484.063-.852 1.142-.852h20.988c1.046-.012 2.072.284 2.951.852l11.665 9.845c.687.581.256 1.05-.929 1.05z" fill="#f15a24"/><path d="m595.125 649.259h-23.412c-1.221-.005-2.414-.369-3.431-1.045l-11.95-9.85c-.576-.484-.174-.852.905-.852h20.993c1.116.009 2.212.302 3.183.852l14.355 9.845c.842.581.557 1.05-.643 1.05z" fill="#f15a24"/><path d="m614.251 626.394h-19.067c-.897-.014-1.78-.215-2.594-.59l-6.023-3.387c-.528-.295-.3-.542.484-.542h18.119c.879.018 1.747.202 2.559.542l6.851 3.387c.677.319.503.59-.329.59z" fill="#f15a24"/><path d="m587.5 626.394h-19.067c-.842-.002-1.672-.204-2.419-.59l-5.022-3.387c-.441-.295-.141-.542.653-.542h18.114c.836.004 1.661.189 2.419.542l5.854 3.387c.532.319.3.59-.532.59z" fill="#f15a24"/><path d="m560.943 626.394h-19.067c-.789.014-1.566-.19-2.245-.59l-4.031-3.387c-.353-.295 0-.542.813-.542h18.114c.78-.006 1.55.18 2.241.542l4.862 3.387c.46.319.145.59-.687.59z" fill="#f15a24"/><path d="m534.58 626.394h-19.067c-.833 0-1.786-.271-2.071-.59l-3.048-3.387c-.266-.295.179-.542.967-.542h18.119c.731-.019 1.452.168 2.081.542l3.87 3.387c.373.319-.004.59-.851.59z" fill="#f15a24"/><path d="m508.022 626.394h-19.072c-.827 0-1.698-.271-1.892-.59l-2.056-3.387c-.179-.295.339-.542 1.132-.542h18.115c.793 0 1.669.247 1.935.542l2.903 3.387c.237.319-.232.59-1.065.59z" fill="#f15a24"/><path d="m481.466 626.394h-19.072c-.832 0-1.621-.271-1.717-.59l-1.065-3.387c-.092-.295.484-.542 1.292-.542h18.114c.794 0 1.602.247 1.766.542l1.887 3.387c.179.319-.373.59-1.205.59z" fill="#f15a24"/><path d="m455.548 626.394h-19.067c-.832 0-1.543-.271-1.553-.59l-.092-3.387c0-.295.653-.542 1.451-.542h18.119c.789 0 1.529.247 1.607.542l.919 3.387c.077.319-.552.59-1.384.59z" fill="#f15a24"/><path d="m428.352 626.394h-19.072c-.832 0-1.451-.271-1.374-.59l.929-3.387c.077-.295.813-.542 1.606-.542h18.119c.789 0 1.452.247 1.452.542l-.097 3.387c-.019.319-.731.59-1.563.59z" fill="#f15a24"/><path d="m402.24 626.394h-19.067c-.832 0-1.384-.271-1.205-.59l1.902-3.387c.169-.295.967-.542 1.766-.542h18.119c.788 0 1.379.247 1.287.542l-1.074 3.387c-.102.319-.895.59-1.728.59z" fill="#f15a24"/><path d="m376.196 626.394h-19.067c-.832 0-1.307-.271-1.031-.59l2.874-3.387c.247-.295 1.127-.542 1.935-.542h18.1c.794 0 1.311.247 1.132.542l-2.046 3.387c-.194.319-1.065.59-1.897.59z" fill="#f15a24"/><path d="m349.452 626.394h-19.072c-.833 0-1.225-.271-.857-.59l3.871-3.387c.628-.374 1.349-.561 2.08-.542h18.119c.789 0 1.234.247.968.542l-3.043 3.387c-.286.319-1.239.59-2.066.59z" fill="#f15a24"/><path d="m322.763 626.394h-19.086c-.832 0-1.147-.271-.682-.59l4.872-3.387c.691-.362 1.46-.548 2.24-.542h18.119c.788 0 1.161.247.808.542l-4.045 3.387c-.674.397-1.444.601-2.226.59z" fill="#f15a24"/><path d="m296.013 626.394h-19.067c-.832 0-1.064-.271-.508-.59l5.874-3.387c.758-.352 1.583-.537 2.419-.542h18.119c.788 0 1.088.247.648.542l-5.041 3.387c-.756.389-1.594.591-2.444.59z" fill="#f15a24"/><path d="m269.325 626.394h-19.067c-.832 0-.968-.271-.329-.59l6.87-3.387c.812-.34 1.68-.524 2.56-.542h18.119c.788 0 1.016.247.484.542l-6.043 3.387c-.814.375-1.697.576-2.594.59z" fill="#f15a24"/><path d="m250.733 636.554h-20.804c-1.065 0-1.171-.368-.242-.822l15.995-7.853c.994-.429 2.062-.662 3.145-.687h18.869c.967 0 1.2.305.513.687l-14.07 7.853c-1.063.515-2.225.796-3.406.822z" fill="#f15a24"/><path d="m279.569 636.554h-20.805c-1.069 0-1.282-.368-.483-.822l13.74-7.853c.92-.441 1.926-.675 2.946-.687h18.869c.968 0 1.283.305.707.687l-11.815 7.853c-.969.531-2.055.813-3.159.822z" fill="#f15a24"/><path d="m307.838 636.554h-20.804c-1.069 0-1.384-.368-.716-.822l11.553-7.853c.846-.454 1.793-.69 2.753-.687h18.869c.968 0 1.374.305.905.687l-9.604 7.853c-.885.553-1.912.839-2.956.822z" fill="#f15a24"/><path d="m335.609 636.554h-20.804c-1.069 0-1.486-.367-.944-.822l9.357-7.853c.772-.469 1.662-.707 2.565-.687h18.869c.967 0 1.451.305 1.093.687l-7.427 7.853c-.44.455-1.645.822-2.709.822z" fill="#f15a24"/><path d="m364.3 636.554h-20.805c-1.069 0-1.587-.368-1.175-.822l7.112-7.853c.343-.382 1.393-.687 2.366-.687h18.869c.967 0 1.543.305 1.291.687l-5.186 7.853c-.305.454-1.403.822-2.472.822z" fill="#f15a24"/><path d="m392.7 636.249h-20.737c-1.064 0-1.688-.367-1.408-.817l4.872-7.804c.238-.382 1.2-.687 2.168-.687h18.796c.968 0 1.626.305 1.481.687l-2.956 7.804c-.17.45-1.161.817-2.216.817z" fill="#f15a24"/><path d="m420.694 636.554h-20.805c-1.069 0-1.795-.368-1.64-.822l2.7-7.853c.131-.382 1.011-.687 1.979-.687h18.869c.967 0 1.713.305 1.674.687l-.774 7.853c-.044.454-.934.822-2.003.822z" fill="#f15a24"/><path d="m449.176 636.554h-20.804c-1.069 0-1.901-.368-1.872-.822l.484-7.853c0-.382.817-.687 1.785-.687h18.869c.967 0 1.8.305 1.872.687l1.452 7.853c.067.454-.716.822-1.786.822z" fill="#f15a24"/><path d="m477.852 636.554h-20.804c-1.07 0-2.008-.368-2.11-.822l-1.761-7.853c-.087-.382.619-.687 1.587-.687h18.869c.968 0 1.887.305 2.066.687l3.701 7.853c.223.454-.459.822-1.548.822z" fill="#f15a24"/><path d="m505.995 636.554h-20.804c-1.069 0-2.109-.368-2.337-.822l-3.977-7.853c-.193-.382.426-.687 1.394-.687h18.869c.967 0 1.969.305 2.259.687l5.903 7.853c.343.454-.237.822-1.307.822z" fill="#f15a24"/><path d="m533.554 636.554h-20.804c-1.064 0-2.206-.368-2.564-.822l-6.13-7.853c-.3-.382.237-.687 1.209-.687h18.869c.968 0 2.057.305 2.448.687l8.061 7.853c.455.454-.019.822-1.089.822z" fill="#f15a24"/><path d="m561.678 636.554h-20.804c-1.069 0-2.313-.368-2.796-.822l-8.332-7.853c-.406-.382.044-.687 1.011-.687h18.869c.927-.013 1.839.225 2.642.687l10.257 7.853c.595.454.223.822-.847.822z" fill="#f15a24"/><path d="m590.873 636.554h-20.804c-1.068.001-2.117-.283-3.039-.822l-10.615-7.853c-.517-.382-.154-.687.818-.687h18.869c.987.003 1.96.238 2.84.687l12.545 7.853c.721.454.455.822-.614.822z" fill="#f15a24"/><path d="m627.613 649.259h-23.426c-1.311-.032-2.594-.391-3.731-1.045l-14.766-9.85c-.711-.484-.416-.852.663-.852h20.988c1.192.028 2.364.319 3.43.852l17.186 9.845c1.006.581.846 1.05-.344 1.05z" fill="#f15a24"/><path d="m660.101 649.259h-23.426c-1.403-.054-2.778-.41-4.03-1.045l-17.597-9.85c-.851-.484-.663-.852.416-.852h20.993c1.268.044 2.515.333 3.672.852l20.016 9.845c1.176.581 1.156 1.05-.044 1.05z" fill="#f15a24"/><path d="m627.962 665.695h-26.828c-1.513-.045-2.983-.518-4.238-1.365l-16.324-12.724c-.779-.605-.426-1.089.793-1.089h23.707c1.361.037 2.691.411 3.871 1.089l19.449 12.724c1.118.755.949 1.365-.43 1.365z" fill="#f15a24"/><path d="m591.395 665.695h-26.833c-1.379 0-3.091-.61-3.87-1.365l-12.739-12.724c-.605-.605-.112-1.089 1.103-1.089h23.707c1.261.013 2.491.392 3.541 1.089l15.86 12.724c.948.755.605 1.365-.769 1.365z" fill="#f15a24"/><path d="m554.915 665.695h-26.828c-1.379 0-2.903-.61-3.464-1.365l-9.154-12.724c-.435-.605.194-1.089 1.408-1.089h23.707c1.215 0 2.651.484 3.237 1.089l12.274 12.724c.712.755.199 1.365-1.18 1.365z" fill="#f15a24"/><path d="m518.342 665.695h-26.828c-1.378 0-2.748-.61-3.077-1.365l-5.559-12.724c-.261-.605.484-1.089 1.718-1.089h23.683c1.219 0 2.52.484 2.932 1.089l8.679 12.724c.537.755-.169 1.365-1.548 1.365z" fill="#f15a24"/><path d="m481.867 665.695h-26.832c-1.374 0-2.574-.61-2.69-1.365l-1.974-12.724c-.092-.605.803-1.089 2.022-1.089h23.707c1.22 0 2.386.484 2.627 1.089l5.095 12.724c.281.755-.576 1.365-1.955 1.365z" fill="#f15a24"/><path d="m408.82 665.695h-26.832c-1.379 0-2.231-.61-1.935-1.365l5.205-12.724c.247-.605 1.418-1.089 2.632-1.089h23.708c1.214 0 2.109.484 2.012 1.089l-2.08 12.724c-.131.755-1.331 1.365-2.71 1.365z" fill="#f15a24"/><path d="m372.249 665.695h-26.828c-1.379 0-2.061-.61-1.538-1.365l8.8-12.724c.421-.605 1.723-1.089 2.942-1.089h23.707c1.219 0 1.979.484 1.708 1.089l-5.675 12.724c-.363.755-1.737 1.365-3.116 1.365z" fill="#f15a24"/><path d="m736.56 687.655h-84.668c-1.843-.114-3.623-.709-5.163-1.727l-24.674-17.248c-1.065-.745-.871-1.326.43-1.326h73.333c1.74.114 3.442.564 5.012 1.326l34.937 17.248c1.93.963 2.298 1.727.793 1.727z" fill="#f15a24"/><path d="m639.685 687.307h-31.308c-1.826-.082-3.582-.732-5.022-1.858l-19.45-16.982c-.909-.798-.517-1.452.876-1.452h27.094c1.6.071 3.151.573 4.49 1.452l23.615 16.982c1.442 1.026 1.311 1.858-.295 1.858z" fill="#f15a24"/><path d="m751.032 721.266h-38.285c-1.969 0-5.399-1.243-7.693-2.772l-36.91-24.675c-1.689-1.127-1.694-2.017-.044-2.017h32.194c1.649 0 4.523.89 6.483 2.017l42.968 24.675c2.666 1.529 3.256 2.772 1.287 2.772z" fill="#f15a24"/><path d="m595.778 687.655h-31.38c-1.611 0-3.614-.832-4.49-1.867l-14.515-17.055c-.682-.798-.101-1.452 1.292-1.452h27.162c1.482.034 2.913.542 4.083 1.452l18.7 17.045c1.132 1.045.76 1.877-.852 1.877z" fill="#f15a24"/><path d="m553.328 687.655h-31.381c-1.611 0-3.387-.832-3.967-1.867l-9.754-17.055c-.455-.798.3-1.452 1.693-1.452h27.167c1.393 0 3.029.634 3.677 1.452l13.944 17.055c.841 1.035.232 1.867-1.379 1.867z" fill="#f15a24"/><path d="m510.878 687.655h-31.381c-1.611 0-3.145-.832-3.445-1.867l-4.973-17.055c-.233-.798.696-1.452 2.094-1.452h27.162c1.393 0 2.85.634 3.28 1.452l9.164 17.045c.552 1.045-.29 1.877-1.901 1.877z" fill="#f15a24"/><path d="m468.427 687.655h-31.38c-1.611 0-2.903-.832-2.903-1.867l-.189-17.055c0-.798 1.103-1.452 2.497-1.452h27.161c1.398 0 2.676.634 2.903 1.452l4.355 17.055c.246 1.035-.833 1.867-2.444 1.867z" fill="#f15a24"/><path d="m425.977 687.655h-31.38c-1.611 0-2.676-.832-2.419-1.867l4.596-17.055c.213-.798 1.5-1.452 2.903-1.452h27.162c1.393 0 2.496.634 2.477 1.452l-.407 17.055c-.009 1.035-1.32 1.867-2.932 1.867z" fill="#f15a24"/><path d="m383.507 687.655h-31.361c-1.611 0-2.419-.832-1.878-1.867l9.377-17.055c.44-.798 1.906-1.452 3.3-1.452h27.161c1.398 0 2.323.634 2.076 1.452l-5.187 17.045c-.314 1.045-1.858 1.877-3.488 1.877z" fill="#f15a24"/><path d="m341.076 687.655h-31.38c-1.611 0-2.206-.832-1.35-1.867l14.157-17.055c.662-.798 2.303-1.452 3.696-1.452h27.166c1.394 0 2.139.634 1.674 1.452l-9.971 17.045c-.6 1.045-2.38 1.877-3.992 1.877z" fill="#f15a24"/><path d="m335.774 665.695h-26.833c-1.379 0-1.887-.61-1.151-1.365l12.385-12.724c.591-.605 2.033-1.089 3.247-1.089h23.707c1.219 0 1.843.484 1.403 1.089l-9.26 12.724c-.576.755-2.119 1.365-3.498 1.365z" fill="#f15a24"/><path d="m299.201 665.695h-26.828c-1.378 0-1.712-.61-.764-1.365l15.966-12.724c1.055-.697 2.288-1.075 3.551-1.089h23.707c1.215 0 1.704.484 1.094 1.089l-12.855 12.724c-.774.755-2.492 1.365-3.871 1.365z" fill="#f15a24"/><path d="m262.727 665.695h-26.833c-1.379 0-1.539-.61-.377-1.365l19.556-12.724c1.181-.676 2.51-1.05 3.87-1.089h23.707c1.215 0 1.568.484.784 1.089l-16.45 12.724c-1.261.849-2.738 1.322-4.257 1.365z" fill="#f15a24"/><path d="m255.102 687.655h-31.381c-1.611 0-1.732-.832-.29-1.867l23.837-17.055c1.349-.878 2.907-1.379 4.514-1.452h27.162c1.398 0 1.785.634.861 1.452l-19.672 17.045c-1.442 1.132-3.2 1.788-5.031 1.877z" fill="#f15a24"/><path d="m587.375 721.266h-43.336c-3.285 0-7.092-2.066-8.529-4.586l-12.251-21.453c-1.088-1.906.271-3.387 3.029-3.387h36.441c2.763 0 6.29 1.495 7.925 3.387l18.642 21.453c2.1 2.419 1.229 4.586-1.921 4.586z" fill="#f15a24"/><path d="m257.099 721.266h-43.336c-3.28 0-3.387-2.066-.338-4.586l26.039-21.453c2.317-1.906 6.333-3.387 9.095-3.387h36.442c2.762 0 3.604 1.495 1.858 3.387l-19.648 21.453c-2.216 2.419-6.958 4.586-10.112 4.586z" fill="#f15a24"/><path d="m224.959 614.594h-53.109c-1.747 0-1.558-.813.382-1.766l24.365-11.956c1.8-.829 3.741-1.31 5.719-1.417h46.902c1.543 0 1.829.643.609 1.417l-18.869 11.956c-1.833 1.051-3.888 1.656-5.999 1.766z" fill="#f15a24"/><path d="m211.577 687.655h-83.29c-2.361 0-1.751-1.248 1.302-2.748l31.414-15.419c2.419-1.186 6.024-2.134 8.07-2.134h72.118c2.052 0 2.366.968.673 2.134l-22.058 15.419c-2.143 1.5-5.863 2.748-8.229 2.748z" fill="#f15a24"/><path d="m637.028 721.266h-29.281c-4.073 0-9.676-2.574-12.502-5.67l-17.707-19.518c-2.158-2.38-1.094-4.252 2.327-4.252h24.626c3.426 0 8.327 1.872 11.051 4.252l22.347 19.518c3.537 2.995 3.194 5.67-.861 5.67z" fill="#f15a24"/><path d="m699.926 721.266h-39.727c-1.509 0-3.914-.968-5.351-2.153l-14.998-12.342c-1.234-1.016-1.108-1.829.271-1.829h36.219c1.378 0 3.682.813 5.167 1.829l18.022 12.342c1.703 1.185 1.897 2.153.397 2.153z" fill="#f15a24"/><path d="m810.536 679.256-47.724 1.258c-.899-.031-1.792-.154-2.666-.368l1.5-15.966.223-2.347h42.576l7.04 17.007c.072.266-.228.416-.949.416z" fill="#dd4c1f"/><path d="m762.952 660.716-2.821 19.425c-1.818-.418-3.591-1.014-5.293-1.78l-26.649-12.342c-1.388-.644-2.056-1.205-1.935-1.529l7.601-18.332z" fill="#e04312"/><path d="m803.656 662.177h-39.721c-1.515 0-4.461-.967-6.561-2.148l-21.927-12.347c-1.804-1.016-2.133-1.829-.754-1.829h36.218c1.379 0 4.142.813 6.193 1.829l24.941 12.347c2.385 1.181 3.121 2.148 1.611 2.148z" fill="#f15a24"/><path d="m56.7738 679.256 47.7292 1.258c.899-.031 1.792-.154 2.665-.368l-1.499-15.966-.223-2.347h-42.5761l-7.0444 17.007c-.0726.266.2274.416.9483.416z" fill="#dd4c1f"/><path d="m104.343 660.716 2.825 19.425c1.819-.418 3.592-1.014 5.293-1.78l26.649-12.342c1.389-.644 2.056-1.205 1.935-1.529l-7.6-18.332z" fill="#e04312"/><path d="m63.6585 662.177h39.7165c1.51 0 4.461-.967 6.561-2.148l21.927-12.347c1.804-1.016 2.133-1.829.754-1.829h-36.2136c-1.3789 0-4.1415.813-6.1929 1.829l-24.9409 12.347c-2.3901 1.181-3.1255 2.148-1.6111 2.148z" fill="#f15a24"/><path d="m195.117 778.187h-29.286c-4.069 0-3.536-2.574 1.045-5.67l28.909-19.537c3.527-2.38 9.057-4.252 12.477-4.252h24.627c3.425 0 3.87 1.872.9 4.252l-24.259 19.518c-3.585 2.994-10.359 5.689-14.413 5.689z" fill="#f15a24"/><path d="m143.639 721.266h-29.286c-4.069 0-2.821-2.574 2.627-5.67l34.322-19.518c4.19-2.38 10.238-4.252 13.664-4.252h24.626c3.421 0 3.338 1.872-.285 4.252l-29.683 19.518c-4.557 2.995-11.911 5.67-15.985 5.67z" fill="#f15a24"/><path d="m94.6669 721.266h-29.2953c-4.0689 0-2.1384-2.574 4.127-5.67l39.4894-19.518c4.838-2.38 11.365-4.252 14.79-4.252h24.622c3.425 0 2.845 1.872-1.408 4.252l-34.835 19.518c-5.235 2.995-13.4308 5.67-17.4901 5.67z" fill="#f15a24"/><path d="m553.381 745.97c-.61.547-1.631.881-2.961.881h-299.296c-2.951 0-3.716-1.655-1.708-3.586l24.162-23.223c1.5-1.451 4.838-2.627 7.315-2.627h251.683c2.115 0 4.495.866 5.719 2.008.201.183.379.391.528.619l4.601 7.257 10.16 15.966c.672 1.055.542 2.023-.203 2.705z" fill="#dd4c1f"/><path d="m553.584 743.266-10.16-15.967-1.321-2.075-3.281-5.162-.527-.62-22.962-26.794 2.772 21.051 5.666 3.735 3.837 1.868 2.114 1.031.314.967c.484.286.939.576 1.389.871l11.82 12.831 10.136 11.002c.745-.716.875-1.684.203-2.738z" fill="#e04312"/><path d="m527.225 721.266h-252.79c-2.497 0-3.14-1.655-1.452-3.585l20.408-23.223c1.267-1.452 4.078-2.632 6.178-2.632h212.586c2.094 0 4.504 1.195 5.273 2.632l12.468 23.223c1.036 1.93-.174 3.585-2.671 3.585z" fill="#f15a24"/><path d="m272.3 721.266-23.968 23.668 45.068-50.476z" fill="#e04312"/><path d="m380.483 575.68-2.085 1.451h2.066l2.017-1.451zm-4.151 1.451-2.288 1.539h2.133l2.221-1.539zm-4.437 1.534-2.506 1.64h2.207l2.448-1.64zm-5.22 3.387 2.7-1.761h-2.206l-5.758 3.653h11.844l2.559-1.892zm11.955-9.004-2.012 1.277h7.741l-1.902 1.355h2.018l3.58-2.632z" fill="#000"/><path d="m391.311 578.665-3.842 3.387h2.284l3.696-3.387zm-4.456-1.538-1.936 1.538h6.401l1.742-1.538zm5.143-4.079-1.611 1.277h7.741l1.388-1.277zm-13.668 9.018-2.468 1.892h9.474l2.133-1.892zm10.116-7.741-3.657 2.802h2.066l3.532-2.802z" fill="#000"/><path d="m409.149 573.048-3.503 4.079h-6.207l4.045-4.079h-1.882l-11.322 10.91h2.371l5.249-5.293h6.411l-4.548 5.293h2.371l8.892-10.91z" fill="#000"/><path d="m421.816 574.325.697-1.277h-9.425l-8.356 10.91h11.844l1.026-1.892h-9.139l2.457-3.386h6.401l.905-1.539h-6.173l2.022-2.801z" fill="#000"/><path d="m433.645 574.325.348-1.277h-9.42l-5.409 10.91h11.844l.518-1.892h-9.14l1.534-3.386h6.406l.484-1.539h-6.179l1.263-2.801z" fill="#000"/><path d="m436.312 582.066 1.63-9.018h-1.886l-2.453 10.91h11.834v-1.892z" fill="#000"/><path d="m350.259 596.615-4.533 3.14h3.067l4.393-3.14zm-7.606 3.14-5.138 3.454h3.223l4.988-3.454zm-8.36 3.454-5.849 3.813h3.386l5.68-3.813zm-12.347 8.061 6.498-4.243h-3.387l-14.157 8.979h18.952l6.42-4.736zm28.178-20.151-4.147 2.627h11.215l-4.015 2.869h2.932l7.446-5.496z" fill="#000"/><path d="m363.599 603.209-9.096 8.061h3.58l8.738-8.056zm-5.322-3.454-4.355 3.454h9.677l3.899-3.454zm10.9-8.636-3.319 2.627h11.215l2.85-2.627zm-29.029 20.146-6.188 4.737h15.197l5.351-4.737zm22.89-17.519-7.853 6.009h3.072l7.582-6.009z" fill="#000"/><path d="m393.619 591.119-7.417 8.636h-9.192l8.568-8.636h-2.69l-25.783 24.883h3.789l12.69-12.793h9.677l-10.983 12.793h3.788l20.268-24.883z" fill="#000"/><path d="m411.25 593.746 1.427-2.627h-13.431l-19.058 24.883h18.952l2.578-4.737h-14.34l5.806-8.056h9.676l2.032-3.454h-9.192l4.354-6.009z" fill="#000"/><path d="m428.329 593.746.721-2.627h-13.431l-12.333 24.883h18.951l1.297-4.737h-14.321l3.633-8.056h9.677l1.098-3.454h-9.193l2.715-6.009z" fill="#000"/><path d="m431.027 611.27 3.644-20.147h-2.686l-5.602 24.883h18.951v-4.736z" fill="#000"/><path d="m457.57 596.615h-2.941l.426 3.14h3.072zm-2.501 3.14h-3.067l.319 3.454h3.222zm-2.748 3.454h-3.227l.184 3.813h3.387zm11.5 8.061h-14.321l-.203-4.244h-3.387l.029 8.98h18.952zm-4.538-20.147h-13.45v2.627h11.215l.518 2.869h2.932z" fill="#000"/><path d="m481.625 603.209h-3.222l3.634 8.056h3.58zm-4.78-3.454h-9.192l1.098 3.454h9.676zm-1.209-8.636h-10.746l.837 2.627h11.21zm6.401 20.151h-14.321l1.296 4.736h15.163zm-16.31-17.519h-2.806l1.645 6.009h3.072z" fill="#000"/><path d="m492.004 591.119h-2.685l6.231 8.636h-9.192l-5.119-8.636h-2.685l13.547 24.883h3.793l-7.528-12.793h9.676l9.231 12.793h3.793z" fill="#000"/><path d="m529.253 611.27h-14.321l-6.919-8.056h9.677l-3.426-3.455h-9.192l-5.158-6.009h11.21l-2.724-2.627h-13.455l20.263 24.883h18.956z" fill="#000"/><path d="m551.068 611.27h-14.321l-9.096-8.056h9.676l-4.354-3.455h-9.192l-6.774-6.009h11.162l-3.435-2.627h-13.422l26.993 24.883h18.956z" fill="#000"/><path d="m572.889 611.27h-14.321l-28.197-20.147h-2.685l33.717 24.883h18.956z" fill="#000"/><path d="m250.858 665.458-.343.237-19.556 13.547h6.599l16.706-11.936 2.245-1.606.334-.238zm-26.494 13.779-12.511 8.409-12.681 8.51h7.349l24.418-16.934zm-32.517 16.933-32.581 21.255h8.288l31.618-21.269zm-32.581 21.255h-8.288l-5.941 3.769-95.8495 60.767h55.7655l50.191-37.026h-38.057zm106.924-73.057-7.741 4.896-7.509 4.751h21.908l-16.005 11.443h5.985l20.214-14.917 1.78-1.316 6.59-4.838z" fill="#000"/><path d="m258.652 696.156-28.356 25.11-26.727 23.669h9.512l25.677-23.669 27.239-25.11zm-.691-16.934-10.645 8.419-10.726 8.5h22.043l4.887-4.354 4.707-4.171 9.502-8.418zm44.027-34.874-6.178 4.897-1.587 1.258-4.417 3.498h21.902l3.735-3.445 1.452-1.321 5.322-4.887zm-136.437 100.572-48.382 37.027h44.613l4.282-3.793 24.297-21.516 13.228-11.718zm118.773-90.905-17.36 13.286-15.598 11.936h6.595l15.066-11.936 2.032-1.606 14.742-11.68z" fill="#000"/><path d="m347.893 644.363-5.283 6.154-13.034 15.178-1.379 1.606-10.252 11.936h-19.788l11.839-11.936 1.592-1.606 15.056-15.178 1.248-1.258 4.839-4.896h-5.032l-5.075 4.896-2.27 2.192-.483.44-15.966 15.41-21.09 20.354-4.296 4.171-30.505 29.44-28.459 27.462-30.514 29.459-3.929 3.794h11.157l5.013-5.051 27.955-28.183 27.239-27.462 24.907-25.11h22.038l-18.26 21.259-3.304 3.871-21.975 25.584-30.152 35.111h11.147l28.594-35.111 20.838-25.584 3.14-3.871 20.838-25.589 3.387-4.171 16.581-20.354 1.306-1.606 12.299-15.1 1.262-1.553 3.813-4.679z" fill="#000"/><path d="m358.465 644.363-3.75 4.896-1.398 1.824-2.816 3.682-9.604 12.536-15.588 20.354-3.194 4.171-19.599 25.589-2.951 3.871-19.595 25.565-26.891 35.11h55.765l19.106-35.11 1.04-1.936h-38.042l17.079-23.668 2.777-3.871 15.342-21.259h22.042l2.545-4.354 2.453-4.171 4.955-8.418h-19.789l8.612-11.936 1.161-1.606 8.429-11.68h21.907l1.834-3.386.754-1.389 2.661-4.896z" fill="#000"/><path d="m389.23 644.363-2.419 4.896-.842 1.703-2.419 4.906-5.665 11.433-10.088 20.354-2.071 4.171-12.7 25.589-1.906 3.871-12.681 25.584-17.418 35.111h55.785l9.604-35.13.522-1.936h-38.033l10.678-23.668 1.737-3.871 9.614-21.22h22.037l1.379-4.354 1.326-4.171 2.68-8.418h-19.788l5.385-11.936.726-1.607 5.269-11.679h21.907l.91-3.329.42-1.528 1.312-4.795z" fill="#000"/><path d="m406.857 744.934 4.282-23.668.696-3.871 4.626-25.589.754-4.17 3.682-20.355 3.261-18.041.886-4.896h-5.047l-1.103 4.896-4.064 18.041-4.586 20.355-.939 4.17-5.762 25.589-.866 3.871-5.763 25.584-7.91 35.111h55.765l.121-35.111v-1.935z" fill="#000"/><path d="m470.067 665.695-.043-.237h-5.985l.034.237.227 1.659 1.621 11.883h6.609zm-2.419 26.126-.571-4.171-1.146-8.418h-6.609l.779 8.418.382 4.171.401 4.354h7.345zm-6.773 4.354h-7.34l1.016 21.254h8.302zm33.451 50.695-.431-1.935h-38.028l-1.132-23.669-.184-3.87h-8.288v3.87l.087 25.585.117 35.11h55.779zm-21.695-96.333-1.383-6.155h-25.236v4.897 4.756h21.907l2.071 11.442h5.985z" fill="#000"/><path d="m551.203 743.604-9.192-18.545-2.419-4.877-11.907-24.026h-7.345l2.207 4.891 7.388 16.368 2.743 6.081 9.676 21.439h9.522zm-38.497-64.348h-19.784l2.676 8.418 1.326 4.171 1.378 4.354h22.038zm-7.635-28.72-1.074-2.167-1.955-4.006h-20.214l1.558 4.896.421 1.336 1.089 3.42h21.907zm38.144 96.334-.866-1.935h-38.042l.522 1.935 9.614 35.111h44.613zm-7.707-30.171-.871-1.524-10.823-19.019h-3.449l2.206 4.891 7.388 16.368h2.641c1.602.021 3.174.431 4.582 1.195-.665-.542-1.231-1.195-1.674-1.931zm-42.576-37.443 2.676 8.418 1.325 4.171 1.379 4.354h22.038l-7.635-16.933zm-5.438-17.089-2.589-8.133h-5.486l3.179 11.612.483 1.674 3.266 11.936h6.6l-3.798-11.936z" fill="#000"/><path d="m583.228 721.266 43.795 60.695h11.128l-47.777-62.379-10.557-13.779-13.895-18.148-15.594-20.354-1.229-1.606-11.611-15.178-4.713-6.154h-5.036l3.415 4.736 1.026 1.418 10.949 15.178 9.773 13.546h-19.788l-7.025-11.935-3.014-5.124-6.832-11.612-.769-1.311-2.903-4.896h-5.027l2.666 4.896 2.351 4.325 6.546 12.033.919 1.684 11.075 20.354 2.269 4.171 16.015 29.44 33.025 60.695h11.152l-35.72-60.695-14.776-25.11h22.043z" fill="#000"/><path d="m667.765 744.935h-38.037l-20.321-23.669-21.564-25.11h22.038l-4.228-4.263-12.551-12.656h-19.793l-10.252-11.936-3.808-4.432-7.6-8.854h21.907l-3.624-3.498-6.381-6.154h-25.222l3.987 4.896 4.122 5.056 9.193 11.312 1.364 1.674 16.576 20.354 3.807 4.674 21.095 25.899 51.904 63.733h55.765z" fill="#000"/><path d="m725.722 744.935h-38.042l-26.727-23.669-18.428-16.324-9.923-8.786h22.038l-21.351-16.934h-19.789l-13.769-12.197-4.722-4.18-9.986-8.844h21.907l-4.572-3.498-8.041-6.155h-25.246l5.322 4.897 6.696 6.173 11.051 10.16 1.538 1.423 21.985 20.267 102.681 94.655h55.765z" fill="#000"/><path d="m783.675 744.934h-38.043l-33.127-23.678-41.231-29.464-5.806-4.137-28.41-20.32-25.323-18.095-6.851-4.896h-5.051l6.633 4.896 9.028 6.662 13.146 9.676 2.351 1.732 27.51 20.321 127.796 94.306h55.765z" fill="#000"/><path d="m664.543 584.176h-6.739l2.84 1.901h7.001zm-19.193-4.2h-6.178l1.935 1.592h6.391zm11.752 1.592h3.198l-2.593-1.592h-3.092l1.224.784h-3.144l1.214.808h-3.198l1.195.837h-3.266l1.181.871h-3.31l1.162.9h-3.387l2.332 1.901h3.503l-1.253-.967h3.43l-1.239-.934h3.387l-1.287-.9h3.314l-1.301-.871h3.256z" fill="#000"/><path d="m225.298 606.262h-6.725l2.845 1.902h6.996zm-19.178-4.185h-6.174l1.936 1.592h6.391zm11.757 1.592h3.193l-2.593-1.592h-3.087l1.219.779h-3.14l1.21.813h-3.194l1.195.837h-3.251l1.181.866h-3.314l1.166.9h-3.387l2.332 1.901h3.498l-1.253-.967h3.435l-1.268-.934h3.387l-1.287-.9h3.309l-1.296-.866h3.251z" fill="#000"/><path d="m157.563 678.182 3.788-1.34h2.318l3.691-1.307h2.298l3.59-1.287h2.279l3.498-1.258h2.245l3.387-1.243h2.23l-3.386 1.234h2.249l-3.43 1.258h2.274l-3.479 1.287h2.298l-3.527 1.306h2.352l-3.576 1.34h-7.044l-13.692 5.017h-7.301l13.958-5.017h-7.02z" fill="#000"/><path d="m298.379 205.306h-31.381c-1.616 0-1.974.832-.832 1.863l18.941 17.045c1.177.907 2.613 1.416 4.098 1.451h27.162c1.398 0 1.964-.634 1.277-1.451l-14.751-17.06c-1.242-1.126-2.839-1.78-4.514-1.848z" fill="#f15a24"/><path d="m633.912 256.407h-35.028c-1.434.021-2.843.374-4.118 1.031l-12.163 7.417c-.798.484-.455.866.774.866h31.773c1.369-.029 2.72-.323 3.977-.866l15.119-7.437c1.093-.522 1.021-1.011-.334-1.011z" fill="#f15a24"/><path d="m637.227 302.017v-.024l-2.453-11.385-1.834-7.15c-.989.322-1.937.759-2.825 1.301l-21.714 13.866c-.358.196-.661.479-.88.823l.174.658 5.114 16.45z" fill="#e04312"/><path d="m702.412 282.892c-.184-.208-.658-.334-1.451-.334h-63.41c-1.575.059-3.132.361-4.615.895l.483 7.156 1.563 11.408c1.096-.351 2.236-.547 3.387-.581h53.844.31l.866.765 8.839-18.598z" fill="#dd4c1f"/><path d="m692.213 301.436h-53.844c-2.225.103-4.393.742-6.319 1.863l-18.438 11.776c-1.273.813-1.045 1.495.663 1.495h47.55c2.092-.103 4.144-.611 6.042-1.495l23.954-11.776c2.037-1.002 2.323-1.863.392-1.863z" fill="#f15a24"/><path d="m225.467 279.413 2.453-11.384 1.833-7.151c.99.323 1.938.759 2.826 1.301l21.714 13.866c.358.196.661.479.88.823l-.174.658-5.114 16.45z" fill="#e04312"/><path d="m160.282 260.287c.184-.208.658-.333 1.452-.333h63.409c1.576.059 3.132.361 4.616.895l-.484 7.155-1.558 11.409c-1.096-.352-2.236-.547-3.387-.581h-53.849-.309l-.867.765-8.839-18.589z" fill="#dd4c1f"/><g fill="#f15a24"><path d="m170.481 278.832h53.849c2.226.104 4.393.743 6.319 1.863l18.438 11.776c1.273.813 1.041 1.495-.662 1.495h-47.555c-2.095-.104-4.15-.612-6.053-1.495l-23.954-11.776c-2.027-1.002-2.312-1.863-.382-1.863z"/><path d="m244.167 243.702h-39.48c-1.524 0-1.538.581-.058 1.311l18.995 9.323c1.46.657 3.035 1.022 4.635 1.074h35.382c1.364 0 1.669-.483.677-1.074l-15.284-9.318c-1.501-.803-3.166-1.253-4.867-1.316z"/><path d="m276.582 243.702h-23.441c-1.205 0-1.417.484-.484 1.045l15.787 9.846c1.021.54 2.155.832 3.31.851h20.988c1.079 0 1.451-.377.784-.851l-13.368-9.846c-1.076-.665-2.311-1.026-3.576-1.045z"/><path d="m308.515 243.702h-23.445c-1.205 0-1.554.484-.789 1.045l13.005 9.846c.926.558 1.986.852 3.067.851h20.993c1.079 0 1.534-.377 1.021-.851l-10.586-9.846c-.619-.581-2.085-1.045-3.266-1.045z"/><path d="m340.341 243.702h-23.427c-1.204 0-1.678.484-1.078 1.045l10.232 9.846c.484.484 1.747.851 2.826.851h20.988c1.079 0 1.645-.377 1.268-.851l-7.8-9.846c-.483-.581-1.809-1.045-3.009-1.045z"/><path d="m373.468 243.702h-23.422c-1.204 0-1.819.484-1.388 1.045l7.349 9.846c.353.484 1.495.851 2.574.851h20.993c1.079 0 1.751-.377 1.514-.851l-4.93-9.846c-.29-.581-1.485-1.045-2.69-1.045z"/><path d="m403.953 243.702h-23.427c-1.2 0-1.935.484-1.669 1.045l4.693 9.846c.228.484 1.273.851 2.347.851h20.993c1.079 0 1.853-.377 1.741-.851l-2.274-9.846c-.111-.581-1.199-1.045-2.404-1.045z"/><path d="m437.245 243.702h-23.426c-1.2 0-2.081.484-1.974 1.045l1.79 9.846c.087.484 1.021.851 2.095.851h20.998c1.078 0 1.964-.377 1.993-.851l.629-9.846c.029-.581-.905-1.045-2.105-1.045z"/><path d="m468.529 243.702h-23.422c-1.204 0-2.211.484-2.269 1.045l-.929 9.846c-.048.484.779.851 1.858.851h20.993c1.079 0 2.066-.377 2.23-.851l3.348-9.846c.199-.581-.604-1.045-1.809-1.045z"/><path d="m499.812 243.702h-23.412c-1.204 0-2.341.484-2.554 1.045l-3.658 9.846c-.174.484.547.851 1.626.851h20.988c1.079 0 2.177-.377 2.467-.851l6.077-9.846c.348-.581-.329-1.045-1.534-1.045z"/><path d="m529.896 243.702h-23.426c-1.2 0-2.463.484-2.831 1.045l-6.289 9.846c-.305.484.319.851 1.398.851h21.003c1.078 0 2.274-.377 2.694-.851l8.709-9.846c.499-.581-.053-1.045-1.258-1.045z"/><path d="m563.972 243.702h-23.426c-1.205 0-2.603.484-3.145 1.045l-9.231 9.846c-.45.484.058.851 1.137.851h20.993c1.046.013 2.072-.283 2.951-.851l11.689-9.846c.663-.581.252-1.045-.968-1.045z"/><path d="m594.873 243.702h-23.422c-1.223.004-2.418.367-3.435 1.045l-11.936 9.846c-.576.484-.169.851.909.851h21.013c1.116-.008 2.212-.302 3.183-.851l14.355-9.846c.818-.581.537-1.045-.667-1.045z"/><path d="m613.998 266.567h-19.062c-.897.014-1.78.215-2.594.591l-6.023 3.386c-.528.296-.3.542.483.542h18.115c.879-.017 1.748-.201 2.559-.542l6.851-3.386c.658-.32.503-.591-.329-.591z"/><path d="m587.254 266.567h-19.073c-.842 0-1.671.203-2.419.591l-5.027 3.386c-.435.296-.135.542.654.542h18.119c.836-.004 1.661-.189 2.419-.542l5.854-3.386c.537-.32.305-.591-.527-.591z"/><path d="m560.697 266.567h-19.073c-.786-.014-1.562.19-2.24.591l-4.035 3.386c-.348.295 0 .542.813.542h18.134c.779.005 1.548-.181 2.24-.542l4.838-3.386c.464-.32.179-.591-.677-.591z"/><path d="m534.328 266.567h-19.067c-.832 0-1.78.271-2.071.591l-3.048 3.386c-.266.296.184.542.968.542h18.124c.731.02 1.452-.168 2.08-.542l3.871-3.386c.367-.32-.024-.591-.857-.591z"/><path d="m507.771 266.567h-19.067c-.832 0-1.703.271-1.897.591l-2.056 3.386c-.179.296.344.542 1.132.542h18.119c.789 0 1.669-.246 1.936-.542l2.902-3.386c.237-.32-.237-.591-1.069-.591z"/><path d="m481.239 266.567h-19.092c-.832 0-1.621.271-1.722.591l-1.06 3.386c-.092.296.484.542 1.287.542h18.119c.789 0 1.597-.246 1.761-.542l1.887-3.386c.179-.32-.372-.591-1.18-.591z"/><path d="m455.301 266.567h-19.057c-.833 0-1.544.271-1.553.591l-.092 3.386c0 .296.653.542 1.451.542h18.095c.793 0 1.529-.246 1.611-.542l.919-3.386c.087-.32-.542-.591-1.374-.591z"/><path d="m428.1 266.567h-19.067c-.832 0-1.452.271-1.374.591l.924 3.386c.082.296.818.542 1.606.542h18.119c.789 0 1.452-.246 1.452-.542l-.097-3.386c-.019-.32-.731-.591-1.563-.591z"/><path d="m401.994 266.567h-19.073c-.832 0-1.379.271-1.2.591l1.902 3.386c.164.296.968.542 1.761.542h18.119c.789 0 1.379-.246 1.287-.542l-1.074-3.386c-.102-.32-.89-.591-1.722-.591z"/><path d="m375.95 266.567h-19.053c-.832 0-1.301.271-1.03.591l2.874 3.386c.251.296 1.127.542 1.935.542h18.119c.789 0 1.306-.246 1.127-.542l-2.046-3.386c-.228-.32-1.094-.591-1.926-.591z"/><path d="m349.199 266.567h-19.073c-.832 0-1.219.271-.851.591l3.871 3.386c.628.374 1.349.562 2.08.542h18.119c.789 0 1.234-.246.968-.542l-3.044-3.386c-.29-.32-1.238-.591-2.07-.591z"/><path d="m322.512 266.567h-19.067c-.832 0-1.142.271-.682.591l4.872 3.386c.691.361 1.46.547 2.24.542h18.119c.789 0 1.161-.247.808-.542l-4.04-3.386c-.681-.4-1.46-.604-2.25-.591z"/><path d="m295.766 266.567h-19.072c-.832 0-1.06.271-.484.591l5.869 3.386c.758.352 1.583.537 2.419.542h18.114c.793 0 1.089-.247.653-.542l-5.046-3.386c-.758-.392-1.6-.595-2.453-.591z"/><path d="m269.079 266.567h-19.067c-.832 0-.968.271-.334.591l6.87 3.386c.812.34 1.68.524 2.56.542h18.119c.793 0 1.016-.246.484-.542l-6.038-3.386c-.815-.374-1.698-.575-2.594-.591z"/><path d="m250.482 256.407h-20.805c-1.069 0-1.175.368-.246.823l15.995 7.847c.994.429 2.062.662 3.145.687h18.869c.967 0 1.195-.305.483-.687l-14.069-7.847c-1.053-.512-2.202-.793-3.372-.823z"/><path d="m279.321 256.407h-20.804c-1.069 0-1.277.368-.484.823l13.741 7.847c.918.442 1.922.676 2.941.687h18.869c.968 0 1.287-.305.712-.687l-11.815-7.847c-.97-.53-2.055-.813-3.16-.823z"/><path d="m307.587 256.407h-20.804c-1.069 0-1.384.368-.716.823l11.529 7.847c.846.455 1.793.691 2.753.687h18.869c.968 0 1.369-.304.9-.687l-9.599-7.847c-.879-.548-1.896-.833-2.932-.823z"/><path d="m335.358 256.407h-20.804c-1.07 0-1.486.368-.968.823l9.357 7.847c.77.47 1.658.709 2.559.687h18.869c.968 0 1.452-.305 1.094-.687l-7.432-7.847c-.406-.455-1.606-.823-2.675-.823z"/><path d="m364.052 256.407h-20.804c-1.065 0-1.587.368-1.176.823l7.112 7.847c.348.382 1.398.687 2.366.687h18.869c.968 0 1.543-.305 1.292-.687l-5.187-7.847c-.309-.455-1.403-.823-2.472-.823z"/><path d="m392.443 256.712h-20.732c-1.064 0-1.688.363-1.403.818l4.872 7.808c.238.383 1.195.683 2.163.683h18.801c.968 0 1.621-.3 1.481-.683l-2.956-7.804c-.174-.459-1.161-.822-2.226-.822z"/><path d="m420.447 256.407h-20.804c-1.064 0-1.795.368-1.64.823l2.7 7.847c.135.382 1.011.687 1.979.687h18.869c.967 0 1.712-.305 1.674-.687l-.77-7.847c-.048-.455-.943-.823-2.008-.823z"/><path d="m448.929 256.407h-20.804c-1.069 0-1.901.368-1.872.823l.484 7.847c0 .382.817.687 1.785.687h18.869c.967 0 1.8-.305 1.867-.687l1.452-7.847c.072-.455-.716-.823-1.781-.823z"/><path d="m477.625 256.407h-20.804c-1.069 0-2.003.368-2.109.823l-1.771 7.847c-.087.382.619.687 1.587.687h18.869c.967 0 1.887-.305 2.071-.687l3.701-7.847c.203-.455-.479-.823-1.544-.823z"/><path d="m505.749 256.407h-20.804c-1.065 0-2.105.368-2.337.823l-3.977 7.847c-.194.382.43.687 1.398.687h18.869c.968 0 1.974-.305 2.26-.687l5.902-7.847c.334-.455-.247-.823-1.311-.823z"/><path d="m533.302 256.407h-20.804c-1.069 0-2.211.368-2.564.823l-6.13 7.847c-.3.382.237.687 1.205.687h18.869c.967 0 2.056-.305 2.448-.687l8.06-7.847c.465-.455-.014-.823-1.084-.823z"/><path d="m561.428 256.407h-20.805c-1.069 0-2.312.368-2.796.823l-8.332 7.847c-.406.382.049.687 1.016.687h18.869c.927.014 1.84-.224 2.642-.687l10.262-7.847c.59-.455.237-.823-.856-.823z"/><path d="m590.62 256.407h-20.804c-1.066-.001-2.114.283-3.034.823l-10.615 7.847c-.517.382-.154.687.813.687h18.869c.989-.004 1.963-.239 2.845-.687l12.541-7.847c.721-.455.454-.823-.615-.823z"/><path d="m627.351 243.702h-23.421c-1.312.029-2.595.388-3.731 1.045l-14.771 9.846c-.711.484-.416.851.663.851h20.993c1.191-.027 2.361-.318 3.426-.851l17.185-9.846c1.021-.581.871-1.045-.344-1.045z"/><path d="m659.851 243.702h-23.422c-1.404.052-2.779.408-4.03 1.045l-17.602 9.846c-.846.484-.658.851.421.851h20.988c1.269-.044 2.518-.333 3.677-.851l20.011-9.846c1.176-.581 1.161-1.045-.043-1.045z"/><path d="m627.711 227.267h-26.828c-1.512.043-2.981.516-4.234 1.364l-16.328 12.725c-.779.604-.421 1.083.793 1.083h23.707c1.36-.035 2.69-.408 3.871-1.083l19.449-12.725c1.118-.755.949-1.364-.43-1.364z"/><path d="m591.143 227.267h-26.833c-1.374 0-3.091.609-3.87 1.364l-12.734 12.725c-.61.604-.117 1.083 1.103 1.083h23.707c1.262-.011 2.494-.387 3.546-1.083l15.855-12.725c.943-.755.6-1.364-.774-1.364z"/><path d="m554.664 227.267h-26.828c-1.379 0-2.903.609-3.464 1.364l-9.149 12.725c-.436.604.188 1.083 1.407 1.083h23.708c1.219 0 2.656-.484 3.241-1.083l12.275-12.725c.701-.755.188-1.364-1.19-1.364z"/><path d="m518.097 227.267h-26.833c-1.379 0-2.748.609-3.077 1.364l-5.554 12.725c-.266.604.483 1.083 1.712 1.083h23.708c1.214 0 2.515-.484 2.931-1.083l8.68-12.725c.494-.755-.203-1.364-1.567-1.364z"/><path d="m481.615 227.267h-26.827c-1.379 0-2.579.609-2.695 1.364l-1.974 12.725c-.092.604.808 1.083 2.022 1.083h23.707c1.215 0 2.381-.484 2.623-1.083l5.099-12.725c.281-.755-.576-1.364-1.955-1.364z"/><path d="m408.57 227.267h-26.828c-1.379 0-2.231.609-1.936 1.364l5.201 12.725c.252.604 1.418 1.083 2.637 1.083h23.683c1.22 0 2.115-.484 2.013-1.083l-2.08-12.725c-.107-.755-1.312-1.364-2.69-1.364z"/><path d="m372.002 227.267h-26.833c-1.379 0-2.056.609-1.534 1.364l8.796 12.725c.421.604 1.727 1.083 2.942 1.083h23.707c1.214 0 1.974-.484 1.703-1.083l-5.675-12.725c-.354-.755-1.732-1.364-3.106-1.364z"/><path d="m736.314 205.306h-84.669c-1.842.114-3.622.709-5.162 1.727l-24.675 17.248c-1.069.746-.876 1.326.431 1.326h73.327c1.741-.113 3.443-.564 5.013-1.326l34.941-17.248c1.926-.963 2.298-1.727.794-1.727z"/><path d="m639.448 205.655h-31.308c-1.827.082-3.582.732-5.022 1.857l-19.45 16.982c-.909.799-.518 1.428.876 1.428h27.094c1.598-.064 3.149-.557 4.49-1.428l23.615-16.982c1.432-1.025 1.301-1.857-.295-1.857z"/><path d="m750.784 171.695h-38.279c-1.965 0-5.4 1.243-7.688 2.772l-36.916 24.675c-1.683 1.127-1.693 2.018-.039 2.018h32.189c1.655 0 4.524-.891 6.488-2.018l42.963-24.675c2.676-1.538 3.247-2.772 1.282-2.772z"/><path d="m595.527 205.306h-31.381c-1.611 0-3.614.832-4.49 1.863l-14.553 17.045c-.677.798-.101 1.451 1.292 1.451h27.166c1.481-.034 2.91-.542 4.079-1.451l18.724-17.06c1.151-1.016.779-1.848-.837-1.848z"/><path d="m553.076 205.306h-31.38c-1.611 0-3.387.832-3.968 1.863l-9.749 17.045c-.459.798.295 1.451 1.694 1.451h27.161c1.394 0 3.029-.634 3.682-1.451l13.939-17.06c.842-1.016.237-1.848-1.379-1.848z"/><path d="m510.625 205.306h-31.38c-1.611 0-3.145.832-3.445 1.863l-4.969 17.045c-.232.798.702 1.451 2.095 1.451h27.181c1.398 0 2.855-.634 3.281-1.451l9.158-17.06c.532-1.016-.305-1.848-1.921-1.848z"/><path d="m468.175 205.306h-31.38c-1.611 0-2.903.832-2.903 1.863l-.204 17.045c0 .798 1.099 1.451 2.497 1.451h27.152c1.393 0 2.671-.634 2.903-1.451l4.354-17.06c.271-1.016-.803-1.848-2.419-1.848z"/><path d="m425.73 205.306h-31.385c-1.611 0-2.675.832-2.395 1.863l4.592 17.045c.217.798 1.504 1.451 2.902 1.451h27.162c1.398 0 2.497-.634 2.477-1.451l-.406-17.06c-.029-1.016-1.335-1.848-2.947-1.848z"/><path d="m383.28 205.306h-31.381c-1.616 0-2.419.832-1.877 1.863l9.376 17.045c.436.798 1.902 1.451 3.295 1.451h27.167c1.393 0 2.317-.634 2.075-1.451l-5.186-17.045c-.315-1.031-1.858-1.863-3.469-1.863z"/><path d="m340.829 205.306h-31.38c-1.616 0-2.211.832-1.355 1.863l14.156 17.045c.663.798 2.303 1.451 3.702 1.451h27.161c1.394 0 2.144-.634 1.674-1.451l-9.986-17.045c-.585-1.031-2.361-1.863-3.972-1.863z"/><path d="m335.521 227.267h-26.828c-1.379 0-1.887.609-1.151 1.364l12.381 12.725c.59.604 2.032 1.083 3.246 1.083h23.707c1.215 0 1.839-.484 1.398-1.083l-9.279-12.725c-.547-.755-2.095-1.364-3.474-1.364z"/><path d="m298.95 227.267h-26.828c-1.378 0-1.712.609-.764 1.364l15.966 12.725c1.057.695 2.291 1.071 3.556 1.083h23.683c1.219 0 1.708-.484 1.094-1.083l-12.851-12.725c-.754-.755-2.477-1.364-3.856-1.364z"/><path d="m262.475 227.267h-26.828c-1.379 0-1.544.609-.382 1.364l19.546 12.725c1.181.675 2.511 1.048 3.87 1.083h23.708c1.219 0 1.572-.484.788-1.083l-16.45-12.725c-1.26-.847-2.734-1.32-4.252-1.364z"/><path d="m254.855 205.306h-31.381c-1.616 0-1.737.832-.295 1.863l23.843 17.045c1.346.878 2.903 1.379 4.509 1.451h27.167c1.393 0 1.78-.634.861-1.451l-19.653-17.06c-1.453-1.122-3.217-1.768-5.051-1.848z"/><path d="m587.122 171.695h-43.336c-3.285 0-7.088 2.066-8.53 4.587l-12.245 21.452c-1.089 1.907.266 3.387 3.029 3.387h36.441c2.758 0 6.265-1.49 7.92-3.387l18.646-21.452c2.1-2.419 1.224-4.587-1.925-4.587z"/><path d="m256.852 171.695h-43.335c-3.286 0-3.387 2.066-.344 4.587l26.044 21.452c2.313 1.907 6.333 3.387 9.091 3.387h36.441c2.763 0 3.605-1.49 1.858-3.387l-19.648-21.452c-2.211-2.419-6.957-4.587-10.107-4.587z"/><path d="m224.713 278.368h-53.119c-1.747 0-1.563.812.382 1.766l24.36 11.955c1.806.83 3.754 1.309 5.739 1.413h46.901c1.539 0 1.824-.639.605-1.413l-18.869-11.955c-1.833-1.052-3.889-1.657-5.999-1.766z"/><path d="m211.33 205.306h-83.28c-2.365 0-1.756 1.248 1.302 2.748l31.409 15.419c2.42 1.181 6.024 2.134 8.071 2.134h72.113c2.046 0 2.361-.968.672-2.134l-22.057-15.419c-2.148-1.5-5.874-2.748-8.23-2.748z"/><path d="m636.762 171.695h-29.285c-4.069 0-9.677 2.574-12.502 5.67l-17.703 19.518c-2.163 2.38-1.099 4.248 2.322 4.248h24.626c3.426 0 8.327-1.868 11.056-4.248l22.342-19.518c3.561-2.985 3.213-5.67-.856-5.67z"/><path d="m699.664 171.695h-39.726c-1.51 0-3.914.968-5.351 2.148l-14.999 12.347c-1.234 1.016-1.108 1.829.271 1.829h36.219c1.379 0 3.687-.813 5.167-1.829l18.022-12.347c1.718-1.18 1.907-2.148.397-2.148z"/><path d="m803.404 230.779h-39.721c-1.51 0-4.461.968-6.561 2.153l-21.926 12.347c-1.805 1.012-2.134 1.829-.755 1.829h36.218c1.379 0 4.142-.817 6.193-1.829l24.941-12.356c2.39-1.171 3.121-2.144 1.611-2.144z"/><path d="m194.866 114.793h-29.281c-4.074 0-3.542 2.574 1.045 5.671l28.894 19.517c3.527 2.38 9.057 4.253 12.482 4.253h24.622c3.425 0 3.87-1.873.9-4.253l-24.254-19.517c-3.595-2.995-10.334-5.671-14.408-5.671z"/><path d="m143.392 171.695h-29.286c-4.073 0-2.825 2.574 2.623 5.67l34.351 19.518c4.185 2.38 10.238 4.248 13.658 4.248h24.627c3.425 0 3.343-1.868-.281-4.248l-29.687-19.518c-4.582-2.985-11.936-5.67-16.005-5.67z"/><path d="m94.4055 171.695h-29.2808c-4.0738 0-2.1433 2.574 4.1221 5.67l39.4942 19.518c4.838 2.38 11.36 4.248 14.786 4.248h24.626c3.421 0 2.845-1.868-1.408-4.248l-34.835-19.518c-5.235-2.985-13.4308-5.67-17.5045-5.67z"/></g><path d="m553.129 146.991c-.61-.546-1.631-.88-2.961-.88h-299.296c-2.951 0-3.716 1.655-1.708 3.585l24.162 23.223c1.5 1.452 4.838 2.627 7.315 2.627h251.684c2.114 0 4.494-.866 5.718-2.007.201-.184.379-.392.528-.62l4.601-7.257 10.16-15.966c.672-1.064.542-2.042-.203-2.705z" fill="#dd4c1f"/><path d="m553.328 149.706-10.16 15.966-1.321 2.075-3.275 5.182-.528.619-22.938 26.785 2.773-21.051 5.665-3.736 3.837-1.867 2.114-1.031.315-.967c.484-.286.938-.576 1.388-.871l11.82-12.831 10.136-11.002c.721.677.852 1.655.174 2.729z" fill="#e04312"/><path d="m526.979 171.695h-252.815c-2.492 0-3.14 1.655-1.452 3.585l20.413 23.224c1.262 1.451 4.078 2.627 6.173 2.627h212.605c2.1 0 4.504-1.191 5.279-2.627l12.468-23.224c1.035-1.93-.179-3.585-2.671-3.585z" fill="#f15a24"/><path d="m272.049 171.695-23.968-23.668 45.073 50.477z" fill="#e04312"/><path d="m56.7209 214.707 47.7241-1.253c.899.03 1.792.153 2.666.367l-1.5 15.966-.223 2.347h-42.5758l-7.0347-17.021c-.0774-.256.2225-.406.9434-.406z" fill="#dd4c1f"/><path d="m104.304 233.252 2.821-19.426c1.818.418 3.591 1.015 5.293 1.781l26.649 12.342c1.388.643 2.056 1.205 1.935 1.529l-7.601 18.332z" fill="#e04312"/><path d="m63.6009 231.786h39.7211c1.515 0 4.461.967 6.561 2.153l21.927 12.342c1.804 1.016 2.133 1.829.755 1.829h-36.2192c-1.3789 0-4.1415-.813-6.1929-1.829l-24.9409-12.342c-2.3901-1.186-3.1255-2.153-1.6111-2.153z" fill="#f15a24"/><path d="m810.478 214.707-47.724-1.253c-.899.03-1.793.153-2.666.367l1.5 15.966.222 2.347h42.576l7.04-17.011c.073-.266-.223-.416-.948-.416z" fill="#dd4c1f"/><path d="m762.9 233.252-2.825-19.426c-1.819.418-3.592 1.015-5.293 1.781l-26.649 12.342c-1.389.643-2.056 1.205-1.935 1.529l7.595 18.341z" fill="#e04312"/><path d="m803.599 231.786h-39.722c-1.509 0-4.461.967-6.56 2.153l-21.927 12.342c-1.805 1.016-2.134 1.829-.755 1.829h36.219c1.379 0 4.141-.813 6.193-1.829l24.965-12.342c2.366-1.186 3.101-2.153 1.587-2.153z" fill="#f15a24"/><path d="m380.464 315.835h-2.066l2.085 1.451h1.999zm-4.287-1.539h-2.133l2.288 1.539h2.066zm-2.665-.358-1.936-1.287h-2.206l1.998 1.306.523.339h2.133zm2.317-3.043-2.559-1.892h-11.844l5.757 3.648h2.206l-2.699-1.756zm8.646 6.386h-2.003l1.901 1.355h-7.741l2.013 1.277h9.41z" fill="#000"/><path d="m392.878 313.774-3.125-2.879h-2.284l3.271 2.903.571.484h2.138zm-1.567.522h-6.401l1.935 1.539h6.198zm6.841 4.355h-7.741l1.611 1.277h7.543zm-12.816-9.633h-9.474l2.468 1.892h9.139zm1.519 6.831h-2.066l3.657 2.802h1.936z" fill="#000"/><path d="m405.932 313.662-3.793-4.659h-2.371l4.021 4.679.527.614h-6.401l-.556-.576-4.693-4.731h-2.386l4.921 4.751 6.386 6.159h1.882l-4.045-4.079h6.198l3.527 4.093h1.887z" fill="#000"/><path d="m421.816 318.636h-7.741l-2.022-2.801h6.197l-.904-1.539h-6.426l-.483-.672-1.974-2.729h9.139l-1.026-1.892h-11.844l3.552 4.64 4.804 6.29h9.425z" fill="#000"/><path d="m433.645 318.636h-7.741l-1.273-2.801h6.198l-.484-1.539h-6.425l-.353-.784-1.181-2.617h9.14l-.518-1.892h-11.844l2.245 4.529 3.164 6.381h9.42z" fill="#000"/><path d="m436.312 310.895h9.125v-1.892h-11.834l.991 4.413 1.452 6.497h1.887l-1.176-6.512z" fill="#000"/><path d="m348.793 293.207h-3.067l4.533 3.14h2.927zm-8.055-3.455h-3.223l5.138 3.455h3.073zm-8.903-3.817h-3.386l5.849 3.817h3.222zm4.432-4.239-6.42-4.746h-18.951l14.156 8.975h3.387l-6.498-4.238zm19.837 14.651h-2.932l4.015 2.869h-11.2l4.146 2.627h13.431z" fill="#000"/><path d="m358.083 281.696h-3.581l9.096 8.056h3.222zm5.515 8.056h-9.676l4.354 3.455h9.193zm13.489 9.454h-11.215l3.319 2.627h10.746zm-27.931-22.256h-15.163l6.188 4.737h14.321zm9.139 16.247h-3.072l7.848 6.009h2.801z" fill="#000"/><path d="m376.042 276.95h-3.788l10.982 12.792h-9.676l-12.681-12.792h-3.788l25.783 24.883h2.69l-8.569-8.626h9.193l7.417 8.636h2.69z" fill="#000"/><path d="m411.25 299.206h-11.215l-4.355-6.009h9.193l-2.032-3.455h-9.676l-5.806-8.055h14.321l-2.54-4.737h-18.952l19.058 24.883h13.431z" fill="#000"/><path d="m428.329 299.206h-11.21l-2.715-6.009h9.193l-1.098-3.455h-9.677l-3.633-8.055h14.321l-1.273-4.737h-18.951l12.333 24.883h13.431z" fill="#000"/><path d="m445.349 281.696v-4.736h-18.966l5.602 24.883h2.686l-3.644-20.147z" fill="#000"/><path d="m455.069 293.207-.426 3.14h2.928l.57-3.14zm-2.748-3.455-.319 3.455h3.067l.484-3.455zm-3.043-3.817-.184 3.817h3.227l.348-3.817zm-3.358-8.985-.029 8.975h3.387l.203-4.238h14.341l1.064-4.737zm11.655 19.387-.527 2.869h-11.205v2.627h13.431l1.238-5.496z" fill="#000"/><path d="m482.037 281.696-3.634 8.056h3.222l3.992-8.056zm-13.301 8.056-1.098 3.455h9.193l1.558-3.455zm-3.009 9.454-.837 2.627h10.746l1.301-2.627zm3.285-22.256-1.296 4.737h14.321l2.138-4.737zm-4.446 16.247-1.645 6.009h2.806l1.911-6.009z" fill="#000"/><path d="m507.273 276.95-9.231 12.792h-9.676l7.538-12.792h-3.794l-13.547 24.883h2.676l5.085-8.636h9.193l-6.198 8.646h2.685l19.063-24.893z" fill="#000"/><path d="m529.253 281.696 4.911-4.736h-18.956l-20.263 24.883h13.431l2.724-2.627h-11.21l5.157-6.009h9.193l3.425-3.455h-9.676l6.919-8.056z" fill="#000"/><path d="m551.068 281.696 6.193-4.736h-18.932l-26.992 24.883h13.436l3.396-2.637h-11.2l6.773-6.009h9.193l4.354-3.455h-9.676l9.095-8.055z" fill="#000"/><path d="m561.403 276.95-33.717 24.893h2.685l28.197-20.147h14.321l7.47-4.736z" fill="#000"/><path d="m256.509 227.267-2.245-1.602-16.706-11.94h-6.599l19.556 13.547.343.237h5.985zm-49.969-30.481h-7.368l12.705 8.559 12.487 8.389h6.595zm-38.986-21.259h-8.288l32.581 21.259h7.325zm-50.467-27.5h38.057l-50.191-37.027h-55.7655l95.9175 60.821 5.873 3.725h8.288zm167.721 95.685-1.795-1.326-20.185-14.882h-5.985l16.01 11.442h-21.913l7.504 4.756 7.742 4.896h25.24z" fill="#000"/><path d="m238.758 171.695-25.676-23.668h-9.512l26.726 23.668 28.357 25.11h7.345zm36.287 55.572-2.013-1.602h-6.067l16.958 12.976.402.31h5.476zm2.69-13.547-9.497-8.414-4.718-4.175-4.881-4.326h-22.029l10.731 8.501 10.62 8.414zm39.122 29.997-1.452-1.36-3.686-3.387h-21.918l4.408 3.494 1.597 1.262 6.178 4.872h20.195zm-125.711-106.692-25.101-22.232-4.282-3.793h-44.613l48.382 37.027h38.038zm83.913 90.242-2.027-1.602-15.071-11.94h-6.594l15.598 11.94 16.958 12.976.402.31h5.476z" fill="#000"/><path d="m349.069 243.842-1.248-1.538-12.25-15.037-1.307-1.607-16.556-20.354-3.387-4.175-20.833-25.585-3.14-3.87-20.877-25.565-28.594-35.111h-11.152l30.152 35.111 21.975 25.584 3.305 3.871 18.259 21.259h-22.038l-24.907-25.11-27.239-27.462-27.82-28.062-5.143-5.191h-11.157l3.929 3.793 30.51 29.441 28.458 27.461 30.481 29.436 4.33 4.175 21.109 20.359 11.844 11.428 4.988 4.814 1.858 1.795 5.075 4.896h5.051l-4.838-4.896-1.253-1.263-15.047-15.172-1.606-1.602-11.844-11.94h19.788l10.252 11.94 1.379 1.607 13.029 15.172 5.288 6.159h5.052z" fill="#000"/><path d="m381.045 243.702-.799-1.451-1.79-3.295h-21.907l-8.428-11.68-1.157-1.611-8.617-11.94h19.789l-4.95-8.414-2.458-4.175-2.54-4.331h-22.042l-15.342-21.259-2.777-3.87-17.079-23.669h38.042l-1.04-1.935-19.106-35.072h-55.765l26.891 35.111 19.594 25.584 2.952 3.871 19.594 25.584 3.199 4.176 15.588 20.339 7.035 9.193 5.53 7.209 1.253 1.635 3.75 4.896h25.241z" fill="#000"/><path d="m413.146 243.755-.431-1.572-.885-3.237h-21.908l-5.268-11.679-.726-1.607-5.385-11.94h19.788l-2.68-8.414-1.326-4.175-1.379-4.326h-22.018l-9.594-21.259-1.737-3.87-10.698-23.649h38.043l-.522-1.936-9.614-35.091h-55.765l17.418 35.111 12.68 25.584 1.907 3.871 12.681 25.584 2.07 4.176 10.069 20.339 4.238 8.554 3.929 7.93.769 1.558 2.419 4.896h25.25z" fill="#000"/><path d="m420.897 225.665-3.682-20.354-.754-4.175-4.626-25.585-.696-3.87-4.282-23.669h38.038v-1.935l-.126-35.077h-55.765l7.91 35.111 5.763 25.584.866 3.871 5.762 25.584.939 4.176 4.586 20.339 4.064 18.042 1.103 4.896h5.047l-.895-4.901z" fill="#000"/><path d="m465.921 213.72-1.616 11.839-.232 1.708-.034.237h5.985l.044-.237 2.448-13.547zm-5.036-16.934-.402 4.325-.382 4.176-.779 8.413h6.599l1.147-8.413.571-4.176.59-4.325zm-6.334-21.259-1.016 21.259h7.35l1.935-21.259zm-8.07-64.527-.116 35.111-.087 25.584v3.871h8.288l.184-3.871 1.132-23.668h38.038l.43-1.936 7.896-35.091zm23.543 116.504-2.071 11.442h-21.907v4.756 4.896h25.246l1.388-6.159 3.387-14.935z" fill="#000"/><path d="m542.35 148.027-9.429 20.906-2.985 6.613-7.088 15.768-2.487 5.511h7.325l11.979-24.191 3.232-6.517 8.598-17.35.367-.735zm-44.027 48.778-1.374 4.326-1.331 4.175-2.675 8.414h19.744l7.635-16.934zm-13.407 42.141-1.098 3.459-.411 1.297-1.558 4.896h20.194l2.139-4.315.909-1.844 1.732-3.493zm29.528-127.946-9.614 35.111-.522 1.935h38.042l.866-1.935 15.841-35.111zm-28.12 102.72-3.266 11.945-.484 1.728-3.159 11.543h5.477l3.261-10.247.967-3.038 3.798-11.941z" fill="#000"/><path d="m627.024 111-43.795 60.695-18.119 25.11h-22.043l14.776-25.11 35.72-60.695h-11.152l-33.026 60.695-16.014 29.436-2.269 4.175-11.075 20.359-.967 1.742-5.545 10.16-3.324 6.116-2.666 4.896h5.066l2.903-4.896.759-1.282 7.969-13.547 1.868-3.189 7.025-11.94h19.788l-6.483 8.989-1.582 2.187-1.708 2.371-10.949 15.172-1.108 1.51-3.348 4.644h5.046l4.717-6.159 11.612-15.172 1.229-1.607 15.593-20.354 15.744-20.557 8.496-11.094 48.014-62.655z" fill="#000"/><path d="m650.372 111-51.657 63.429-21.414 26.295-3.735 4.582-16.576 20.359-1.408 1.732-7.828 9.609-5.458 6.701-3.967 4.891h25.241l1.2-1.156 5.186-5.003 3.619-3.493h-21.907l8.994-10.475 2.419-2.811 10.252-11.94h19.784l12.579-12.686 4.195-4.229h-22.038l21.564-25.11 20.32-23.668h38.038l38.362-37.027z" fill="#000"/><path d="m718.334 111-102.681 94.655-21.984 20.267-1.607 1.485-9.308 8.578-8.37 7.717-5.322 4.896h25.245l8.051-6.159 4.562-3.493h-21.907l11.738-10.378 2.975-2.637 13.774-12.202h19.789l21.351-16.933h-22.038l9.923-8.786 18.428-16.324 26.727-23.669h38.042l48.378-37.017z" fill="#000"/><path d="m786.302 111-127.796 94.306-27.51 20.321-2.419 1.79-11.128 8.191-10.997 8.113-6.634 4.897h5.051l6.851-4.897 25.323-18.094 28.41-20.321 5.806-4.137 41.246-29.474 33.122-23.668h38.043l58.397-37.027z" fill="#000"/><path d="m660.397 306.899-2.845 1.901h6.745l3.096-1.901zm-19.498 4.509-1.935 1.592h6.178l2.168-1.592zm15.966 0 1.306-.842h-3.241l1.297-.866h-3.31l1.282-.9h-3.386l1.272-.934h-3.445l1.253-.967h-3.498l-2.332 1.901h3.387l-1.166.9h3.324l-1.181.866h3.257l-1.2.842h3.198l-1.21.808h3.14l-1.219.784h3.087l2.593-1.592z" fill="#000"/><path d="m221.165 284.793-2.84 1.906h6.74l3.101-1.906zm-19.522 4.509-1.935 1.592h6.178l2.163-1.592zm15.966 0 1.312-.837h-3.257l1.302-.871h-3.28l1.287-.895h-3.387l1.267-.934h-3.43l1.253-.967h-3.503l-2.332 1.906h3.387l-1.161.895h3.309l-1.18.871h3.251l-1.195.837h3.193l-1.243.803h3.145l-1.21.784h3.092l2.593-1.592z" fill="#000"/><path d="m157.302 214.779 3.789 1.341h2.322l3.687 1.306h2.298l3.595 1.287h2.274l3.498 1.258h2.254l3.387 1.234h2.225l-3.386-1.234h2.254l-3.435-1.258h2.274l-3.454-1.273h2.322l-3.527-1.306h2.322l-3.575-1.34h-7.059l-13.692-5.022h-7.301l13.963 5.007z" fill="#000"/><path d="m772.978 596.75h-8.235v49.103h8.235z" fill="#f15a24"/><path d="m781.082 419.45v-8.235h-49.103v8.235z" fill="#f15a24"/><path d="m776.752 374.043v-8.234h-49.103v8.234z" fill="#f15a24"/><path d="m769.14 549.254h-31.903v51.323h31.903z" fill="#f15a24"/><path d="m763.166 401.65h-31.903v51.324h31.903z" fill="#f15a24"/><path d="m785.092 483.996h-15.951v51.324h15.951z" fill="#f15a24"/><path d="m776.365 467.299h-23.243v29.01h23.243z" fill="#f15a24"/><path d="m780.695 315.056h-15.952v51.324h15.952z" fill="#f15a24"/><path d="m772.721 240.078h-15.951v51.324h15.951z" fill="#f15a24"/><path d="m775.029 532.484h-12.333v27.597h12.333z" fill="#f15a24"/><path d="m775.029 368.881h-12.333v27.597h12.333z" fill="#f15a24"/><path d="m770.447 448.256h-12.333v27.597h12.333z" fill="#f15a24"/><path d="m768.86 313.121h-12.333v27.597h12.333z" fill="#f15a24"/><path d="m752.076 519.6h-9.724v41.328h9.724z" fill="#f15a24"/><path d="m747.214 368.397h-9.725v41.328h9.725z" fill="#f15a24"/><path d="m774.002 281.547h-9.725v41.327h9.725z" fill="#f15a24"/><path d="m107.478 597.945h-8.2348v49.103h8.2348z" fill="#f15a24"/><path d="m115.582 420.649v-8.234h-49.1028v8.234z" fill="#f15a24"/><path d="m111.248 375.238v-8.234h-49.1033v8.234z" fill="#f15a24"/><path d="m103.641 550.449h-31.9027v51.323h31.9027z" fill="#f15a24"/><path d="m97.6663 402.845h-31.9031v51.324h31.9031z" fill="#f15a24"/><path d="m119.593 485.191h-15.952v51.324h15.952z" fill="#f15a24"/><path d="m110.865 468.494h-23.2429v29.01h23.2429z" fill="#f15a24"/><path d="m115.195 316.251h-15.9518v51.324h15.9518z" fill="#f15a24"/><path d="m107.221 241.278h-15.9515v51.324h15.9515z" fill="#f15a24"/><path d="m109.53 533.679h-12.3327v27.598h12.3327z" fill="#f15a24"/><path d="m109.53 370.076h-12.3327v27.597h12.3327z" fill="#f15a24"/><path d="m104.947 449.451h-12.3323v27.597h12.3323z" fill="#f15a24"/><path d="m103.36 314.316h-12.3322v27.597h12.3322z" fill="#f15a24"/><path d="m86.5773 520.8h-9.7248v41.328h9.7248z" fill="#f15a24"/><path d="m81.7145 369.592h-9.7248v41.328h9.7248z" fill="#f15a24"/><path d="m108.504 282.746h-9.7252v41.328h9.7252z" fill="#f15a24"/><g fill="#000"><path d="m373.512 313.938.532.358h-2.134l-.522-.339z"/><path d="m376.177 314.296 2.22 1.539h-2.066l-2.288-1.539z"/><path d="m380.464 315.835 2.018 1.446h-1.998l-2.086-1.446z"/><path d="m384.484 317.281 3.571 2.632h-9.425l-2.013-1.277h7.765l-1.901-1.355z"/><path d="m386.855 315.835 3.532 2.801h-1.94l-3.658-2.801z"/><path d="m393.053 315.835h-6.198l-1.945-1.539h6.401z"/><path d="m393.45 314.296h-2.139l-.571-.503 2.139-.019z"/><path d="m398.152 318.636 1.389 1.277h-7.543l-1.611-1.277z"/><path d="m405.931 313.662 5.095 6.251h-1.887l-3.503-4.078h-6.197l4.044 4.078h-1.882l-6.386-6.159 2.143-.019 6.43-.053z"/><path d="m421.817 318.636.696 1.277h-9.424l-4.805-6.27 2.153-.019.484.672h6.401l.905 1.539h-6.198l2.022 2.801z"/><path d="m433.646 318.636.348 1.277h-9.42l-3.164-6.381 2.158-.02.353.784h6.406l.489 1.539h-6.198l1.263 2.801z"/><path d="m437.941 319.913h-1.887l-1.461-6.497 2.172-.015z"/><path d="m412.652 452.093-13.876 16.494c-.119.153-.176.345-.16.539s.104.374.247.506c.066.058.142.103.226.131.083.028.171.04.258.033.109-.001.216-.023.315-.065.1-.042.19-.104.266-.182l13.89-16.488c.061-.077.106-.164.133-.258.026-.094.034-.192.022-.289-.012-.096-.042-.19-.091-.275-.048-.085-.112-.159-.189-.219-.15-.122-.342-.183-.535-.17-.193.014-.374.101-.506.243z"/><path d="m402.859 452.243c-1.071 0-2.099.426-2.856 1.183-.758.758-1.184 1.785-1.184 2.857 0 1.071.426 2.099 1.184 2.856.757.758 1.785 1.184 2.856 1.184 1.067-.015 2.086-.446 2.84-1.2.755-.755 1.185-1.773 1.2-2.84-.001-1.071-.427-2.098-1.185-2.855-.757-.758-1.784-1.184-2.855-1.185zm0 5.748c-.447-.017-.872-.202-1.189-.519s-.502-.742-.519-1.189c0-.338.101-.668.288-.949.188-.281.455-.5.767-.629s.655-.163.986-.097c.332.066.636.228.875.467s.401.543.467.875c.066.331.032.674-.097.986s-.348.579-.629.767-.611.288-.949.288z"/><path d="m409.634 461.363c-.801-.001-1.583.235-2.249.679s-1.185 1.075-1.492 1.814-.387 1.553-.232 2.338c.156.785.54 1.506 1.106 2.072.565.566 1.286.952 2.071 1.108.785.157 1.598.077 2.337-.229.74-.306 1.372-.824 1.816-1.49.445-.665.682-1.447.682-2.247.003-.532-.1-1.058-.302-1.55s-.499-.938-.875-1.314c-.375-.376-.822-.674-1.313-.877s-1.018-.306-1.549-.304zm0 5.753c-.226.003-.45-.039-.659-.124-.209-.084-.398-.21-.558-.369s-.286-.349-.371-.558c-.085-.208-.128-.432-.125-.657.002-.453.184-.886.505-1.205s.755-.498 1.208-.498c.225-.003.448.039.656.124.209.085.398.211.557.37s.285.348.37.557c.085.208.127.432.124.657-.003.451-.185.883-.504 1.201-.32.319-.752.499-1.203.502z"/><path d="m428.855 467.909h-9.914c-.199 0-.389.079-.53.22-.141.14-.22.331-.22.53s.079.389.22.53.331.22.53.22h9.914c.199 0 .389-.079.53-.22s.22-.331.22-.53-.079-.39-.22-.53c-.141-.141-.331-.22-.53-.22z"/><path d="m579.454 455.151h-5.075v5.075h5.075z"/><path d="m497.524 500.847h-5.076v5.076h5.076z"/><path d="m503.824 495.767h.846 7.93v1.423l.16-.02v8.753h5.075v-9.314-.842h-5.075v-5.075h-.16-7.93-.846-6.3v5.075z"/><path d="m512.76 485.612h.987 4.088v-2.443-2.632h-5.075z"/><path d="m504.67 475.461h-.846-6.3v5.076h6.3.846 8.09v-5.076z"/><path d="m497.524 480.537h-5.076v10.155h5.076z"/><path d="m503.824 505.923h-6.3v5.075h5.913.875 8.448v-5.075h-8.09z"/><path d="m534.323 494.5 3.716-.02h.305l.59-.004 10.62-.059v15.313h5.08v-35.541h-5.08v15.231h-10.62-.59-.305-3.716v-15.231h-5.075v35.541h5.075z"/><path d="m465.805 497.04h-5.076v5.075h5.076z"/><path d="m470.88 491.96h-5.075v5.08h5.075z"/><path d="m475.96 486.884h-5.08v5.076h5.08z"/><path d="m455.649 481.887h20.311v4.997h5.075v-10.155h-25.386z"/><path d="m455.649 507.926v.014.01.014.01.01.426.425.01.015.009.015.009 3.377h25.386v-3.488-.01-.014-.01-.019-.01-.43-.431-.01-.009-.015-.01-.014-.61h-20.305v-5.075h-5.081z"/><path d="m590.098 365.005.222-16.798c-.007-6.163-2.432-12.078-6.754-16.473-4.322-4.394-10.195-6.917-16.358-7.026l-.793.968h.401c5.974.006 11.702 2.382 15.927 6.606s6.602 9.951 6.609 15.925l-.222 16.798h-1.848v6.377h-6.377v6.377h-4.785v6.377h-2.932v-21.008c-.013-5.466-2.165-10.709-5.995-14.608s-9.035-6.144-14.5-6.254l-.779.939h.392c5.288.005 10.359 2.107 14.098 5.846 3.74 3.739 5.844 8.808 5.85 14.097v21.007h-.904v25.517h.904v9.763h-1.538v9.435h-1.984v-2.661h-4.795v-12.58h-5.622v23.466h-2.249v-59.026c-.006-4.781-1.882-9.37-5.227-12.785-3.346-3.415-7.895-5.386-12.675-5.489l-.754.914h.372c4.603.004 9.017 1.834 12.273 5.089 3.255 3.254 5.086 7.667 5.091 12.271v59.026h-.343v7.925h-15.869v-52.05c-.005-4.088-1.607-8.013-4.464-10.937-2.857-2.925-6.743-4.618-10.83-4.719l-.74.89h.372c3.915.004 7.669 1.561 10.437 4.329 2.769 2.769 4.326 6.522 4.33 10.437v52.025h-16.237v-37.104c-.005-3.397-1.334-6.659-3.704-9.094-2.37-2.434-5.596-3.849-8.992-3.945l-.711.861h.358c3.225.009 6.315 1.296 8.594 3.578 2.279 2.283 3.56 5.375 3.564 8.6v37.104h-16.242v-22.183c-.002-2.706-1.055-5.306-2.937-7.251s-4.445-3.084-7.15-3.175l-.697.842h.348c2.542.002 4.979 1.013 6.777 2.81 1.797 1.796 2.809 4.233 2.813 6.774v22.183h-16.213v-7.257c.001-2.026-.775-3.976-2.17-5.446-1.395-1.471-3.301-2.349-5.324-2.455h-80.16l.368.968h79.39c1.837.002 3.597.733 4.896 2.032s2.03 3.06 2.032 4.896v4.684h-93.232v-4.703c.008-1.833.741-3.589 2.039-4.884 1.298-1.294 3.056-2.023 4.89-2.025h.362l-.745-.968c-2.027.096-3.94.968-5.342 2.437-1.402 1.468-2.184 3.42-2.186 5.45v63.274c-.005 1.182.258 2.349.77 3.415.512 1.065 1.26 2 2.186 2.734l-12.289 9.908-.188-.082c-1.652-.779-3.047-2.011-4.025-3.553-.977-1.542-1.496-3.33-1.496-5.156v-85.452c.004-2.541 1.015-4.976 2.812-6.773 1.796-1.796 4.232-2.807 6.773-2.811h.319l-.639-.842c-2.709.085-5.279 1.221-7.166 3.167-1.887 1.945-2.943 4.549-2.946 7.259v85.477c.004 1.945.549 3.852 1.574 5.505 1.025 1.654 2.491 2.989 4.232 3.857l-11.989 9.676-.29-.082c-2.493-.771-4.676-2.316-6.23-4.412-1.554-2.097-2.399-4.634-2.411-7.244v-107.698c.004-3.228 1.288-6.324 3.571-8.607 2.283-2.282 5.378-3.567 8.607-3.571h.329l-.653-.861c-3.402.088-6.635 1.5-9.011 3.935-2.376 2.436-3.709 5.702-3.714 9.104v107.689c.012 2.746.885 5.418 2.496 7.642s3.879 3.886 6.484 4.753l-11.67 9.454c-.126 0-.252-.039-.377-.063-3.367-.656-6.4-2.463-8.58-5.112-2.18-2.648-3.37-5.972-3.366-9.402v-1.452l.087-.048v-19.353l8.767.968v-10.872l-8.854-5.298v-3.444l.087-6.44-.087-.048v-83.895c.004-3.911 1.558-7.661 4.321-10.428 2.763-2.768 6.51-4.328 10.421-4.338h.339l-.678-.89c-4.091.093-7.984 1.783-10.847 4.709-2.862 2.925-4.466 6.854-4.47 10.947v83.401l-15.057-8.312v-89.99c.007-4.602 1.838-9.014 5.092-12.268 3.254-3.255 7.666-5.085 12.268-5.092h.343l-.692-.914c-4.779.103-9.329 2.074-12.674 5.489-3.346 3.415-5.222 8.004-5.227 12.785v50.801h-1.19v-9.435h-2.811v9.435h-1.984v-2.661h-4.794v-12.58h-4.239v-50.501c.007-5.282 2.106-10.347 5.838-14.084 3.733-3.738 8.794-5.845 14.076-5.859h.363l-.716-.919c-5.475.099-10.693 2.341-14.533 6.246-3.839 3.905-5.994 9.159-6 14.636v50.462h-.441v23.485h-3.507v14.998h3.948v16.039h-3.953v-4.781h-1.597v-1.596h-9.453v-113.548c.007-5.974 2.384-11.702 6.609-15.927 4.224-4.225 9.952-6.601 15.927-6.609h.387l-.731-.968c-6.167.102-12.049 2.621-16.377 7.016-4.328 4.396-6.757 10.315-6.764 16.483v113.534h-26.271v1.596h35.082v27.094h-35.082v1.597h3.212v6.376h23.064v46.341c-.001 3.086.607 6.143 1.788 8.995s2.912 5.443 5.095 7.626c2.182 2.183 4.774 3.914 7.626 5.095s5.908 1.788 8.995 1.788h246.603c3.223-.004 6.411-.669 9.367-1.954 2.956-1.284 5.617-3.162 7.818-5.517l.131-.14c3.985-4.329 6.195-10 6.188-15.884l.639-135.097h-.968l-.411 82.903v-47.56h-16.411v-7.9h1.978v-8.225h-1.649v-9.435h-.329v-9.783h44.39v-6.381h1.597v-6.377h1.591v-6.377h1.597v-25.512zm-269.275 202.281h-.6c-3.577-.007-7.101-.862-10.283-2.495-3.183-1.632-5.933-3.996-8.025-6.896-2.759-3.827-4.238-8.428-4.228-13.146v-46.34h14.998v39.049c-.004 5.264 1.98 10.336 5.556 14.199s8.48 6.233 13.729 6.634zm12.26-9.885h-.537c-5.107-.26-9.918-2.474-13.438-6.182-3.52-3.709-5.48-8.628-5.475-13.742v-98.699h2.777v8.961h6.256v-10.644h5.985v30.48 63.182h.029c.128 4.312 1.78 8.439 4.662 11.648s6.808 5.293 11.081 5.881zm12.327-9.947-.454-.044c-4.225-.477-8.127-2.49-10.964-5.657s-4.411-7.267-4.422-11.518l15.052-8.317v.968c.001 3.569 1.222 7.031 3.461 9.812 2.238 2.781 5.36 4.713 8.847 5.476zm223.322-110.359h3.522v7.92h-3.522zm-9.26 1.693h2.999v6.227h-2.999zm-45.62 87.852-.522-.406h1.321c-.194.111-.397.217-.6.314zm-72.868-5.487v-55.847h128.309v55.847zm86.319 15.933-12.681-9.851c.58-.289 1.137-.624 1.664-1.001h21.37c-.578 2.52-1.812 4.843-3.577 6.733-1.764 1.891-3.997 3.281-6.472 4.032zm13.174 10.228-12.308-9.556c2.592-.84 4.917-2.347 6.743-4.37s3.087-4.49 3.659-7.154h16.575v3.933c.004 4.066-1.42 8.004-4.024 11.127-2.605 3.122-6.223 5.231-10.224 5.957-.15.024-.281.048-.421.063zm12.952 10.053-11.975-9.294c4.128-.839 7.838-3.08 10.501-6.343 2.663-3.262 4.116-7.346 4.111-11.558v-3.934h16.188v11.225c-.023 4.997-1.911 9.806-5.295 13.484-3.384 3.677-8.02 5.958-12.998 6.396zm36.093-46.369-.16 33.751c.014 5.705-2.145 11.201-6.038 15.371l-.106.121c-2.11 2.222-4.649 3.992-7.464 5.203-2.814 1.211-5.845 1.837-8.909 1.842h-.624l-11.665-9.057c5.116-.573 9.843-3.005 13.283-6.835 3.44-3.829 5.354-8.788 5.378-13.936v-11.224h1.181v-4.781l.314-.3h4.741v-4.557l.542-.518h4.539v-4.354l.764-.731zm-10.069-60.923v5.076h5.081v55.847h-5.081v5.08h-5.075v-55.852h-128.318v-5.075h-5.076v5.075h-5.08v47.7h-35.565c-1.837-.004-3.597-.735-4.895-2.034-1.299-1.298-2.03-3.058-2.034-4.894v-57.614h93.232v1.592h-35.502v3.871l-.968 1.214h-4.108v5.075h5.08v-5.061zm34.947-43.616h-39.862v-19.13h39.862zm1.596-22.323h-36.673v-3.165h36.673zm1.592-6.377h-33.485v-3.188h33.485zm1.597-6.377h-28.7v-3.188h28.7z"/><path d="m278.441 477.682h-3.188v3.189h3.188z"/><path d="m283.225 484.059h-3.188v3.188h3.188z"/><path d="m283.225 477.682h-3.188v3.189h3.188z"/><path d="m270.468 463.332h-1.592v27.104h1.592z"/><path d="m278.441 484.059h-3.188v3.188h3.188z"/><path d="m292.791 468.112h-19.135v4.785h19.135z"/><path d="m294.388 484.059h-3.189v3.188h3.189z"/><path d="m300.765 477.682h-3.189v3.189h3.189z"/><path d="m300.765 484.059h-3.189v3.188h3.189z"/><path d="m289.602 477.682h-3.188v3.189h3.188z"/><path d="m294.388 477.682h-3.189v3.189h3.189z"/><path d="m289.602 484.059h-3.188v3.188h3.188z"/><path d="m682.77 544.667-6.561-8.462v21.767l6.561 11.162z"/><path d="m666.141 458.978v-4.674l-30.959 8.244v2.536z"/><path d="m634.305 552.669-17.553-23.199v-16.624l17.553 15.647z"/><path d="m625.534 478.287-15.284-1.282v-15.705l15.284-5.293z"/><path d="m685.188 522.61-16.522-12.797v-24.177l16.522 5.685z"/><path d="m661.07 508.579-16.885-7.552v-11.123l16.885 3.444z"/><path d="m684.298 423.301-14.379 9.241v-22.754l14.379-15.429z"/><path d="m650.503 402.221-11.438 14.539v-20.558l11.438-19.459z"/><path d="m654.248 520.858 9.865 9.691v-14.19l-9.865-7.407z"/><path d="m667.074 453.457 9.865-3.846v-14.19l-9.865 6.13z"/><path d="m650.658 479.322 8.694 2.395v-13.242l-8.694-.387z"/><path d="m650.416 429.499 8.331-7.146v-12.947l-8.331 9.076z"/><path d="m620.637 510.867-4.533-4.48v-14.089l4.533 2.913z"/><path d="m612.421 462.853-4.088 1.142v-13.416l4.088-2.56z"/><path d="m675.918 389.472-7.823 7.877v-18.206l7.823-10.586z"/><path d="m185.426 544.667 6.56-8.462v21.767l-6.56 11.162z"/><path d="m202.061 458.978v-4.674l30.959 8.244v2.536z"/><path d="m233.891 552.669 17.557-23.199v-16.624l-17.557 15.647z"/><path d="m242.663 478.287 15.284-1.282v-15.705l-15.284-5.293z"/><path d="m183.013 522.61 16.517-12.797v-24.177l-16.517 5.685z"/><path d="m207.131 508.579 16.88-7.552v-11.123l-16.88 3.444z"/><path d="m183.897 423.301 14.384 9.241v-22.754l-14.384-15.429z"/><path d="m217.697 402.221 11.433 14.539v-20.558l-11.433-19.459z"/><path d="m213.953 520.858-9.87 9.691v-14.19l9.87-7.407z"/><path d="m201.127 453.457-9.87-3.846v-14.19l9.87 6.13z"/><path d="m217.537 479.322-8.689 2.395v-13.242l8.689-.387z"/><path d="m217.784 429.499-8.336-7.146v-12.947l8.336 9.076z"/><path d="m247.563 510.867 4.529-4.48v-14.089l-4.529 2.913z"/><path d="m255.779 462.853 4.084 1.142v-13.416l-4.084-2.56z"/><path d="m192.282 389.472 7.819 7.877v-18.206l-7.819-10.586z"/><path d="m495.1 413.266-1.219-.038 73.332-88.52.746.619z"/><path d="m386.119 413.266-67.028-87.973.769-.585 67.445 88.52z"/><path d="m319.091 324.708 80.865 105.129h80.092l87.91-105.134zm81.373 28.715h-2.675v13.237h2.675v2.647h-8.016v-2.647h2.67v-13.237h-2.67v-2.647h8.016zm28.164 2.951v2.463h-2.487v2.462h-2.477v2.458h-2.482v2.463h-1.873v2.462h-2.482v-2.462h-1.853v-2.463h-2.482v-2.458h-2.487v-2.462h-2.482v-4.926h2.482v-2.453h4.969v2.458h2.482v2.463h1.224v-2.463h2.487v-2.458h4.964v2.458h2.487zm21.476.174h-3.217v3.189h-3.222v3.193h-3.218v3.188h9.677v3.189h-16.111v-3.189h3.198v-3.188h3.217v-3.193h3.217v-3.189h-9.676v-3.188h16.092zm19.614 0h-12.874v3.189h9.676v3.193h3.218v3.188h-3.218v3.189h-12.893v-3.189h12.874v-3.188h-9.676v-3.193h-3.218v-3.189h3.218v-3.188h12.874zm19.614 12.759h-3.222v-12.759h-9.676v12.759h-3.222v-22.324h3.222v6.377h9.676v3.188h3.222zm13.175 0h-3.217v-3.189h3.236zm-3.217-6.377v-15.966h3.236v15.966z"/></g></svg>