<svg xmlns="http://www.w3.org/2000/svg" xmlns:xlink="http://www.w3.org/1999/xlink" width="1180" height="455.91"><rect width="1180" height="455.91" class="a" rx="0" ry="0"/><svg xmlns="http://www.w3.org/2000/svg" xmlns:xlink="http://www.w3.org/1999/xlink" width="1180" height="455.91" viewBox="0 0 118 45.591"><style>@keyframes o{0%{transform:translateX(0)}.6%{transform:translateX(-118px)}11.1%{transform:translateX(-708px)}22.4%{transform:translateX(-826px)}37.6%{transform:translateX(-944px)}42%{transform:translateX(-1298px)}42.1%{transform:translateX(-1534px)}42.2%{transform:translateX(-1770px)}42.3%{transform:translateX(-2006px)}42.5%{transform:translateX(-2242px)}45.1%{transform:translateX(-2360px)}45.2%{transform:translateX(-2714px)}46.1%{transform:translateX(-2950px)}74.1%{transform:translateX(-3186px)}80.6%{transform:translateX(-3304px)}85.6%{transform:translateX(-3422px)}90.6%{transform:translateX(-3540px)}}.a{fill:#282d35}.c,.d{fill:#a8cc8c;font-weight:700;white-space:pre}.d{fill:#66c2cd}.e{fill:#8700ff}.e,.g,.h,.k,.l{white-space:pre}.g{fill:#5fff00}.h{fill:#b9c0cb}.k,.l{fill:#00afff;font-weight:700;text-decoration:underline}.l{fill:#ff5fff}.r{fill:#282d35}.r,.u,.v{white-space:pre}.u{fill:#e88388;font-weight:700}.v{fill:#6f7783}</style><g font-family="Monaco,Consolas,Menlo,'Bitstream Vera Sans Mono','Powerline Symbols',monospace" font-size="1.67"><defs><symbol id="1"><text y="1.67" class="c">➜</text><text x="3.006" y="1.67" class="d">test</text></symbol><symbol id="2"><text y="1.67" class="c">➜</text><text x="3.006" y="1.67" class="d">test</text><text x="8.016" y="1.67" class="e">zi</text><text x="11.022" y="1.67" fill="#00ff87" style="white-space:pre">csearch</text></symbol><symbol id="3"><text y="1.67" class="g">[+]</text><text x="4.008" y="1.67" class="h">is</text><text x="7.014" y="1.67" class="h">installed,</text><text x="18.036" y="1.67" fill="#5fd7ff" style="white-space:pre">[-]</text><text x="22.044" y="1.67" class="h">uninstalled,</text><text x="35.07" y="1.67" fill="#ff5f87" font-weight="700" style="white-space:pre">[+-]</text><text x="40.08" y="1.67" class="h">partially</text><text x="50.1" y="1.67" class="h">installed</text></symbol><symbol id="4"><text y="1.67" class="g">[+]</text></symbol><symbol id="5"><text y="1.67" class="g">[+]</text><text x="4.008" y="1.67" class="k">fzf</text><text x="53.106" y="1.67" class="h">_fzf_completion</text></symbol><symbol id="6"><text y="1.67" class="g">[+]</text><text x="4.008" y="1.67" class="l">_local</text><text x="10.02" y="1.67" class="h">/</text><text x="11.022" y="1.67" class="k">zi</text><text x="32.064" y="1.67" class="h">_zi</text></symbol><symbol id="7"><text y="1.67" class="g">[+]</text><text x="4.008" y="1.67" class="k">nb</text><text x="53.106" y="1.67" class="h">_nb</text></symbol><symbol id="8"><text y="1.67" class="g">[+]</text><text x="4.008" y="1.67" class="l">ogham</text><text x="9.018" y="1.67" class="h">/</text><text x="10.02" y="1.67" class="k">exa</text><text x="32.064" y="1.67" class="h">_exa</text></symbol><symbol id="9"><text y="1.67" class="g">[+]</text><text x="4.008" y="1.67" class="l">z-shell</text><text x="11.022" y="1.67" class="h">/</text><text x="12.024" y="1.67" class="k">F-Sy-H</text><text x="32.064" y="1.67" class="h">_fast-theme</text></symbol><symbol id="10"><text y="1.67" class="g">[+]</text><text x="4.008" y="1.67" class="l">zsh-users</text><text x="13.026" y="1.67" class="h">/</text><text x="14.028" y="1.67" class="k">zsh-completions</text><text x="32.064" y="1.67" class="h">_afew,</text><text x="39.078" y="1.67" class="h">_android,</text><text x="49.098" y="1.67" class="h">_archlinux-java,</text><text x="66.132" y="1.67" class="h">_artisan,</text><text x="76.152" y="1.67" class="h">_atach,</text><text x="84.168" y="1.67" class="h">_bitcoin-cli,</text><text x="98.196" y="1.67" class="h">_bower,</text><text x="106.212" y="1.67" class="h">_bundle,</text><text x="115.23" y="1.67" class="h">_ca</text></symbol><symbol id="11"><text y="1.67" class="h">ffeinate,</text><text x="10.02" y="1.67" class="h">_cap,</text><text x="16.032" y="1.67" class="h">_cask,</text><text x="23.046" y="1.67" class="h">_ccache,</text><text x="32.064" y="1.67" class="h">_cf,</text><text x="37.074" y="1.67" class="h">_choc,</text><text x="44.088" y="1.67" class="h">_chromium,</text><text x="55.11" y="1.67" class="h">_cmake,</text><text x="63.126" y="1.67" class="h">_coffee,</text><text x="72.144" y="1.67" class="h">_composer,</text><text x="83.166" y="1.67" class="h">_conan,</text><text x="91.182" y="1.67" class="h">_concourse,</text><text x="103.206" y="1.67" class="h">_console,</text><text x="113.226" y="1.67" class="h">_cppc</text></symbol><symbol id="12"><text y="1.67" class="h">heck,</text><text x="6.012" y="1.67" class="h">_dad,</text><text x="12.024" y="1.67" class="h">_debuild,</text><text x="22.044" y="1.67" class="h">_dget,</text><text x="29.058" y="1.67" class="h">_dhcpcd,</text><text x="38.076" y="1.67" class="h">_diana,</text><text x="46.092" y="1.67" class="h">_docpad,</text><text x="55.11" y="1.67" class="h">_drush,</text><text x="63.126" y="1.67" class="h">_ecdsautil,</text><text x="75.15" y="1.67" class="h">_emulator,</text><text x="86.172" y="1.67" class="h">_envdir,</text><text x="95.19" y="1.67" class="h">_exportfs,</text><text x="106.212" y="1.67" class="h">_fab,</text><text x="112.224" y="1.67" class="h">_fail2</text></symbol><symbol id="13"><text y="1.67" class="h">ban-client,</text><text x="12.024" y="1.67" class="h">_ffind,</text><text x="20.04" y="1.67" class="h">_fleetctl,</text><text x="31.062" y="1.67" class="h">_flutter,</text><text x="41.082" y="1.67" class="h">_force,</text><text x="49.098" y="1.67" class="h">_fwupdmgr,</text><text x="60.12" y="1.67" class="h">_gas,</text><text x="66.132" y="1.67" class="h">_ghc,</text><text x="72.144" y="1.67" class="h">_gist,</text><text x="79.158" y="1.67" class="h">_git-flow,</text><text x="90.18" y="1.67" class="h">_git-journal,</text><text x="104.208" y="1.67" class="h">_git-pulls,</text><text x="116.232" y="1.67" class="h">_g</text></symbol><symbol id="14"><text y="1.67" class="h">it-revise,</text><text x="11.022" y="1.67" class="h">_git-wtf,</text><text x="21.042" y="1.67" class="h">_glances,</text><text x="31.062" y="1.67" class="h">_golang,</text><text x="40.08" y="1.67" class="h">_google,</text><text x="49.098" y="1.67" class="h">_gpgconf,</text><text x="59.118" y="1.67" class="h">_gtk-launch,</text><text x="72.144" y="1.67" class="h">_hello,</text><text x="80.16" y="1.67" class="h">_hledger,</text><text x="90.18" y="1.67" class="h">_homestead,</text><text x="102.204" y="1.67" class="h">_httpie,</text><text x="111.222" y="1.67" class="h">_ibus,</text></symbol><symbol id="15"><text y="1.67" class="h">_include-what-you-use,</text><text x="23.046" y="1.67" class="h">_inxi,</text><text x="30.06" y="1.67" class="h">_jmeter,</text><text x="39.078" y="1.67" class="h">_jmeter-plugins,</text><text x="56.112" y="1.67" class="h">_jonas,</text><text x="64.128" y="1.67" class="h">_jrnl,</text><text x="71.142" y="1.67" class="h">_kak,</text><text x="77.154" y="1.67" class="h">_kitchen,</text><text x="87.174" y="1.67" class="h">_knife,</text><text x="95.19" y="1.67" class="h">_language_codes,</text><text x="112.224" y="1.67" class="h">_lilyp</text></symbol><symbol id="16"><text y="1.67" class="h">ond,</text><text x="5.01" y="1.67" class="h">_lunchy,</text><text x="14.028" y="1.67" class="h">_mc,</text><text x="19.038" y="1.67" class="h">_middleman,</text><text x="31.062" y="1.67" class="h">_mina,</text><text x="38.076" y="1.67" class="h">_mix,</text><text x="44.088" y="1.67" class="h">_mssh,</text><text x="51.102" y="1.67" class="h">_mussh,</text><text x="59.118" y="1.67" class="h">_mvn,</text><text x="65.13" y="1.67" class="h">_nano,</text><text x="72.144" y="1.67" class="h">_nanoc,</text><text x="80.16" y="1.67" class="h">_nftables,</text><text x="91.182" y="1.67" class="h">_node,</text><text x="98.196" y="1.67" class="h">_nvm,</text><text x="104.208" y="1.67" class="h">_openssl,</text><text x="114.228" y="1.67" class="h">_ope</text></symbol><symbol id="17"><text y="1.67" class="h">nvpn3,</text><text x="7.014" y="1.67" class="h">_optirun,</text><text x="17.034" y="1.67" class="h">_opustools,</text><text x="29.058" y="1.67" class="h">_patool,</text><text x="38.076" y="1.67" class="h">_perf,</text><text x="45.09" y="1.67" class="h">_periscope,</text><text x="57.114" y="1.67" class="h">_pgsql_utils,</text><text x="71.142" y="1.67" class="h">_phing,</text><text x="79.158" y="1.67" class="h">_pixz,</text><text x="86.172" y="1.67" class="h">_pkcon,</text><text x="94.188" y="1.67" class="h">_play,</text><text x="101.202" y="1.67" class="h">_pm2,</text><text x="107.214" y="1.67" class="h">_port,</text><text x="114.228" y="1.67" class="h">_pro</text></symbol><symbol id="18"><text y="1.67" class="h">toc,</text><text x="5.01" y="1.67" class="h">_pygmentize,</text><text x="18.036" y="1.67" class="h">_qmk,</text><text x="24.048" y="1.67" class="h">_rails,</text><text x="32.064" y="1.67" class="h">_ralio,</text><text x="40.08" y="1.67" class="h">_redis-cli,</text><text x="52.104" y="1.67" class="h">_rfkill,</text><text x="61.122" y="1.67" class="h">_rkt,</text><text x="67.134" y="1.67" class="h">_rmlint,</text><text x="76.152" y="1.67" class="h">_rslsync,</text><text x="86.172" y="1.67" class="h">_rspec,</text><text x="94.188" y="1.67" class="h">_rsvm,</text><text x="101.202" y="1.67" class="h">_rubocop,</text><text x="111.222" y="1.67" class="h">_sbt,</text><text x="117.234" y="1.67" class="h">_</text></symbol><symbol id="19"><text y="1.67" class="h">scala,</text><text x="7.014" y="1.67" class="h">_scrub,</text><text x="15.03" y="1.67" class="h">_sdd,</text><text x="21.042" y="1.67" class="h">_setcap,</text><text x="30.06" y="1.67" class="h">_setup.py,</text><text x="41.082" y="1.67" class="h">_sfdx,</text><text x="48.096" y="1.67" class="h">_shellcheck,</text><text x="61.122" y="1.67" class="h">_showoff,</text><text x="71.142" y="1.67" class="h">_srm,</text><text x="77.154" y="1.67" class="h">_stack,</text><text x="85.17" y="1.67" class="h">_subl,</text><text x="92.184" y="1.67" class="h">_subliminal,</text><text x="105.21" y="1.67" class="h">_supervisorct</text></symbol><symbol id="20"><text y="1.67" class="h">l,</text><text x="3.006" y="1.67" class="h">_svm,</text><text x="9.018" y="1.67" class="h">_tarsnap,</text><text x="19.038" y="1.67" class="h">_teamocil,</text><text x="30.06" y="1.67" class="h">_thor,</text><text x="37.074" y="1.67" class="h">_tmuxinator,</text><text x="50.1" y="1.67" class="h">_tmuxp,</text><text x="58.116" y="1.67" class="h">_tox,</text><text x="64.128" y="1.67" class="h">_trash,</text><text x="72.144" y="1.67" class="h">_trash-empty,</text><text x="86.172" y="1.67" class="h">_trash-list,</text><text x="99.198" y="1.67" class="h">_trash-put,</text><text x="111.222" y="1.67" class="h">_trash-</text></symbol><symbol id="21"><text y="1.67" class="h">restore,</text><text x="9.018" y="1.67" class="h">_udisksctl,</text><text x="21.042" y="1.67" class="h">_ufw,</text><text x="27.054" y="1.67" class="h">_vagrant,</text><text x="37.074" y="1.67" class="h">_virtualbox,</text><text x="50.1" y="1.67" class="h">_vnstat,</text><text x="59.118" y="1.67" class="h">_wemux,</text><text x="67.134" y="1.67" class="h">_wg-quick,</text><text x="78.156" y="1.67" class="h">_xinput,</text><text x="87.174" y="1.67" class="h">_xsel,</text><text x="94.188" y="1.67" class="h">_yaourt,</text><text x="103.206" y="1.67" class="h">_yarn,</text><text x="110.22" y="1.67" class="h">_zcash-c</text></symbol><symbol id="22"><text y="1.67" class="h">li</text></symbol><symbol id="23"><text y="1.67" class="c">➜</text><text x="3.006" y="1.67" class="d">test</text><text x="8.016" y="1.67" class="e">exit</text></symbol><symbol id="a"><path fill="transparent" d="M0 0h118v21H0z"/></symbol><symbol id="b"><path fill="#6f7683" d="M0 0h1.102v2.171H0z"/></symbol></defs><path d="M0 0h118v45.591H0z" class="a"/><svg width="3776" style="animation-duration:3.344883s;animation-iteration-count:infinite;animation-name:o;animation-timing-function:steps(1,end)"><svg><use xlink:href="#a"/><use xlink:href="#b" x="-.004"/></svg><svg x="118"><use xlink:href="#a"/><use xlink:href="#b" x="7.996"/><use xlink:href="#1"/></svg><svg x="236"><use xlink:href="#a"/><use xlink:href="#1"/></svg><svg x="354"><use xlink:href="#a"/></svg><svg x="472"><use xlink:href="#a"/><use xlink:href="#1"/></svg><svg x="590"><use xlink:href="#a"/><use xlink:href="#b" x="7.996"/><use xlink:href="#1"/></svg><svg x="708"><use xlink:href="#a"/><use xlink:href="#b" x="7.996"/><use xlink:href="#1"/></svg><svg x="826"><use xlink:href="#a"/><use xlink:href="#b" x="17.996"/><text y="1.67" class="c">➜</text><text x="3.006" y="1.67" class="d">test</text><path fill="#8700ff" d="M8.016 0h2v2.171h-2z"/><text x="8.016" y="1.67" class="r">zi</text><path fill="#b9c0cb" d="M10.02 0h1v2.171h-1z"/><path fill="#00ff87" d="M11.022 0h7v2.171h-7z"/><text x="11.022" y="1.67" class="r">csearch</text></svg><svg x="944"><use xlink:href="#a"/><use xlink:href="#b" x="-.004" y="2.146"/><use xlink:href="#2"/></svg><svg x="1062"><use xlink:href="#a"/><use xlink:href="#b" x="-.004" y="4.317"/><use xlink:href="#2"/><use xlink:href="#3" y="2.171"/></svg><svg x="1180"><use xlink:href="#a"/><use xlink:href="#b" x="3.996" y="4.317"/><use xlink:href="#2"/><use xlink:href="#3" y="2.171"/><use xlink:href="#4" y="4.342"/></svg><svg x="1298"><use xlink:href="#a"/><use xlink:href="#b" x="-.004" y="6.488"/><use xlink:href="#2"/><use xlink:href="#3" y="2.171"/><use xlink:href="#5" y="4.342"/></svg><svg x="1416"><use xlink:href="#a"/><use xlink:href="#b" x="3.996" y="6.488"/><use xlink:href="#2"/><use xlink:href="#3" y="2.171"/><use xlink:href="#5" y="4.342"/><use xlink:href="#4" y="6.513"/></svg><svg x="1534"><use xlink:href="#a"/><use xlink:href="#b" x="-.004" y="8.659"/><use xlink:href="#2"/><use xlink:href="#3" y="2.171"/><use xlink:href="#5" y="4.342"/><use xlink:href="#6" y="6.513"/></svg><svg x="1652"><use xlink:href="#a"/><use xlink:href="#b" x="3.996" y="8.659"/><use xlink:href="#2"/><use xlink:href="#3" y="2.171"/><use xlink:href="#5" y="4.342"/><use xlink:href="#6" y="6.513"/><use xlink:href="#4" y="8.684"/></svg><svg x="1770"><use xlink:href="#a"/><use xlink:href="#b" x="-.004" y="10.83"/><use xlink:href="#2"/><use xlink:href="#3" y="2.171"/><use xlink:href="#5" y="4.342"/><use xlink:href="#6" y="6.513"/><use xlink:href="#7" y="8.684"/></svg><svg x="1888"><use xlink:href="#a"/><use xlink:href="#b" x="3.996" y="10.83"/><use xlink:href="#2"/><use xlink:href="#3" y="2.171"/><use xlink:href="#5" y="4.342"/><use xlink:href="#6" y="6.513"/><use xlink:href="#7" y="8.684"/><use xlink:href="#4" y="10.855"/></svg><svg x="2006"><use xlink:href="#a"/><use xlink:href="#b" x="-.004" y="13.001"/><use xlink:href="#2"/><use xlink:href="#3" y="2.171"/><use xlink:href="#5" y="4.342"/><use xlink:href="#6" y="6.513"/><use xlink:href="#7" y="8.684"/><use xlink:href="#8" y="10.855"/></svg><svg x="2124"><use xlink:href="#a"/><use xlink:href="#b" x="3.996" y="13.001"/><use xlink:href="#2"/><use xlink:href="#3" y="2.171"/><use xlink:href="#5" y="4.342"/><use xlink:href="#6" y="6.513"/><use xlink:href="#7" y="8.684"/><use xlink:href="#8" y="10.855"/><use xlink:href="#4" y="13.026"/></svg><svg x="2242"><use xlink:href="#a"/><use xlink:href="#b" x="-.004" y="15.172"/><use xlink:href="#2"/><use xlink:href="#3" y="2.171"/><use xlink:href="#5" y="4.342"/><use xlink:href="#6" y="6.513"/><use xlink:href="#7" y="8.684"/><use xlink:href="#8" y="10.855"/><use xlink:href="#9" y="13.026"/></svg><svg x="2360"><use xlink:href="#a"/><use xlink:href="#b" x="3.996" y="15.172"/><use xlink:href="#2"/><use xlink:href="#3" y="2.171"/><use xlink:href="#5" y="4.342"/><use xlink:href="#6" y="6.513"/><use xlink:href="#7" y="8.684"/><use xlink:href="#8" y="10.855"/><use xlink:href="#9" y="13.026"/><use xlink:href="#4" y="15.197"/></svg><svg x="2478"><use xlink:href="#a"/><use xlink:href="#b" x="42.996" y="32.54"/><use xlink:href="#2"/><use xlink:href="#3" y="2.171"/><use xlink:href="#5" y="4.342"/><use xlink:href="#6" y="6.513"/><use xlink:href="#7" y="8.684"/><use xlink:href="#8" y="10.855"/><use xlink:href="#9" y="13.026"/><use xlink:href="#10" y="15.197"/><use xlink:href="#11" y="17.368"/><use xlink:href="#12" y="19.539"/><use xlink:href="#13" y="21.71"/><use xlink:href="#14" y="23.881"/><use xlink:href="#15" y="26.052"/><use xlink:href="#16" y="28.223"/><use xlink:href="#17" y="30.394"/><text y="34.235" class="h">toc,</text><text x="5.01" y="34.235" class="h">_pygmentize,</text><text x="18.036" y="34.235" class="h">_qmk,</text><text x="24.048" y="34.235" class="h">_rails,</text><text x="32.064" y="34.235" class="h">_ralio,</text><text x="40.08" y="34.235" class="h">_re</text></svg><svg x="2596"><use xlink:href="#a"/><use xlink:href="#b" x="-.004" y="43.395"/><use xlink:href="#2"/><use xlink:href="#3" y="2.171"/><use xlink:href="#5" y="4.342"/><use xlink:href="#6" y="6.513"/><use xlink:href="#7" y="8.684"/><use xlink:href="#8" y="10.855"/><use xlink:href="#9" y="13.026"/><use xlink:href="#10" y="15.197"/><use xlink:href="#11" y="17.368"/><use xlink:href="#12" y="19.539"/><use xlink:href="#13" y="21.71"/><use xlink:href="#14" y="23.881"/><use xlink:href="#15" y="26.052"/><use xlink:href="#16" y="28.223"/><use xlink:href="#17" y="30.394"/><use xlink:href="#18" y="32.565"/><use xlink:href="#19" y="34.736"/><use xlink:href="#20" y="36.907"/><use xlink:href="#21" y="39.078"/><use xlink:href="#22" y="41.249"/></svg><svg x="2714"><use xlink:href="#a"/><use xlink:href="#b" x="-.004" y="43.395"/><use xlink:href="#2"/><use xlink:href="#3" y="2.171"/><use xlink:href="#5" y="4.342"/><use xlink:href="#6" y="6.513"/><use xlink:href="#7" y="8.684"/><use xlink:href="#8" y="10.855"/><use xlink:href="#9" y="13.026"/><use xlink:href="#10" y="15.197"/><use xlink:href="#11" y="17.368"/><use xlink:href="#12" y="19.539"/><use xlink:href="#13" y="21.71"/><use xlink:href="#14" y="23.881"/><use xlink:href="#15" y="26.052"/><use xlink:href="#16" y="28.223"/><use xlink:href="#17" y="30.394"/><use xlink:href="#18" y="32.565"/><use xlink:href="#19" y="34.736"/><use xlink:href="#20" y="36.907"/><use xlink:href="#21" y="39.078"/><use xlink:href="#22" y="41.249"/></svg><svg x="2832"><use xlink:href="#a"/><use xlink:href="#b" x="7.996" y="43.395"/><use xlink:href="#2"/><use xlink:href="#3" y="2.171"/><use xlink:href="#5" y="4.342"/><use xlink:href="#6" y="6.513"/><use xlink:href="#7" y="8.684"/><use xlink:href="#8" y="10.855"/><use xlink:href="#9" y="13.026"/><use xlink:href="#10" y="15.197"/><use xlink:href="#11" y="17.368"/><use xlink:href="#12" y="19.539"/><use xlink:href="#13" y="21.71"/><use xlink:href="#14" y="23.881"/><use xlink:href="#15" y="26.052"/><use xlink:href="#16" y="28.223"/><use xlink:href="#17" y="30.394"/><use xlink:href="#18" y="32.565"/><use xlink:href="#19" y="34.736"/><use xlink:href="#20" y="36.907"/><use xlink:href="#21" y="39.078"/><use xlink:href="#22" y="41.249"/><use xlink:href="#1" y="43.42"/></svg><svg x="2950"><use xlink:href="#a"/><use xlink:href="#b" x="7.996" y="43.395"/><use xlink:href="#2"/><use xlink:href="#3" y="2.171"/><use xlink:href="#5" y="4.342"/><use xlink:href="#6" y="6.513"/><use xlink:href="#7" y="8.684"/><use xlink:href="#8" y="10.855"/><use xlink:href="#9" y="13.026"/><use xlink:href="#10" y="15.197"/><use xlink:href="#11" y="17.368"/><use xlink:href="#12" y="19.539"/><use xlink:href="#13" y="21.71"/><use xlink:href="#14" y="23.881"/><use xlink:href="#15" y="26.052"/><use xlink:href="#16" y="28.223"/><use xlink:href="#17" y="30.394"/><use xlink:href="#18" y="32.565"/><use xlink:href="#19" y="34.736"/><use xlink:href="#20" y="36.907"/><use xlink:href="#21" y="39.078"/><use xlink:href="#22" y="41.249"/><use xlink:href="#1" y="43.42"/></svg><svg x="3068"><use xlink:href="#a"/><use xlink:href="#b" x="8.996" y="43.395"/><use xlink:href="#2"/><use xlink:href="#3" y="2.171"/><use xlink:href="#5" y="4.342"/><use xlink:href="#6" y="6.513"/><use xlink:href="#7" y="8.684"/><use xlink:href="#8" y="10.855"/><use xlink:href="#9" y="13.026"/><use xlink:href="#10" y="15.197"/><use xlink:href="#11" y="17.368"/><use xlink:href="#12" y="19.539"/><use xlink:href="#13" y="21.71"/><use xlink:href="#14" y="23.881"/><use xlink:href="#15" y="26.052"/><use xlink:href="#16" y="28.223"/><use xlink:href="#17" y="30.394"/><use xlink:href="#18" y="32.565"/><use xlink:href="#19" y="34.736"/><use xlink:href="#20" y="36.907"/><use xlink:href="#21" y="39.078"/><use xlink:href="#22" y="41.249"/><text y="45.09" class="c">➜</text><text x="3.006" y="45.09" class="d">test</text><text x="8.016" y="45.09" class="u">e</text></svg><svg x="3186"><use xlink:href="#a"/><use xlink:href="#b" x="8.996" y="43.395"/><use xlink:href="#2"/><use xlink:href="#3" y="2.171"/><use xlink:href="#5" y="4.342"/><use xlink:href="#6" y="6.513"/><use xlink:href="#7" y="8.684"/><use xlink:href="#8" y="10.855"/><use xlink:href="#9" y="13.026"/><use xlink:href="#10" y="15.197"/><use xlink:href="#11" y="17.368"/><use xlink:href="#12" y="19.539"/><use xlink:href="#13" y="21.71"/><use xlink:href="#14" y="23.881"/><use xlink:href="#15" y="26.052"/><use xlink:href="#16" y="28.223"/><use xlink:href="#17" y="30.394"/><use xlink:href="#18" y="32.565"/><use xlink:href="#19" y="34.736"/><use xlink:href="#20" y="36.907"/><use xlink:href="#21" y="39.078"/><use xlink:href="#22" y="41.249"/><text y="45.09" class="c">➜</text><text x="3.006" y="45.09" class="d">test</text><text x="8.016" y="45.09" class="u">e</text><text x="9.018" y="45.09" class="v">xit</text></svg><svg x="3304"><use xlink:href="#a"/><use xlink:href="#b" x="9.996" y="43.395"/><use xlink:href="#2"/><use xlink:href="#3" y="2.171"/><use xlink:href="#5" y="4.342"/><use xlink:href="#6" y="6.513"/><use xlink:href="#7" y="8.684"/><use xlink:href="#8" y="10.855"/><use xlink:href="#9" y="13.026"/><use xlink:href="#10" y="15.197"/><use xlink:href="#11" y="17.368"/><use xlink:href="#12" y="19.539"/><use xlink:href="#13" y="21.71"/><use xlink:href="#14" y="23.881"/><use xlink:href="#15" y="26.052"/><use xlink:href="#16" y="28.223"/><use xlink:href="#17" y="30.394"/><use xlink:href="#18" y="32.565"/><use xlink:href="#19" y="34.736"/><use xlink:href="#20" y="36.907"/><use xlink:href="#21" y="39.078"/><use xlink:href="#22" y="41.249"/><text y="45.09" class="c">➜</text><text x="3.006" y="45.09" class="d">test</text><text x="8.016" y="45.09" class="u">ex</text><text x="10.02" y="45.09" class="v">it</text></svg><svg x="3422"><use xlink:href="#a"/><use xlink:href="#b" x="10.996" y="43.395"/><use xlink:href="#2"/><use xlink:href="#3" y="2.171"/><use xlink:href="#5" y="4.342"/><use xlink:href="#6" y="6.513"/><use xlink:href="#7" y="8.684"/><use xlink:href="#8" y="10.855"/><use xlink:href="#9" y="13.026"/><use xlink:href="#10" y="15.197"/><use xlink:href="#11" y="17.368"/><use xlink:href="#12" y="19.539"/><use xlink:href="#13" y="21.71"/><use xlink:href="#14" y="23.881"/><use xlink:href="#15" y="26.052"/><use xlink:href="#16" y="28.223"/><use xlink:href="#17" y="30.394"/><use xlink:href="#18" y="32.565"/><use xlink:href="#19" y="34.736"/><use xlink:href="#20" y="36.907"/><use xlink:href="#21" y="39.078"/><use xlink:href="#22" y="41.249"/><text y="45.09" class="c">➜</text><text x="3.006" y="45.09" class="d">test</text><text x="8.016" y="45.09" class="u">exi</text><text x="11.022" y="45.09" class="v">t</text></svg><svg x="3540"><use xlink:href="#a"/><use xlink:href="#b" x="11.996" y="43.395"/><use xlink:href="#2"/><use xlink:href="#3" y="2.171"/><use xlink:href="#5" y="4.342"/><use xlink:href="#6" y="6.513"/><use xlink:href="#7" y="8.684"/><use xlink:href="#8" y="10.855"/><use xlink:href="#9" y="13.026"/><use xlink:href="#10" y="15.197"/><use xlink:href="#11" y="17.368"/><use xlink:href="#12" y="19.539"/><use xlink:href="#13" y="21.71"/><use xlink:href="#14" y="23.881"/><use xlink:href="#15" y="26.052"/><use xlink:href="#16" y="28.223"/><use xlink:href="#17" y="30.394"/><use xlink:href="#18" y="32.565"/><use xlink:href="#19" y="34.736"/><use xlink:href="#20" y="36.907"/><use xlink:href="#21" y="39.078"/><use xlink:href="#22" y="41.249"/><use xlink:href="#23" y="43.42"/></svg><svg x="3658"><use xlink:href="#a"/><use xlink:href="#b" x="-.004" y="43.395"/><use xlink:href="#3"/><use xlink:href="#5" y="2.171"/><use xlink:href="#6" y="4.342"/><use xlink:href="#7" y="6.513"/><use xlink:href="#8" y="8.684"/><use xlink:href="#9" y="10.855"/><use xlink:href="#10" y="13.026"/><use xlink:href="#11" y="15.197"/><use xlink:href="#12" y="17.368"/><use xlink:href="#13" y="19.539"/><use xlink:href="#14" y="21.71"/><use xlink:href="#15" y="23.881"/><use xlink:href="#16" y="26.052"/><use xlink:href="#17" y="28.223"/><use xlink:href="#18" y="30.394"/><use xlink:href="#19" y="32.565"/><use xlink:href="#20" y="34.736"/><use xlink:href="#21" y="36.907"/><use xlink:href="#22" y="39.078"/><use xlink:href="#23" y="41.249"/></svg></svg></g></svg></svg>