<svg xmlns="http://www.w3.org/2000/svg" width="816" height="816" fill="none"><g stroke-linecap="round"><path stroke="#f15a24" stroke-linejoin="round" stroke-width="6.268" d="m320.736 337.539-58.198 69.311"/><circle cx="277.301" cy="353.081" r="12.013" stroke="#f15a24" stroke-linejoin="round" stroke-width="9.788"/><circle cx="305.776" cy="391.344" r="12.013" stroke="#f15a24" stroke-linejoin="round" stroke-width="9.788"/><path stroke="#f15a24" stroke-linejoin="round" stroke-width="6.268" d="M386.371 405.116h-41.559"/><path stroke="#000" stroke-width="17.836" d="M401.122 560.338H280.111c-24.362 0-44.111-19.749-44.111-44.111V291.111C236 266.749 255.749 247 280.111 247h246.32c24.361 0 44.11 19.749 44.11 44.111v269.227M240.818 308.383l322.381-.001"/></g><path fill="#000" d="M470.271 560.179a9.187 9.187 0 0 0-2.689-6.494 9.187 9.187 0 0 0-6.494-2.689c-.071 0-.139.009-.209.01h-20.643a1.059 1.059 0 0 1-1.056-.949 1.063 1.063 0 0 1 .071-.508l30.191-75.273a8.157 8.157 0 0 0-3.744-10.236 8.153 8.153 0 0 0-3.823-.952h-31.82c-.18-.011-.358-.027-.541-.027a8.956 8.956 0 0 0-6.33 2.621 8.965 8.965 0 0 0-2.621 6.33v.003a8.929 8.929 0 0 0 2.62 6.33 8.929 8.929 0 0 0 2.905 1.939c1.086.45 2.25.68 3.426.679.141 0 .277-.014.416-.021h16.489c.181 0 .36.045.52.129.159.085.296.208.398.358a1.115 1.115 0 0 1 .111 1.033l-26.18 65.382a9.836 9.836 0 0 0-.705 3.658v8.018a9.844 9.844 0 0 0 9.843 9.843h30.687a9.188 9.188 0 0 0 3.513-.698 9.196 9.196 0 0 0 4.967-4.968 9.16 9.16 0 0 0 .698-3.512v-.003zm53.147-74.33a46.737 46.737 0 0 0-.978-10.405c-.559-2.883-1.677-5.18-3.354-6.892-1.583-1.802-3.819-3.063-6.706-3.784-2.795-.81-6.381-1.216-10.758-1.216-4.192 0-8.992.406-11.88 1.216a13.883 13.883 0 0 0-6.846 3.919c-1.676 1.892-2.887 4.46-3.632 7.703-.746 3.153-1.118 7.162-1.118 12.027 0 4.684.046 8.468.139 11.351.122 2.358.402 4.706.839 7.027a13.65 13.65 0 0 0 1.816 4.324 17.331 17.331 0 0 0 2.794 3.108 28.46 28.46 0 0 0 4.751 3.378 114.687 114.687 0 0 0 5.728 3.108 81.074 81.074 0 0 1 5.589 3.108 23.776 23.776 0 0 1 4.611 3.379 19.08 19.08 0 0 1 1.537 1.891c.339.4.603.858.779 1.352.161.441.296.891.404 1.348.153.712.225 1.438.214 2.165.093 1.081.14 2.568.14 4.46a55.54 55.54 0 0 1-.419 7.702 10.985 10.985 0 0 1-1.118 4.189 3.842 3.842 0 0 1-2.236 1.757c-.931.27-4.151.405-5.549.405a12.156 12.156 0 0 1-3.353-.405 4.623 4.623 0 0 1-2.096-1.892 15.725 15.725 0 0 1-1.117-4.054 65.174 65.174 0 0 1-.28-6.744 7.27 7.27 0 0 0-.039-.752h-.056a7.512 7.512 0 0 0-2.529-4.619 7.578 7.578 0 0 0-9.903 0 7.512 7.512 0 0 0-2.529 4.619h-.044c-.03.275-.043.551-.041.827l.002.19c0 .019-.003.037-.003.056 0 .032.005.062.005.093.023 1.775.048 3.368.048 4.168 0 5.315.373 9.639 1.118 12.973.838 3.242 2.142 5.81 3.912 7.702a13.455 13.455 0 0 0 6.706 3.649 39.073 39.073 0 0 0 9.92 1.081c4.472 0 10.253-.406 13.233-1.217a13.166 13.166 0 0 0 7.126-4.594c1.863-2.252 3.167-5.36 3.912-9.324.838-4.054 1.258-9.234 1.258-15.54 0-4.595-.14-8.288-.42-11.081a24.267 24.267 0 0 0-1.257-6.892 11.207 11.207 0 0 0-2.655-4.324 21.962 21.962 0 0 0-4.052-3.243 39.685 39.685 0 0 0-4.191-2.297 64.553 64.553 0 0 0-5.03-2.568 123.409 123.409 0 0 1-5.03-2.703 42.095 42.095 0 0 1-4.052-2.837 13.739 13.739 0 0 1-1.676-1.622 5.85 5.85 0 0 1-.839-2.027 21.257 21.257 0 0 1-.419-3.108v-5.135a47.797 47.797 0 0 1 .279-5.811 9.278 9.278 0 0 1 .979-3.378 3.373 3.373 0 0 1 2.095-1.486c.839-.271 3.171-.406 4.475-.406 2.98 0 4.843.856 5.588 2.568a8.03 8.03 0 0 1 .973 3.513c.031.984.046 2.263.05 3.604h.053l-.003.054c0 1.998.797 3.914 2.216 5.326a7.58 7.58 0 0 0 5.35 2.206 7.583 7.583 0 0 0 5.35-2.206 7.517 7.517 0 0 0 2.216-5.326c0-.018-.003-.035-.003-.054h.003l.003-3.604zm55.939-13.915a8.829 8.829 0 1 0-17.516 1.52v31.461a1.97 1.97 0 0 1-1.969 1.969h-10.916a1.97 1.97 0 0 1-1.969-1.969v-32.783c0-.033-.004-.066-.005-.099.001-.033.005-.066.005-.099a8.829 8.829 0 1 0-17.656 0c0 .033.005.066.005.099.001.033-.005.066-.005.099v88.421l.001.017-.001.016a8.825 8.825 0 0 0 8.828 8.828 8.828 8.828 0 0 0 8.828-8.828l-.001-.016.001-.017v-35.025a1.97 1.97 0 0 1 1.969-1.969h10.916a1.97 1.97 0 0 1 1.969 1.969v33.505a8.799 8.799 0 0 0 1.917 7.212 8.8 8.8 0 0 0 6.771 3.136l.035-.002.035.002a8.765 8.765 0 0 0 6.193-2.565 8.754 8.754 0 0 0 2.565-6.193v-88.561c0-.022-.003-.042-.003-.064 0-.021.003-.042.003-.064z"/></svg>