<svg xmlns="http://www.w3.org/2000/svg" width="816" height="816" fill="none"><g stroke="#fff" stroke-linecap="round"><path stroke-linejoin="round" stroke-width="6.268" d="m320.736 337.538-58.198 69.311"/><circle cx="277.301" cy="353.08" r="12.013" stroke-linejoin="round" stroke-width="9.788"/><circle cx="305.776" cy="391.343" r="12.013" stroke-linejoin="round" stroke-width="9.788"/><path stroke-linejoin="round" stroke-width="6.268" d="M386.371 405.116h-41.559"/><path stroke-width="17.836" d="M401.122 560.338H280.111c-24.362 0-44.111-19.749-44.111-44.111V291.111C236 266.749 255.749 247 280.111 247h246.32c24.361 0 44.11 19.749 44.11 44.111v269.227M240.818 308.383l322.381-.001"/></g><path fill="#fff" d="M470.271 560.18a9.183 9.183 0 0 0-9.183-9.184c-.071 0-.139.009-.209.011h-20.643a1.07 1.07 0 0 1-.498-.124 1.073 1.073 0 0 1-.558-.825 1.066 1.066 0 0 1 .071-.509l30.191-75.273a8.151 8.151 0 0 0-3.744-10.236 8.153 8.153 0 0 0-3.823-.952h-31.82c-.18-.01-.358-.027-.541-.027a8.975 8.975 0 0 0-3.426.681 8.967 8.967 0 0 0-4.844 4.845 8.947 8.947 0 0 0-.681 3.425v.004a8.936 8.936 0 0 0 5.525 8.269c1.086.449 2.25.68 3.426.679.141 0 .277-.015.416-.021h16.489a1.11 1.11 0 0 1 1.029 1.519l-26.18 65.382a9.845 9.845 0 0 0-.705 3.659v8.017a9.844 9.844 0 0 0 9.843 9.844h30.687a9.19 9.19 0 0 0 6.49-2.689 9.164 9.164 0 0 0 2.688-6.49v-.002zm53.147-74.329a46.752 46.752 0 0 0-.978-10.406c-.559-2.882-1.677-5.18-3.354-6.891-1.583-1.802-3.819-3.063-6.706-3.784-2.795-.811-6.381-1.216-10.758-1.216-4.192 0-8.992.405-11.88 1.216a13.875 13.875 0 0 0-6.846 3.919c-1.676 1.892-2.887 4.459-3.632 7.702-.746 3.153-1.118 7.162-1.118 12.027 0 4.685.046 8.468.139 11.351.122 2.358.402 4.706.839 7.027a13.63 13.63 0 0 0 1.816 4.324 17.297 17.297 0 0 0 2.794 3.108 28.523 28.523 0 0 0 4.751 3.379c1.863 1.081 3.772 2.117 5.728 3.108s3.819 2.027 5.589 3.107a23.818 23.818 0 0 1 4.611 3.379 19.118 19.118 0 0 1 1.537 1.892c.339.4.603.858.779 1.351.161.442.296.892.404 1.349a9.6 9.6 0 0 1 .214 2.165c.093 1.081.14 2.567.14 4.459a55.555 55.555 0 0 1-.419 7.703 10.993 10.993 0 0 1-1.118 4.188 3.847 3.847 0 0 1-2.236 1.758c-.931.269-4.151.405-5.549.405a12.194 12.194 0 0 1-3.353-.405 4.628 4.628 0 0 1-2.096-1.892 15.736 15.736 0 0 1-1.117-4.054 65.182 65.182 0 0 1-.28-6.745 7.25 7.25 0 0 0-.039-.751h-.056a7.515 7.515 0 0 0-2.529-4.62 7.583 7.583 0 0 0-9.903 0 7.515 7.515 0 0 0-2.529 4.62h-.044c-.03.274-.043.55-.041.827l.002.19c0 .019-.003.037-.003.056 0 .031.005.062.005.093.023 1.774.048 3.368.048 4.167 0 5.316.373 9.64 1.118 12.973.838 3.243 2.142 5.81 3.912 7.703a13.446 13.446 0 0 0 6.706 3.648 39.073 39.073 0 0 0 9.92 1.081c4.471 0 10.253-.405 13.233-1.216a13.168 13.168 0 0 0 7.126-4.595c1.863-2.252 3.167-5.36 3.912-9.324.838-4.053 1.258-9.233 1.258-15.54 0-4.594-.14-8.288-.42-11.08a24.26 24.26 0 0 0-1.257-6.892 11.21 11.21 0 0 0-2.655-4.325 22.003 22.003 0 0 0-4.052-3.243 40.05 40.05 0 0 0-4.191-2.297 64.553 64.553 0 0 0-5.03-2.568c-1.77-.9-3.446-1.801-5.03-2.702a42.283 42.283 0 0 1-4.052-2.838 13.73 13.73 0 0 1-1.676-1.621 5.858 5.858 0 0 1-.839-2.027 21.294 21.294 0 0 1-.419-3.108v-5.136a47.58 47.58 0 0 1 .279-5.81 9.283 9.283 0 0 1 .979-3.379 3.377 3.377 0 0 1 2.095-1.486c.839-.27 3.171-.405 4.475-.405 2.98 0 4.843.855 5.588 2.567a8.033 8.033 0 0 1 .973 3.514c.031.983.046 2.263.05 3.604h.052l-.002.054c0 1.997.797 3.913 2.216 5.326a7.587 7.587 0 0 0 10.7 0 7.52 7.52 0 0 0 2.216-5.326l-.003-.054h.003l.003-3.604zm55.939-13.916a8.833 8.833 0 0 0-2.845-6.537 8.823 8.823 0 0 0-12.995 1.127 8.83 8.83 0 0 0-1.676 6.929v31.462a1.965 1.965 0 0 1-1.969 1.968h-10.916a1.969 1.969 0 0 1-1.969-1.968v-32.783c0-.034-.004-.066-.005-.1.001-.033.005-.065.005-.099a8.83 8.83 0 0 0-8.828-8.828 8.831 8.831 0 0 0-8.828 8.828c0 .034.005.066.005.099.001.034-.005.066-.005.1v88.421l.001.016-.001.017a8.827 8.827 0 0 0 17.656 0v-35.058a1.972 1.972 0 0 1 1.969-1.969h10.916a1.969 1.969 0 0 1 1.969 1.969v33.505a8.793 8.793 0 0 0 1.917 7.211 8.791 8.791 0 0 0 6.771 3.136l.035-.001.035.001a8.764 8.764 0 0 0 6.193-2.565 8.764 8.764 0 0 0 2.565-6.193v-88.56c0-.022-.003-.043-.003-.064 0-.022.003-.043.003-.064z"/></svg>