<svg fill="none" height="439" viewBox="0 0 439 439" width="439" xmlns="http://www.w3.org/2000/svg"><path d="m380.433 197.312c2.349.964 8.951 2.007 8.951 6.141 3.929 1.192 6.616 4.814 6.616 8.92v40.544c0 5.154-2.458 9.999-6.616 13.044-3.313 5.38-9.257 8.998-16.046 8.998h-10.361c-6.461 0-12.17-3.266-15.553-8.246-3.383 4.98-9.092 8.246-15.553 8.246h-10.36c-4.041 0-7.777-1.269-10.854-3.454-3.078 2.162-6.814 3.454-10.854 3.454h-41.467c-1.926 0-3.853-.305-5.662-.893-1.809.588-3.712.893-5.662.893h-51.85c-4.581 0-8.81-1.645-12.076-4.393-.799.094-1.621.141-2.443.141h-27.37c-4.276 0-8.247-1.292-11.559-3.501-4.229 2.279-9.045 3.524-14.073 3.524-5.216 0-10.361-1.362-14.871-3.947-3.736 3.195-8.529 4.981-13.5328 4.981h-.0003c-.4932 0-1.01 0-1.5033-.047-3.1482 2.161-6.7897 3.289-10.6191 3.289h-25.8196c-10.3607 0-18.7949-8.434-18.7949-18.795v-8.599c0-6.625 3.4301-12.428 8.5987-15.787v-11.465c-5.1686-3.36-8.5987-9.186-8.5987-15.788v-8.599c0-10.36 8.4342-18.795 18.7949-18.795h25.8431c6.7896 0 12.7805 3.618 16.07 9.045 1.879-.375 3.782-.563 5.709-.563 5.239 0 10.384 1.386 14.918 3.994 3.313-2.89 7.448-4.676 11.911-5.052.588-.047 1.199-.07 1.809-.07 2.115 0 4.206.329 6.203.963h57.348v.094h45.906c4.041 0 7.777 1.269 10.854 3.454 3.078-2.162 6.814-3.454 10.854-3.454h34.019v-1.95c0-10.361 8.434-18.795 18.795-18.795h10.361c10.361 0 18.795 8.434 18.795 18.795v1.927h12.31c7.871 0 14.637 4.863 17.433 11.746z" fill="#fff"/><g fill="#000"><path d="m61.2949 256.211v-8.599h8.5987v-43.04h-8.5987v-8.599h25.8196v8.599h-8.5987v43.04h8.5987v8.599z"/><path d="m226.291 225.105v-10.361h-31.105v-10.36h51.85v10.36h-10.361v10.361zm-31.105 31.106v-10.361h10.36v-10.361h10.361v10.361h31.106v10.361zm20.721-20.722v-10.361h10.361v10.361z"/><path d="m258.36 225.105v-10.361h10.361v10.361zm0 31.106v-10.361h41.466v10.361zm10.361-41.467v-10.36h41.466v10.36zm0 20.745v-10.361h31.105v10.361zm31.105 10.361v-10.361h10.361v10.361z"/><path d="m321.535 256.211v-72.572h10.36v20.745h31.106v10.36h-31.106v41.467zm41.466 0v-41.467h10.361v41.467z"/></g><g stroke="#f15a24" stroke-linecap="round" stroke-linejoin="round"><path d="m140.965 205.394-38.295 45.531" stroke-width="4.12206"/><path d="m112.326 223.555c4.386 0 7.941-3.556 7.941-7.941 0-4.386-3.555-7.941-7.941-7.941s-7.941 3.555-7.941 7.941c0 4.385 3.555 7.941 7.941 7.941z" stroke-width="6.4375"/><path d="m131.075 248.74c4.385 0 7.941-3.555 7.941-7.941s-3.556-7.941-7.941-7.941c-4.386 0-7.941 3.555-7.941 7.941s3.555 7.941 7.941 7.941z" stroke-width="6.4375"/><path d="m184.1 249.891h-27.371" stroke-width="4.12206"/></g></svg>