<svg fill="none" height="439" viewBox="0 0 439 439" width="439" xmlns="http://www.w3.org/2000/svg"><path d="m393.87 159.417h-156.023c-5.183 0-9.949 2.853-12.419 7.41-2.435 1.322-4.418 3.305-5.705 5.705-2.435 1.322-4.418 3.305-5.705 5.706-.07.034-.14.069-.209.104-2.157-2.192-4.94-3.618-7.966-4.07-1.009-6.853-6.993-12.002-13.95-12.002h-23.691c-6.957 0-12.906 5.149-13.949 12.002-.279.035-.557.104-.835.139-.279-.07-.557-.104-.835-.139-1.009-6.853-6.993-12.002-13.95-12.002h-23.69c-6.958 0-12.907 5.149-13.95 12.002-1.2875.174-2.505.556-3.6182 1.043v-2.226c0-7.758-6.3314-14.089-14.089-14.089h-38.1968c-7.7577 0-14.089 6.331-14.089 14.089v12.732c0 7.201 5.6008 13.359 12.7323 14.02v35.761c-7.1663.696-12.7323 6.819-12.7323 14.02v12.732c0 7.758 6.3313 14.089 14.089 14.089h38.2316c7.7576 0 14.089-6.331 14.089-14.089v-12.732c0-7.201-5.6008-13.359-12.7323-14.02v-35.657c1.5306-.139 3.0265-.557 4.3832-1.148v13.185c0 6.957 5.1486 12.906 12.0015 13.949.905 6.088 5.74 10.924 11.863 11.863.904 6.088 5.74 10.923 11.862 11.863.731 4.939 4.071 9.149 8.732 10.992.626 7.201 6.784 12.837 14.02 12.837h11.862c7.236 0 13.393-5.636 14.019-12.837 4.662-1.843 8.036-6.053 8.767-11.027 6.088-.905 10.923-5.74 11.863-11.863 6.087-.904 10.923-5.74 11.862-11.862.244-.035.487-.07.765-.14v39.276c0 7.757 6.332 14.089 14.089 14.089h156.023c5.183 0 9.949-2.853 12.419-7.41 2.435-1.322 4.418-3.305 5.705-5.705 2.435-1.322 4.418-3.305 5.705-5.705 4.558-2.47 7.41-7.201 7.41-12.42v-74.376c-.069-7.757-6.401-14.089-14.158-14.089z" fill="#fff"/><g fill="#000"><path d="m45.085 262.35v-12.732h12.7322v-63.731h-12.7322v-12.732h38.2315v12.732h-12.7322v63.731h12.7322v12.732z"/><path d="m220.659 265.03v-74.376h5.705v-5.705h5.706v-5.705h5.705v-5.705h156.022v74.376h-5.705v5.705h-5.705v5.705h-5.705v5.705zm150.317-5.705v-62.931h-144.577v62.931zm5.74-74.376h5.706v-5.705h-144.578v5.705h-5.705v5.705h144.577zm5.706 62.931h5.705v-62.931h-5.705v5.705h-5.706v62.931h5.706z"/><path d="m284.395 224.99v-11.445h5.705v-5.705h17.15v5.705h5.705v5.705h-5.705v-5.705h-17.15v11.445zm5.705 22.891v-5.706h-5.705v-5.705h5.705v5.705h17.15v-11.445h5.705v11.445h-5.705v5.706zm0-17.151v-5.705h17.15v5.705z"/><path d="m325.858 246.454v-40.04h5.705v17.15h17.15v-17.15h5.706v40.04h-5.706v-17.254l-17.15.104v17.15z"/><path d="m242.919 249.307v-11.446h5.706v-5.705h5.74v-5.74h5.705v-5.705h5.74v-5.635h-22.891v-5.81h28.596v11.445h-5.705v5.705h-5.74v5.74h-5.705v5.705h-5.74v5.74h22.89v5.706z"/></g><path d="m191.894 188.253v-11.827h-11.862-11.828v11.827h-11.863v11.863h-5.809v-11.863h-11.863v-11.827h-11.828-11.862v11.827h-11.863v11.863 11.828h11.863v11.862h11.758.104v11.863h11.724.104v11.828h7.201 1.635v11.862h11.828v-11.862h1.67 7.201v-11.828h11.828v-11.863h11.862v-11.862h11.828v-11.828-11.863z" fill="#f15a24"/></svg>