<svg fill="none" height="439" viewBox="0 0 439 439" width="439" xmlns="http://www.w3.org/2000/svg"><path d="m415.489 255.393c0-6.664-4.219-12.58-10.489-14.749l-7.848-2.681c.394-.592.789-1.183 1.104-1.814l.631-.237c6.034-2.366 9.938-8.045 9.938-14.512v-9.149c3.786-2.958 5.994-7.454 5.994-12.304v-23.583c0-5.284-2.603-10.056-6.822-12.895v-8.124c0-6.743-4.299-12.698-10.687-14.788-6.389-2.09-13.408.118-17.391 5.521l-.513.67c-2.287-5.797-7.927-9.898-14.512-9.898h-10.609c-.985-17.983-15.892-32.535-34.111-32.85 0 0-.04 0-.079 0-.04 0-.119 0-.158 0-.197 0-.394 0-.592 0h-33.559c-.158 0-.316 0-.513 0h-3.904c-.197 0-.355 0-.513 0h-26.5c-.158 0-.316 0-.513 0h-3.904c-.197 0-.355 0-.513 0h-130.571c-.197 0-.473 0-.749 0-.119 0-.197 0-.316 0h-.749c-.749 0-1.459.079-2.169.197-17.47 1.893-30.957 16.839-30.957 34.506v21.887l-3.8252-6.507c-3.5492-6.033-10.7659-8.991-17.5094-7.138-.9464.237-1.814.592-2.6816 1.026l-1.4197-1.893c-4.0224-5.403-11.0025-7.651-17.3911-5.521-6.3885 2.09-10.687 8.045-10.687 14.788v8.124c-4.2196 2.839-6.8224 7.611-6.8224 12.895v23.583c0 4.85 2.2084 9.346 5.9942 12.304v9.149c0 6.467 3.9042 12.146 9.9378 14.512l.6309.237c.3155.631.7099 1.222 1.1042 1.814l-7.8476 2.681c-6.2703 2.169-10.4899 8.085-10.4899 14.749v25.515c0 3.865 1.4592 7.532 3.983 10.372-1.3013 2.326-2.0112 4.968-2.0112 7.611v19.954c0 7.02 4.7323 13.171 11.4758 15.025 1.3408.355 2.721.552 4.1012.552 5.4816 0 10.6477-2.958 13.4476-7.69l5.3632-9.109c1.4197-2.406 2.1296-5.127 2.1296-7.888v-7.887c1.0647-.434 2.0506-.946 2.997-1.577v5.126c0 6.705 4.2591 12.62 10.6082 14.749 1.6169.553 3.2731.829 4.9689.829 3.4703 0 6.8617-1.184 9.5434-3.274.3154.513.6704 1.026 1.0253 1.538 6.5069 9.071 17.0758 14.473 28.1968 14.473h201.003c9.622 0 18.85-4.022 25.396-11.042l.119-.118c.118-.118.236-.237.315-.355 1.262-1.42 2.406-2.918 3.431-4.496 2.721 2.13 6.113 3.313 9.622 3.313 1.696 0 3.352-.276 4.969-.828 6.349-2.13 10.608-8.084 10.608-14.749v-5.127c.947.631 1.933 1.183 2.997 1.578v7.847c0 2.761.75 5.521 2.13 7.888l5.363 9.109c2.8 4.732 7.927 7.69 13.448 7.69 1.38 0 2.76-.197 4.101-.552 6.783-1.854 11.476-8.005 11.476-15.025v-19.954c0-2.682-.71-5.324-2.011-7.611 2.484-2.8 3.983-6.507 3.983-10.372v-25.515z" fill="#fff"/><path d="m397.929 298.889-5.324-6.902v17.746l5.324 9.071z" fill="#f15a24"/><path d="m384.361 229.048v-3.826l-25.199 6.704v2.091z" fill="#f15a24"/><path d="m358.454 305.393-14.315-18.89v-13.565l14.315 12.737z" fill="#000"/><path d="m351.278 244.782-12.461-1.065v-12.777l12.461-4.338z" fill="#000"/><path d="m399.895 280.905-13.447-10.45v-19.679l13.447 4.614z" fill="#000"/><path d="m380.262 269.469-13.762-6.152v-9.07l13.762 2.799z" fill="#000"/><path d="m399.185 199.942-11.712 7.532v-18.534l11.712-12.58z" fill="#000"/><path d="m371.624 182.748-9.307 11.87v-16.76l9.307-15.853z" fill="#000"/><path d="m374.697 279.484 8.045 7.887v-11.555l-8.045-6.073z" fill="#000"/><path d="m385.151 224.512 8.045-3.116v-11.554l-8.045 4.968z" fill="#000"/><path d="m371.786 245.609 7.059 1.972v-10.805l-7.059-.316z" fill="#000"/><path d="m371.542 204.989 6.822-5.797v-10.568l-6.822 7.413z" fill="#f15a24"/><path d="m347.295 271.32-3.707-3.667v-11.476l3.707 2.366z" fill="#000"/><path d="m340.589 232.198-3.313.907v-10.924l3.313-2.09z" fill="#000"/><path d="m392.375 172.376-6.389 6.429v-14.868l6.389-8.597z" fill="#000"/><path d="m40.2505 298.889 5.3633-6.902v17.746l-5.3633 9.071z" fill="#f15a24"/><path d="m53.8105 229.048v-3.826l24.6079 6.547-1.0647 1.893z" fill="#f15a24"/><path d="m79.7617 305.393 14.3152-18.89v-13.565l-14.3152 12.737z" fill="#000"/><path d="m38.2754 280.905 13.4869-10.45v-19.679l-13.4869 4.614z" fill="#000"/><path d="m57.9546 269.469 13.7631-6.152v-9.07l-13.7631 2.799z" fill="#000"/><path d="m39.0186 199.942 11.7124 7.532v-18.534l-11.7124-12.58z" fill="#000"/><path d="m66.5488 182.748 9.3462 11.87v-16.76l-9.3462-15.853z" fill="#000"/><path d="m63.5097 279.484-8.0449 7.887v-11.555l8.0449-6.073z" fill="#000"/><path d="m53.0687 224.512-8.0448-3.116v-11.554l8.0448 4.968z" fill="#000"/><path d="m66.4373 245.609-7.0984 1.972v-10.805l7.0984-.316z" fill="#000"/><path d="m66.635 204.989-6.7829-5.797v-10.568l6.7829 7.413z" fill="#f15a24"/><g fill="#000"><path d="m90.9233 271.32 3.6676-3.667v-11.476l-3.6676 2.366z"/><path d="m97.5806 232.198 3.3524-.907v-9.11l-3.3524-2.09z"/><path d="m45.8438 172.376 6.3885 6.429v-14.868l-6.3885-8.597z"/><path d="m186.266 164.763v-3.943h.788v3.943zm.788-3.943v-.789h2.366v.789zm0 4.732v-.789h2.366v.789zm.789-2.366v-.789h.789v.789zm1.577 1.577v-3.943h.789v3.943z"/><path d="m191.858 165.552v-.789h.789v-3.155h-.789v-.788h.789v-.789h.789v4.732h.789v.789z"/><path d="m195.887 164.763v-3.943h.789v3.943zm.789-3.943v-.789h2.366v.789zm0 4.732v-.789h2.366v.789zm.789-2.366v-.789h.788v.789zm1.577 1.577v-3.943h.789v3.943z"/><path d="m200.696 164.763v-3.943h.789v3.943zm.789-3.943v-.789h2.366v.789zm0 4.732v-.789h2.366v.789zm.789-2.366v-.789h.788v.789zm1.577 1.577v-3.943h.789v3.943z"/><path d="m205.508 164.763v-3.943h.789v3.943zm.789-3.943v-.789h2.366v.789zm0 4.732v-.789h2.366v.789zm.789-2.366v-.789h.788v.789zm1.617 1.577v-3.943h.788v3.943z"/><path d="m211.153 165.552v-.789h.789v-3.155h-.789v-.788h.789v-.789h.789v4.732h.788v.789z"/><path d="m220.775 165.552v-.789h.789v-3.155h-.789v-.788h.789v-.789h.788v4.732h.789v.789z"/><path d="m224.789 164.763v-3.943h.789v3.943zm.789-3.943v-.789h2.366v.789zm0 4.732v-.789h2.366v.789zm.788-2.366v-.789h.789v.789zm1.578 1.577v-3.943h.789v3.943z"/><path d="m229.6 164.763v-3.943h.788v3.943zm.788-3.943v-.789h2.366v.789zm0 4.732v-.789h2.366v.789zm.789-2.366v-.789h.789v.789zm1.617 1.577v-3.943h.789v3.943z"/><path d="m235.244 165.552v-.789h.788v-3.155h-.788v-.788h.788v-.789h.789v4.732h.789v.789z"/><path d="m239.272 164.763v-3.943h.789v3.943zm.789-3.943v-.789h2.366v.789zm0 4.732v-.789h2.366v.789zm.788-2.366v-.789h.789v.789zm1.578 1.577v-3.943h.789v3.943z"/><path d="m244.865 165.552v-.789h.788v-3.155h-.788v-.788h.788v-.789h.789v4.732h.789v.789z"/><path d="m249.676 165.552v-.789h.788v-3.155h-.788v-.788h.788v-.789h.789v4.732h.789v.789z"/></g><path d="m193.885 223.398-11.318 13.448c-.197.276-.158.631.079.868.118.118.237.118.394.118.158 0 .355-.079.474-.197l11.318-13.448c.197-.236.157-.631-.119-.867-.236-.198-.631-.158-.828.078z" fill="#f15a24"/><path d="m185.921 223.52c-1.814 0-3.312 1.459-3.312 3.273s1.459 3.313 3.312 3.313c1.814-.04 3.274-1.499 3.274-3.313 0-1.774-1.46-3.273-3.274-3.273zm0 4.693c-.749-.04-1.38-.631-1.38-1.38 0-.75.631-1.381 1.38-1.381.75 0 1.381.631 1.381 1.381 0 .749-.631 1.38-1.381 1.38z" fill="#f15a24"/><path d="m191.437 230.974c-1.853 0-3.312 1.459-3.312 3.312 0 1.814 1.459 3.313 3.312 3.313 1.814 0 3.273-1.459 3.273-3.313.04-1.814-1.459-3.312-3.273-3.312zm0 4.692c-.789 0-1.38-.631-1.38-1.38s.631-1.38 1.38-1.38c.789 0 1.38.631 1.38 1.38 0 .71-.591 1.38-1.38 1.38z" fill="#f15a24"/><path d="m207.102 236.297h-8.085c-.355 0-.591.276-.591.631s.276.592.591.592h8.085c.355 0 .591-.276.591-.592 0-.355-.236-.631-.591-.631z" fill="#f15a24"/><path d="m329.862 225.887h-4.14v4.141h4.14z" fill="#000"/><g fill="#f15a24"><path d="m263.066 263.153h-4.141v4.141h4.141z"/><path d="m268.182 259.013h.71 6.468v1.144h.118v7.138h4.141v-7.612-.67h-4.141v-4.141h-.118-6.468-.71-5.126v4.141z"/><path d="m275.485 250.726h.829 3.312v-1.972-2.169h-4.141z"/><path d="m268.892 242.448h-.71-5.126v4.141h5.126.71 6.586v-4.141z"/><path d="m263.066 246.585h-4.141v8.282h4.141z"/><path d="m268.182 267.29h-5.126v4.141h4.811.749 6.862v-4.141h-6.586z"/><path d="m293.07 257.985 3.036-.04h.237.473l8.676-.039v12.501h4.141v-28.985h-4.141v12.422h-8.676-.473-.237-3.036v-12.422h-4.141v28.985h4.141z"/><path d="m237.228 260.036h-4.141v4.14h4.141z"/><path d="m241.373 255.892h-4.141v4.141h4.141z"/><path d="m245.516 251.755h-4.141v4.141h4.141z"/><path d="m228.945 247.694h16.563v4.062h4.102v-8.282h-20.665z"/><path d="m228.945 268.905v.04.354.355.04 2.76h20.665v-2.839-.039-.355-.355-.04-.512h-16.524v-4.141h-4.141z"/></g><path d="m338.531 152.416.197-13.684c0-10.451-8.439-18.969-18.85-19.166l-.631.789h.315c10.135 0 18.377 8.242 18.377 18.377l-.197 13.684h-1.498v5.205h-5.206v5.206h-3.904v5.205h-2.406v-17.115c0-9.267-7.453-16.839-16.72-17.036l-.631.749h.315c8.952 0 16.248 7.296 16.248 16.248v17.115h-.749v20.782h.749v7.966h-1.262v7.69h-1.617v-2.169h-3.904v-10.253h-4.575v19.126h-1.853v-48.111c0-8.124-6.507-14.749-14.591-14.907l-.631.75h.315c7.809 0 14.158 6.349 14.158 14.157v48.111h-.276v6.468h-12.935v-42.393c0-6.941-5.561-12.58-12.462-12.778l-.592.71h.316c6.625 0 12.028 5.403 12.028 12.028v42.393h-13.25v-30.247c0-5.757-4.615-10.49-10.333-10.608l-.591.71h.276c5.481 0 9.938 4.456 9.938 9.938v30.247h-13.251v-18.101c0-4.575-3.667-8.361-8.202-8.518l-.552.67h.276c4.298 0 7.808 3.51 7.808 7.808v18.101h-13.211v-5.915c0-3.431-2.721-6.27-6.113-6.428h-65.305l.316.789h64.713c3.116 0 5.64 2.524 5.64 5.639v3.825h-75.993v-3.825c0-3.115 2.524-5.639 5.64-5.639h.315l-.591-.789c-3.431.158-6.152 2.958-6.152 6.428v51.582c0 1.971.867 3.786 2.405 5.008l-10.016 8.084c-.04-.039-.119-.039-.158-.079-2.721-1.301-4.496-4.061-4.496-7.098v-69.683c0-4.298 3.51-7.808 7.808-7.808h.276l-.512-.67c-4.575.157-8.242 3.904-8.242 8.518v69.682c0 3.234 1.853 6.192 4.732 7.651l-9.78 7.887c-.079-.039-.158-.039-.237-.079-4.14-1.262-7.059-5.166-7.059-9.504v-87.783c0-5.482 4.457-9.938 9.938-9.938h.276l-.552-.71c-5.757.158-10.371 4.851-10.371 10.608v87.784c0 4.574 2.997 8.676 7.335 10.095l-9.544 7.69c-.118 0-.197-.039-.315-.039-5.64-1.104-9.741-6.073-9.741-11.791v-1.183l.079-.04v-15.774l7.138.789v-8.873l-7.217-4.299v-2.8l.079-5.245-.079-.039v-68.381c0-6.626 5.403-12.028 12.028-12.028h.276l-.552-.71c-6.901.158-12.501 5.836-12.501 12.777v67.987l-12.265-6.783v-73.35c0-7.808 6.35-14.158 14.158-14.158h.276l-.552-.749c-8.085.158-14.631 6.783-14.631 14.907v41.407h-.986v-7.69h-2.287v7.69h-1.617v-2.169h-3.904v-10.253h-3.47v-41.131c0-8.952 7.295-16.248 16.247-16.248h.316l-.592-.749c-9.267.158-16.721 7.729-16.721 17.036v41.131h-.355v19.127h-2.878v12.225h3.233v13.053h-3.233v-3.904h-1.302v-1.302h-7.69v-92.516c0-10.134 8.242-18.377 18.377-18.377h.316l-.592-.788c-10.411.158-18.8499 8.676-18.8499 19.165v92.516h-21.4136v1.302h28.5905v22.084h-28.5905v1.301h2.6027v5.206h18.8109v37.779c0 4.062 1.2619 7.926 3.5889 11.16 3.588 5.008 9.425 7.966 15.577 7.966h201.003c5.284 0 10.411-2.208 13.999-6.073l.119-.118c3.273-3.55 5.048-8.124 5.048-12.935l.512-110.104h-.788l-.316 67.553v-38.765h-13.369v-6.468h1.617v-6.704h-1.341v-7.69h-.276v-7.966h36.202v-5.205h1.302v-5.245h1.301v-5.206h1.301v-20.782zm-219.498 164.88h-.474c-5.876 0-11.475-2.879-14.906-7.651-2.248-3.115-3.431-6.822-3.431-10.726v-37.779h12.225v31.824c0 8.913 6.862 16.287 15.735 16.997zm9.977-8.045c-.158 0-.276 0-.434 0-8.636-.434-15.419-7.572-15.419-16.247v-80.449h2.247v7.296h5.088v-8.676h4.89v24.844 51.543h.039c.118 3.628 1.538 6.94 3.786 9.503 2.287 2.524 5.442 4.299 9.031 4.812zm10.056-8.124c-.118 0-.237-.039-.355-.039-7.138-.789-12.501-6.822-12.541-14l12.265-6.783v.789c0 5.994 4.219 11.2 10.016 12.462zm182.034-89.952h2.879v6.467h-2.879zm-7.532 1.38h2.445v5.087h-2.445zm-37.187 71.615-.434-.315h1.064c-.157.078-.315.157-.473.236-.079.04-.118.04-.157.079zm-59.391-4.456v-45.509h104.584v45.509zm70.354 12.974-10.333-8.045c.474-.236.947-.512 1.341-.828h17.431c-.947 4.101-3.983 7.493-8.203 8.794-.079.04-.158.04-.236.079zm10.726 8.321-10.017-7.808c4.378-1.42 7.533-5.009 8.479-9.386h13.526v3.194c0 6.862-4.89 12.699-11.594 13.921-.157.079-.276.079-.394.079zm10.569 8.203-9.78-7.572c6.94-1.42 11.909-7.493 11.909-14.591v-3.194h13.211v9.149c0 8.399-6.546 15.537-14.906 16.208-.158 0-.316 0-.434 0zm29.419-37.78-.119 27.526c0 4.654-1.735 9.11-4.929 12.541l-.079.118c-3.47 3.668-8.321 5.758-13.329 5.758h-.513l-9.504-7.375c8.558-.907 15.222-8.281 15.222-16.918v-9.149h.947v-3.904c.079-.079.158-.157.236-.236h3.865v-3.707c.158-.158.316-.276.434-.434h3.707v-3.549c.236-.197.434-.395.631-.592h3.431zm-8.203-49.649v4.141h4.141v45.508h-4.141v4.141h-4.141v-45.509h-104.583v-4.14h-4.141v4.14h-4.14v38.884h-28.985c-1.262 0-2.485-.394-3.471-1.183-1.38-1.065-2.169-2.682-2.169-4.456v-46.929h75.993v1.302h-28.946v3.154l-.789.986h-3.352v4.141h4.141v-4.18zm28.473-35.571h-32.495v-15.577h32.495zm1.301-18.18h-29.892v-2.603h29.892zm1.301-5.205h-27.289v-2.603h27.289zm1.302-5.206h-23.386v-2.603h23.386z" fill="#000"/><path d="m84.4967 244.263h-2.6027v2.603h2.6027z" fill="#f15a24"/><path d="m88.3967 249.465h-2.6028v2.603h2.6028z" fill="#f15a24"/><path d="m88.3967 244.263h-2.6028v2.603h2.6028z" fill="#f15a24"/><path d="m77.9869 232.59h-1.3014v22.084h1.3014z" fill="#000"/><path d="m84.4967 249.465h-2.6027v2.603h2.6027z" fill="#f15a24"/><path d="m96.2024 236.451h-15.6165v3.904h15.6165z" fill="#000"/><path d="m97.5036 249.465h-2.6027v2.603h2.6027z" fill="#f15a24"/><path d="m102.712 244.263h-2.603v2.603h2.603z" fill="#f15a24"/><path d="m102.712 249.465h-2.603v2.603h2.603z" fill="#f15a24"/><path d="m93.6052 244.263h-2.6028v2.603h2.6028z" fill="#f15a24"/><path d="m97.5036 244.263h-2.6027v2.603h2.6027z" fill="#f15a24"/><path d="m93.6052 249.465h-2.6028v2.603h2.6028z" fill="#f15a24"/><path d="m199.577 177.783v-1.341h1.34v1.341zm0 8.045v-1.341h1.34v1.341zm1.34-6.704v-1.341h1.341v1.341zm0 5.363v-1.341h1.341v1.341zm1.341-4.022v-1.341h1.341v1.341zm0 2.681v-1.341h1.341v1.341zm1.341-1.341v-1.34h1.341v1.34z" fill="#000"/><path d="m210.143 177.783v-1.341h1.34v1.341zm0 8.045v-1.341h1.34v1.341zm1.38-6.704v-1.341h1.341v1.341zm0 5.363v-1.341h1.341v1.341zm1.341-4.022v-1.341h1.34v1.341zm0 2.681v-1.341h1.34v1.341zm1.34-1.341v-1.34h1.341v1.34z" fill="#000"/><path d="m220.751 177.783v-1.341h1.341v1.341zm0 8.045v-1.341h1.341v1.341zm1.341-6.704v-1.341h1.341v1.341zm0 5.363v-1.341h1.341v1.341zm1.341-4.022v-1.341h1.341v1.341zm0 2.681v-1.341h1.341v1.341zm1.341-1.341v-1.34h1.341v1.34z" fill="#000"/><path d="m231.361 177.783v-1.341h1.341v1.341zm0 8.045v-1.341h1.341v1.341zm1.341-6.704v-1.341h1.34v1.341zm0 5.363v-1.341h1.34v1.341zm1.34-4.022v-1.341h1.341v1.341zm0 2.681v-1.341h1.341v1.341zm1.341-1.341v-1.34h1.341v1.34z" fill="#000"/><path d="m261.089 191.773-.985-.04 59.784-72.167.591.513z" fill="#000"/><path d="m172.277 191.773-54.657-71.734.631-.473 54.973 72.167z" fill="#000"/><path d="m149.964 149.138v-3.796h3.795v-18.931h-3.795v-3.796h11.34v3.796h-3.795v18.931h3.795v3.796z" fill="#000"/><path d="m197.683 127.158v-3.564h-3.517-3.518v3.564h-3.518v3.518h-1.759v-3.518h-3.518v-3.564h-3.518-3.518v3.564h-3.518v3.518 3.517h3.518v3.518h3.518v3.518h3.518v3.518h2.176.462v3.518h3.518v-3.518h.51 2.129v-3.518h3.518v-3.518h3.517v-3.518h3.518v-3.517-3.518z" fill="#f15a24"/><path d="m222.495 135.439v-4.583h-13.702v-4.582h22.82v4.582h-4.582v4.583zm-13.655 13.701v-4.583h4.582v-4.582h4.583v4.582h13.701v4.583zm9.119-9.119v-4.582h4.582v4.582z" fill="#000"/><path d="m236.619 135.438v-4.583h4.583v4.583zm0 13.701v-4.583h18.238v4.583zm4.583-18.238v-4.582h18.237v4.582zm0 9.119v-4.582h13.701v4.582zm13.655 4.536v-4.582h4.582v4.582z" fill="#000"/><path d="m264.384 149.14v-31.938h4.583v9.118h13.701v4.583h-13.701v18.237zm18.238 0v-18.237h4.582v18.237z" fill="#000"/></svg>