<svg fill="none" height="439" viewBox="0 0 439 439" width="439" xmlns="http://www.w3.org/2000/svg"><path d="m316.371 68h-193.48c-34.741 0-62.891 28.2874-62.891 62.891v176.728c0 34.741 28.2874 62.891 62.891 62.891h95.024c3.982 0 7.827-.824 11.26-2.334 3.57 1.647 7.552 2.471 11.672 2.471h24.168c3.707 0 7.415-.686 10.848-2.197.412-.137.824-.274 1.098-.549 1.373.549 2.884.961 4.257 1.236 4.12.961 8.514 1.51 12.771 1.373 3.021 0 10.024-.137 15.516-1.648 1.236-.274 2.472-.686 3.571-1.098 3.845 1.785 7.964 2.883 12.358 2.883 4.532 0 8.789-1.098 12.771-3.021.274.138.549.275.824.412 3.433 1.648 7.278 2.472 10.985 2.609h.687.274.138.824c3.432-.137 6.728-.824 9.886-2.197 3.433-1.373 6.454-3.433 9.201-6.042 2.609-2.609 4.668-5.767 6.042-9.063l.686-1.51.137-.412c.962-2.884 1.511-5.905 1.511-9.063v-211.469c-.137-34.6036-28.287-62.891-63.029-62.891z" fill="#fff"/><path d="m156.671 169.065-45.726 54.378c-.55.549-1.236.824-1.923.824-.549 0-1.098-.138-1.648-.55-1.098-.824-1.235-2.471-.274-3.433l45.726-54.377c.824-1.099 2.472-1.236 3.433-.275 1.236.824 1.374 2.335.412 3.433zm-35.977 23.893c-7.278 0-13.32-5.904-13.32-13.32 0-7.277 5.905-13.319 13.32-13.319 7.278 0 13.32 5.904 13.32 13.319 0 7.278-6.042 13.32-13.32 13.32zm0-7.69c3.021 0 5.63-2.471 5.63-5.63 0-3.021-2.471-5.63-5.63-5.63-3.021 0-5.63 2.472-5.63 5.63 0 3.159 2.609 5.63 5.63 5.63zm22.383 11.123c7.278 0 13.32 5.905 13.32 13.32 0 7.278-5.905 13.32-13.32 13.32s-13.32-5.905-13.32-13.32c0-7.278 6.042-13.32 13.32-13.32zm0 7.69c-3.021 0-5.63 2.472-5.63 5.63 0 3.021 2.472 5.63 5.63 5.63s5.63-2.472 5.63-5.63-2.609-5.63-5.63-5.63zm30.622 14.006c-1.373 0-2.472 1.099-2.472 2.472s1.099 2.472 2.472 2.472h32.681c1.373 0 2.472-1.099 2.472-2.472s-1.099-2.472-2.472-2.472zm184.279 124.272c0 .962-.274 1.923-.549 2.747v.137c-.412.824-.824 1.648-1.51 2.197-.687.687-1.373 1.099-2.197 1.511s-1.785.549-2.609.549c-.962 0-2.06-.275-2.884-.687-.961-.412-1.785-1.098-2.334-1.785-.687-.824-1.099-1.648-1.374-2.609 0-.137 0-.137 0-.274-.137-.55-.274-1.099-.274-1.786v-28.012c-.138-.138-.138-.275-.275-.412-.275-.275-.686-.412-1.098-.412h-8.789c-.412 0-.824.137-1.098.412-.275.274-.412.686-.412 1.098v27.464c0 1.785-.687 3.57-2.06 4.943-1.236 1.236-3.021 2.06-4.943 2.06-1.786 0-3.571-.687-4.944-2.06-1.236-1.236-2.06-3.021-2.06-4.943v-69.483s0 0 0-.137c0 0 0 0 0-.137 0-1.786.687-3.571 2.06-4.944 1.236-1.236 3.021-2.06 4.944-2.06 1.785 0 3.57.687 4.943 2.06 1.236 1.236 2.06 3.021 2.06 4.944v.137.137 25.816c0 .412.137.824.412 1.098.274.275.686.412 1.098.412h8.514c.412 0 .824-.137 1.099-.412.137-.137.274-.274.274-.412v-148.028h-248.6815v156.267c0 15.243 12.3585 27.601 27.6005 27.601h95.024c3.845 0 7.003 3.159 7.003 7.003 0 3.845-3.158 7.004-7.003 7.004h-95.024c-22.9317 0-41.6068-18.676-41.6068-41.608v-176.727c0-22.932 18.6751-41.607 41.6068-41.607h193.48c22.932 0 41.607 18.675 41.607 41.607zm-14.006-204.877v-6.591c0-15.242-12.358-27.601-27.601-27.601h-193.48c-15.242 0-27.6005 12.359-27.6005 27.601v6.591zm-78.957 197.6h-.138-16.203c-.137 0-.275 0-.412-.138-.137 0-.275-.137-.275-.274-.137-.138-.137-.275-.137-.412 0-.138 0-.275 0-.412l23.756-59.184c.412-.961.549-2.06.412-3.021-.137-1.098-.412-2.06-1.099-2.884-.549-.824-1.373-1.51-2.334-2.059-.961-.55-1.923-.687-3.021-.687h-24.854c-.138 0-.275 0-.412 0-.962 0-1.786.137-2.747.549-.824.412-1.648.824-2.334 1.511-.687.686-1.236 1.373-1.511 2.334-.412.824-.549 1.785-.549 2.747 0 .961.137 1.785.549 2.746.412.824.824 1.648 1.511 2.334.686.687 1.373 1.236 2.334 1.511.824.412 1.785.549 2.747.549h.274 12.908c.137 0 .275 0 .412.137.137 0 .275.138.275.275.137.137.137.275.137.412v.412l-20.598 51.357c-.412.961-.549 1.922-.549 2.883v6.317c0 2.06.824 3.982 2.197 5.492 1.511 1.511 3.433 2.198 5.493 2.198h24.168c.961 0 1.922-.138 2.746-.55s1.648-.961 2.334-1.51c.687-.687 1.236-1.511 1.511-2.335.412-.823.549-1.785.549-2.746 0-1.922-.824-3.707-2.06-5.081-1.373-1.647-3.158-2.471-5.08-2.471zm45.589-64.677c-1.236-1.373-3.021-2.472-5.218-3.021-2.197-.686-4.943-.961-8.514-.961-3.295 0-7.003.275-9.337.961-2.06.549-3.982 1.511-5.356 3.021-1.373 1.511-2.334 3.57-2.883 6.042-.55 2.472-.824 5.63-.824 9.475 0 3.708 0 6.591.137 8.926.137 1.785.275 3.707.687 5.492.274 1.236.824 2.335 1.373 3.433.686.961 1.373 1.785 2.197 2.472 1.098.961 2.334 1.922 3.708 2.609 1.51.824 3.02 1.648 4.531 2.472 1.51.824 3.021 1.648 4.394 2.471 1.373.687 2.472 1.648 3.57 2.609.412.412.824.962 1.236 1.511.275.275.412.687.549 1.099.138.411.275.686.275 1.098.137.549.137 1.099.137 1.648.138.824.138 2.06.138 3.433 0 2.06-.138 3.982-.275 6.042-.137 1.098-.412 2.197-.824 3.295-.412.687-.961 1.099-1.785 1.374-.686.274-3.296.274-4.394.274-.824 0-1.785-.137-2.609-.274-.687-.275-1.236-.824-1.648-1.511-.412-.961-.686-2.06-.824-3.158-.137-1.785-.274-3.571-.274-5.356 0-.137 0-.412 0-.549-.138-1.373-.962-2.746-1.923-3.57-1.098-.961-2.472-1.511-3.845-1.511s-2.746.55-3.845 1.511c-1.098.961-1.785 2.197-1.922 3.57v.687.137.137 3.296c0 4.119.275 7.552.824 10.161.686 2.609 1.648 4.532 3.021 6.042 1.373 1.511 3.295 2.472 5.218 2.884 2.609.549 5.218.961 7.827.824 3.57 0 8.102-.275 10.436-.961 2.197-.55 4.12-1.785 5.63-3.571 1.511-1.785 2.472-4.256 3.021-7.277.687-3.159.961-7.278.961-12.222 0-3.57-.137-6.454-.274-8.651 0-1.785-.412-3.707-.962-5.355-.412-1.236-1.098-2.472-2.059-3.433-.962-.961-2.06-1.785-3.159-2.609-1.098-.687-2.197-1.236-3.295-1.785-1.236-.687-2.609-1.373-3.982-2.06-1.374-.686-2.747-1.373-3.983-2.06-1.098-.686-2.197-1.373-3.158-2.197-.412-.412-.961-.824-1.373-1.235-.275-.55-.549-.962-.687-1.648-.137-.824-.274-1.648-.274-2.472v-3.982c0-1.511 0-3.021.274-4.532.138-.961.412-1.785.824-2.609.412-.549.961-.961 1.648-1.236.687-.274 2.472-.274 3.57-.274 2.335 0 3.845.686 4.394 2.06.412.823.687 1.785.824 2.746v2.884c0 1.51.687 3.021 1.785 4.119 1.099 1.099 2.609 1.785 4.257 1.785s3.021-.686 4.257-1.785c1.099-1.098 1.785-2.609 1.785-4.119 0-1.236 0-2.198 0-2.884 0-2.746-.274-5.493-.824-8.239-.961-2.472-1.785-4.257-3.158-5.493z" fill="#000"/></svg>