<svg fill="none" height="439" viewBox="0 0 439 439" width="439" xmlns="http://www.w3.org/2000/svg" xmlns:xlink="http://www.w3.org/1999/xlink"><mask id="a" fill="#000" height="280" maskUnits="userSpaceOnUse" width="382" x="28.8848" y="79.1013"><path d="m28.8848 79.1013h382v280h-382z" fill="#fff"/><path clip-rule="evenodd" d="m83.6046 126.726c0-10.286 8.3386-18.625 18.6244-18.625h231.479c10.286 0 18.625 8.339 18.625 18.625v17.741h27.053c1.224 0 2.217.993 2.217 2.217v21.064 15.521c0 1.224-.993 2.217-2.217 2.217h-26.829l-.224-.047v126.204c0 10.286-8.339 18.625-18.625 18.625h-231.479c-10.2858 0-18.6244-8.339-18.6244-18.625v-44.791h-20.1936c-.6884 0-1.3377-.32-1.7574-.866l-3.309-4.301c-.2982-.388-.4598-.863-.4598-1.352v-25.41c0-1.224.9927-2.217 2.2172-2.217h23.5026z" fill="#000" fill-rule="evenodd"/></mask><path clip-rule="evenodd" d="m83.6046 126.726c0-10.286 8.3386-18.625 18.6244-18.625h231.479c10.286 0 18.625 8.339 18.625 18.625v17.741h27.053c1.224 0 2.217.993 2.217 2.217v21.064 15.521c0 1.224-.993 2.217-2.217 2.217h-26.829l-.224-.047v126.204c0 10.286-8.339 18.625-18.625 18.625h-231.479c-10.2858 0-18.6244-8.339-18.6244-18.625v-44.791h-20.1936c-.6884 0-1.3377-.32-1.7574-.866l-3.309-4.301c-.2982-.388-.4598-.863-.4598-1.352v-25.41c0-1.224.9927-2.217 2.2172-2.217h23.5026z" fill="#df6531" fill-rule="evenodd"/><path d="m352.333 144.467h-28.38v28.381h28.38zm.224 41.019-5.781 27.785 2.86.596h2.921zm-.224-.047 5.781-27.785-34.161-7.108v34.893zm-268.7284 81.413h28.3804v-28.381h-28.3804zm-21.951-.866-22.4951 17.304zm-3.309-4.301-22.4954 17.303h.0003zm25.26-28.979v28.381h28.3804v-28.381zm18.6244-152.9852c-25.9599 0-47.0049 21.0452-47.0049 47.0052h56.7609c0 5.388-4.368 9.756-9.756 9.756zm231.479 0h-231.479v56.7612h231.479zm47.006 47.0052c0-25.96-21.045-47.0052-47.006-47.0052v56.7612c-5.388 0-9.755-4.368-9.755-9.756zm0 17.741v-17.741h-56.761v17.741zm-28.381 28.381h27.053v-56.761h-27.053zm27.053 0c-14.45 0-26.163-11.714-26.163-26.164h56.761c0-16.898-13.699-30.597-30.598-30.597zm-26.163-26.164v21.064h56.761v-21.064zm0 21.064v15.521h56.761v-15.521zm0 15.521c0-14.45 11.713-26.164 26.163-26.164v56.762c16.899 0 30.598-13.7 30.598-30.598zm26.163-26.164h-26.829v56.762h26.829zm-21.047.595-.225-.046-11.562 55.571.224.046zm22.375 153.943v-126.204h-56.761v126.204zm-47.006 47.005c25.961 0 47.006-21.045 47.006-47.005h-56.761c0-5.388 4.367-9.756 9.755-9.756zm-231.479 0h231.479v-56.761h-231.479zm-47.0049-47.005c0 25.96 21.0449 47.005 47.0049 47.005v-56.761c5.388 0 9.756 4.368 9.756 9.756zm0-44.791v44.791h56.7609v-44.791zm8.1869 28.38h20.1936v-56.761h-20.1936zm-24.2525-11.942c5.792 7.53 14.7528 11.942 24.2525 11.942v-56.761c8.1229 0 15.785 3.773 20.7376 10.211zm-3.309-4.302 3.309 4.302 44.9902-34.608-3.309-4.301zm-6.3453-18.655c0 6.748 2.2309 13.307 6.345 18.655l44.9908-34.607c3.5178 4.573 5.4253 10.181 5.4253 15.952zm0-25.41v25.41h56.7611v-25.41zm30.5978-30.597c-16.8987 0-30.5978 13.699-30.5978 30.597h56.7611c0 14.45-11.7137 26.164-26.1633 26.164zm23.5026 0h-23.5026v56.761h23.5026zm-28.3805-77.6v105.98h56.7609v-105.98z" fill="#fff" mask="url(#a)"/><path d="m264.326 188.306h-98.299c-1.205 0-2.398.237-3.511.698s-2.125 1.137-2.977 1.989-1.528 1.863-1.989 2.977c-.461 1.113-.698 2.306-.697 3.511v78.344c-.001 1.744.495 3.452 1.43 4.924.936 1.472 2.272 2.646 3.851 3.386 1.217.575 2.547.872 3.893.869h98.299c2.434-.002 4.767-.97 6.487-2.691 1.721-1.721 2.687-4.055 2.688-6.488v-78.344c0-1.205-.237-2.398-.698-3.511-.461-1.114-1.137-2.125-1.989-2.977s-1.863-1.528-2.976-1.989c-1.114-.461-2.307-.698-3.512-.698zm-13.308 87.63h-72.751c-1.801-.003-3.528-.72-4.801-1.993-1.274-1.274-1.99-3-1.993-4.801v-57.985c0-1.802.716-3.53 1.99-4.804s3.002-1.99 4.804-1.99h72.751c1.802 0 3.53.716 4.804 1.99s1.99 3.002 1.99 4.804v57.985c-.001 1.801-.718 3.528-1.991 4.802-1.274 1.274-3.001 1.99-4.803 1.992z" stroke="#000" stroke-miterlimit="10" stroke-width=".777627"/><path d="m277.631 172.244h-123.845c-3.066 0-6.006 1.218-8.174 3.386s-3.386 5.108-3.387 8.174v98.703c-.001 1.518.298 3.022.878 4.425.581 1.403 1.433 2.677 2.506 3.751 1.074 1.074 2.349 1.925 3.752 2.506s2.906.879 4.425.878h123.845c1.519.001 3.023-.297 4.426-.878s2.677-1.432 3.751-2.506c1.074-1.073 1.925-2.348 2.506-3.751s.879-2.907.878-4.425v-98.703c0-1.518-.299-3.021-.88-4.424s-1.432-2.677-2.506-3.751c-1.073-1.073-2.348-1.925-3.75-2.506-1.403-.581-2.906-.879-4.425-.879zm-26.615 103.691h-72.752c-1.801-.003-3.527-.72-4.801-1.993-1.273-1.274-1.99-3-1.993-4.801v-57.985c.001-1.802.716-3.53 1.99-4.804s3.002-1.989 4.804-1.989h72.752c1.801 0 3.529.715 4.803 1.989s1.99 3.002 1.99 4.804v57.985c-.001 1.801-.717 3.529-1.991 4.802-1.274 1.274-3.001 1.99-4.802 1.992z" stroke="#000" stroke-miterlimit="10" stroke-width=".799489"/><path d="m290.932 156.181h-149.388c-1.831 0-3.645.361-5.337 1.062s-3.23 1.728-4.525 3.023-2.322 2.832-3.023 4.524c-.701 1.693-1.061 3.506-1.061 5.338v119.065c.001 3.698 1.471 7.244 4.086 9.858 2.616 2.615 6.162 4.084 9.86 4.084h149.388c1.832.003 3.647-.355 5.34-1.055 1.693-.699 3.231-1.726 4.526-3.021 1.296-1.295 2.322-2.834 3.022-4.527.699-1.693 1.058-3.507 1.054-5.339v-119.065c.001-3.699-1.468-7.245-4.083-9.861-2.614-2.615-6.161-4.085-9.859-4.086zm-39.923 119.753h-72.752c-1.801-.003-3.527-.72-4.801-1.993-1.273-1.273-1.99-3-1.993-4.801v-57.985c.001-1.802.716-3.529 1.99-4.803s3.002-1.99 4.804-1.99h72.752c1.802 0 3.529.716 4.803 1.99s1.99 3.001 1.99 4.803v57.985c-.001 1.802-.717 3.529-1.991 4.803-1.274 1.273-3.001 1.989-4.802 1.991z" stroke="#000" stroke-miterlimit="10" stroke-width=".821351"/><path d="m304.233 140.119h-174.931c-4.331 0-8.485 1.721-11.548 4.783-3.063 3.063-4.784 7.217-4.784 11.549v139.424c0 4.009 1.475 7.878 4.145 10.87 2.669 2.992 6.346 4.896 10.329 5.351.617.071 1.237.107 1.858.106h174.931c.98.001 1.958-.085 2.922-.257 3.763-.685 7.166-2.669 9.617-5.605 2.45-2.937 3.793-6.641 3.793-10.465v-139.424c0-4.332-1.721-8.486-4.784-11.549-3.062-3.062-7.216-4.783-11.548-4.783zm-53.227 135.814h-72.752c-1.801-.003-3.527-.719-4.8-1.993-1.274-1.273-1.991-3-1.993-4.801v-57.985c0-1.801.716-3.529 1.99-4.803s3.002-1.99 4.803-1.99h72.752c1.802 0 3.53.716 4.804 1.99s1.99 3.002 1.99 4.803v57.985c-.002 1.802-.718 3.529-1.992 4.803-1.273 1.273-3 1.99-4.802 1.991z" stroke="#000" stroke-miterlimit="10" stroke-width=".843169"/><path d="m317.549 124.063h-200.478c-2.457 0-4.891.484-7.161 1.424-2.271.941-4.334 2.319-6.072 4.057-1.737 1.738-3.116 3.801-4.0562 6.071-.9403 2.271-1.4242 4.704-1.4239 7.162v159.782c-.0005 4.797 1.8401 9.41 5.1431 12.888 3.302 3.478 7.814 5.556 12.604 5.804h.004c.319.013.639.022.962.022h200.478c.519 0 1.038-.022 1.548-.062 4.679-.389 9.041-2.523 12.221-5.977 3.179-3.455 4.944-7.979 4.944-12.675v-159.782c.001-2.458-.483-4.891-1.424-7.162-.94-2.27-2.318-4.333-4.056-6.071s-3.801-3.116-6.071-4.057c-2.271-.94-4.704-1.424-7.162-1.424zm-66.535 151.872h-72.751c-1.801-.003-3.528-.719-4.801-1.993-1.274-1.273-1.99-3-1.993-4.801v-57.985c0-1.801.716-3.529 1.99-4.803s3.002-1.99 4.804-1.99h72.751c1.802 0 3.53.716 4.804 1.99s1.99 3.002 1.99 4.803v57.985c-.002 1.802-.718 3.529-1.991 4.803-1.274 1.273-3.001 1.99-4.803 1.991z" stroke="#000" stroke-miterlimit="10" stroke-width=".865031"/><path d="m83.7305 265.942v43.299c0 2.771.5457 5.515 1.606 8.075s2.6144 4.886 4.5737 6.845c1.9592 1.959 4.2852 3.513 6.8451 4.573 2.5599 1.061 5.3037 1.607 8.0747 1.606h226.024c2.895.004 5.758-.59 8.413-1.744 2.654-1.153 5.042-2.842 7.015-4.96v-.005c3.651-3.901 5.679-9.046 5.671-14.39l.586-123.823m-.805-39.935.219-16.383c.001-2.771-.545-5.514-1.605-8.074-1.061-2.56-2.615-4.886-4.574-6.846-1.959-1.959-4.285-3.513-6.845-4.573-2.56-1.061-5.304-1.606-8.075-1.606h-226.024c-5.5961 0-10.9625 2.223-14.9193 6.18-3.9567 3.957-6.1798 9.323-6.1802 14.919v104.055m167.2815 42.779h-72.752c-1.801-.003-3.527-.719-4.801-1.993-1.273-1.273-1.99-3-1.993-4.801v-57.985c0-1.801.716-3.529 1.99-4.803s3.002-1.99 4.804-1.99h72.752c1.801 0 3.529.716 4.803 1.99s1.99 3.002 1.99 4.803v57.985c-.001 1.802-.717 3.529-1.991 4.803s-3.001 1.99-4.802 1.991z" stroke="#000" stroke-miterlimit="10" stroke-width=".886892"/><g fill="#000"><path d="m251.018 204.363 79.841-96.363h-226.023l73.428 96.363z"/><path d="m330.861 330.339h-226.025l11.272-9.09h.005l11.343-9.153 11.432-9.219 11.543-9.308 11.703-9.437 11.955-9.64c1.191.936 2.662 1.444 4.177 1.441h72.752c1.141.001 2.265-.286 3.265-.835 1.001-.549 1.847-1.342 2.46-2.305l13.223 10.266 12.696 9.858 12.372 9.61 12.133 9.418 11.933 9.264z"/><path d="m289.31 250.784-8.156 4.883v9.981l8.036-.891v17.747l15.557 8.595v-57.946l-15.557 8.595z"/><path d="m127.974 256.092 8.156 4.883v9.982l-8.035-.891v17.747l-15.557 8.595v-57.947l15.557 8.596z"/><path d="m324.104 210.547h-4.277v13.747h4.277z"/><path d="m328.197 189.039h-5.153v23.059h5.153z"/><path d="m332.587 200.572h-5.735v19.733h5.735z"/><path d="m338.504 203.01h-5.91v7.539h5.91z"/><path d="m336.987 194.362h-2.576v11.308h2.576z"/><path d="m98.5837 210.547h-4.2766v13.747h4.2766z"/><path d="m102.676 189.039h-5.1521v23.059h5.1521z"/><path d="m107.067 200.572h-5.735v19.733h5.735z"/><path d="m112.984 203.01h-5.91v7.539h5.91z"/><path d="m111.467 194.362h-2.576v11.308h2.576z"/></g><path d="m190.494 224.224c-.14-.11-.316-.163-.493-.149s-.342.094-.462.225l-12.715 15.121c-.11.139-.163.315-.149.492s.095.342.226.462c.062.056.134.098.213.124s.162.036.245.029c.1-.001.198-.022.29-.061s.175-.096.244-.168l12.715-15.121c.056-.069.097-.15.122-.236.024-.086.031-.176.02-.265-.01-.089-.038-.174-.083-.252-.044-.078-.103-.146-.173-.201z" fill="#fff"/><path d="m184.268 228.158c0-.732-.217-1.448-.624-2.057s-.986-1.084-1.663-1.364c-.676-.281-1.421-.354-2.139-.211-.719.143-1.379.495-1.897 1.013s-.871 1.178-1.013 1.897c-.143.718-.07 1.463.21 2.14.281.677.755 1.255 1.364 1.662.61.407 1.326.624 2.058.624.978-.014 1.912-.408 2.604-1.1.691-.692 1.086-1.626 1.1-2.604zm-5.269 0c0-.309.091-.612.263-.869.172-.258.417-.458.703-.577.286-.118.601-.149.904-.089.304.061.583.21.802.429.219.218.368.497.428.801.061.304.03.618-.089.904-.118.286-.319.531-.576.703-.258.172-.56.264-.87.264-.41-.015-.8-.185-1.09-.475-.291-.29-.461-.68-.475-1.091z" fill="#fff"/><path d="m183.092 236.518c0 .732.217 1.448.624 2.057s.985 1.084 1.662 1.365c.677.28 1.422.353 2.14.21.719-.143 1.379-.495 1.897-1.013s.87-1.178 1.013-1.897c.143-.718.07-1.463-.211-2.14-.28-.677-.755-1.255-1.364-1.662s-1.325-.624-2.057-.624c-.982.001-1.924.391-2.618 1.086-.695.694-1.085 1.636-1.086 2.618zm5.269 0c-.002.414-.167.811-.461 1.104-.293.294-.69.459-1.104.461-.207.002-.411-.037-.602-.115-.191-.077-.364-.193-.51-.338-.146-.146-.261-.32-.339-.511s-.117-.395-.115-.601c.002-.415.168-.812.461-1.105s.69-.459 1.105-.461c.206-.002.41.037.601.115s.365.193.511.339c.145.145.261.319.338.51.078.191.117.395.115.602z" fill="#fff"/><path d="m195.306 238.808c-.183 0-.358.072-.487.201-.128.129-.201.304-.201.486s.073.357.201.486c.129.129.304.201.487.201h9.087c.182 0 .357-.072.486-.201s.201-.304.201-.486-.072-.357-.201-.486-.304-.201-.486-.201z" fill="#fff"/><path d="m257.807 215.908h-86.73" stroke="#000" stroke-miterlimit="10" stroke-width=".886892"/><path d="m348.707 222.464s2.144 52.893 1.55 53.469c-.594.577-15.843 15.167-15.843 15.167h-122.629l2.17-56.148 12.607-15.782z" fill="#fff"/><path d="m210.862 292.27v-60.496h4.654v-4.653h4.653v-4.654h4.654v-4.653h126.916v60.495h-4.653v4.654h-4.654v4.653h-4.653v4.654zm122.263-4.654v-51.188h-117.609v51.188zm4.654-60.495h4.653v-4.654h-117.609v4.654h-4.654v4.653h117.61zm4.653 51.188h4.654v-51.188h-4.654v4.653h-4.653v51.189h4.653z" fill="#000"/><path d="m262.692 259.694v-9.307h4.653v-4.654h13.961v4.654h4.653v4.653h-4.653v-4.653h-13.961v9.307zm4.653 18.614v-4.654h-4.653v-4.653h4.653v4.653h13.961v-9.307h4.653v9.307h-4.653v4.654zm0-13.961v-4.653h13.961v4.653z" fill="#f15a24"/><path d="m296.418 277.147v-32.574h4.654v13.96h13.961v-13.96h4.653v32.574h-4.653v-14.033l-13.961.073v13.96z" fill="#f15a24"/><path d="m228.966 279.469v-9.307h4.653v-4.654h4.654v-4.653h4.653v-4.653h4.654v-4.581h-18.614v-4.726h23.267v9.307h-4.653v4.653h-4.654v4.653h-4.653v4.654h-4.654v4.654h18.614v4.653z" fill="#f15a24"/><path d="m381.77 144.496h-32.154v5.844h-5.845v5.845h-4.385v5.844h-4.382v23.388h42.381v-5.849h1.463v-5.845h1.459v-5.844h1.463zm-2.922 5.844h-26.305v-2.922h26.305zm-4.386 29.228v2.922h-36.535v-17.534h36.535zm-32.15-20.461h33.614v2.922h-33.614zm4.382-5.844h30.691v2.922h-30.691z" fill="#000"/><path d="m57.7661 234.616v24.842h1.459v-24.842zm4.3813 4.382v4.385h17.5383v-4.385zm0 0v4.385h17.5383v-4.385zm0 0v4.385h17.5383v-4.385zm32.1543 0v-4.382h-1.4634v-1.463h-33.6132v1.463h32.1543v24.842h-32.1543v1.464h2.9223v5.844h36.5399v-27.768zm-32.1543 4.385h17.5383v-4.385h-17.5383zm0-4.385v4.385h17.5383v-4.385zm0 0v4.385h17.5383v-4.385zm0 0v4.385h17.5383v-4.385zm0 0v4.385h17.5383v-4.385z" fill="#000"/><path d="m160.966 150.389v-3.214h3.214v-16.069h-3.214v-3.213h9.642v3.213h-3.214v16.069h3.214v3.214z" fill="#fff"/><path d="m201.5 131.702v-2.988h-2.987-2.988v2.988h-2.988v2.987h-1.471v-2.987h-2.987v-2.988h-2.988-2.988v2.988h-2.987v2.987 2.988h2.987v2.988h2.966.022v2.987h2.965.023v2.987h1.818.407v2.988h2.988v-2.988h.415 1.818v-2.987h2.988v-2.987h2.987v-2.988h2.987v-2.988-2.987z" fill="#f15a24"/><path d="m222.578 138.779v-3.871h-11.615v-3.872h19.358v3.872h-3.872v3.871zm-11.615 11.615v-3.872h3.872v-3.871h3.871v3.871h11.615v3.872zm7.743-7.743v-3.872h3.872v3.872z" fill="#fff"/><path d="m234.56 138.779v-3.871h3.871v3.871zm0 11.615v-3.872h15.486v3.872zm3.871-15.486v-3.872h15.486v3.872zm0 7.743v-3.872h11.615v3.872zm11.615 3.871v-3.871h3.871v3.871z" fill="#fff"/><path d="m258.152 150.39v-27.101h3.872v7.743h11.614v3.872h-11.614v15.486zm15.486 0v-15.486h3.872v15.486z" fill="#fff"/><g fill="#f15a24"><path d="m63.6108 250.694v-2.922h2.9223v2.922z"/><path d="m63.6108 256.539v-2.922h2.9223v2.922z"/><path d="m67.9965 250.694v-2.922h2.9223v2.922z"/><path d="m67.9965 256.539v-2.922h2.9223v2.922z"/><path d="m73.8411 250.694v-2.922h2.9224v2.922z"/><path d="m73.8411 256.539v-2.922h2.9224v2.922z"/><path d="m78.2268 250.694v-2.922h2.9224v2.922z"/><path d="m78.2268 256.539v-2.922h2.9224v2.922z"/><path d="m84.0715 250.694v-2.922h2.9223v2.922z"/><path d="m84.0715 256.539v-2.922h2.9223v2.922z"/></g></svg>