<svg fill="none" height="439" viewBox="0 0 439 439" width="439" xmlns="http://www.w3.org/2000/svg"><path d="m354.774 256.526h-90.707c-7.241 0-13.72 2.287-19.437 5.717 0-25.535-14.864-47.64-36.206-58.693l29.727-35.444c6.479-6.86 9.528-16.389 8.766-25.917s-4.955-18.293-12.196-24.391c-6.86-6.098-16.007-9.147-25.535-8.766-9.909.762-18.675 5.336-24.773 12.958l-14.483 17.532c-11.814-16.389-31.252-26.679-52.976-26.679-36.2062 0-65.5525 29.346-65.5525 65.553 0 25.535 14.8637 48.021 36.2065 58.693l-29.7275 35.063c-6.479 6.86-9.528 16.388-8.7658 25.916.7623 10.291 5.7168 19.437 13.7204 25.535 6.4791 4.574 13.7204 7.242 21.7239 7.242 10.6715 0 20.581-4.955 27.06-12.958l14.482-17.151c11.815 16.007 31.252 26.679 52.595 26.679 20.581 0 39.256-9.528 51.452-24.773 4.573 14.101 17.912 24.391 33.538 24.391h90.707c19.437 0 35.445-16.007 35.445-35.444s-15.626-35.063-35.064-35.063z" fill="#fff"/><g fill="#f15a24"><path d="m84.945 302.646c-1.5245 0-3.049-.381-4.5735-1.525-3.049-2.286-3.4301-6.86-.7622-9.528l126.9137-150.924c2.287-3.049 6.86-3.43 9.528-.762 3.049 2.287 3.43 6.86.762 9.528l-126.9134 150.924c-1.1434 1.525-3.049 2.287-4.9546 2.287z"/><path d="m116.949 215.752c-20.1997 0-36.969-16.389-36.969-36.969 0-20.2 16.3882-36.969 36.969-36.969 20.58 0 36.969 16.388 36.969 36.969 0 20.199-16.389 36.969-36.969 36.969zm0-52.595c-8.385 0-15.626 6.86-15.626 15.626s6.86 15.626 15.626 15.626 15.626-6.86 15.626-15.626-6.86-15.626-15.626-15.626z"/><path d="m179.077 298.832c-20.199 0-36.969-16.388-36.969-36.969 0-20.58 16.389-36.969 36.969-36.969 20.581 0 36.969 16.389 36.969 36.969 0 20.581-16.769 36.969-36.969 36.969zm0-52.214c-8.384 0-15.626 6.861-15.626 15.626 0 8.766 6.86 15.626 15.626 15.626s15.626-6.86 15.626-15.626c0-8.765-7.241-15.626-15.626-15.626z"/><path d="m354.771 298.835h-90.707c-3.811 0-6.86-3.049-6.86-6.86s3.049-6.86 6.86-6.86h90.707c3.811 0 6.86 3.049 6.86 6.86s-3.049 6.86-6.86 6.86z"/></g></svg>