<svg fill="none" height="439" viewBox="0 0 440 439" width="440" xmlns="http://www.w3.org/2000/svg"><path d="m385.519 298.083v-34.181c0-12.961-10.553-23.398-23.399-23.398-7.685 0-14.567 3.785-18.925 9.634-4.244-5.849-11.126-9.634-18.926-9.634-2.638 0-5.276.458-7.685 1.261-2.408-.803-5.047-1.261-7.685-1.261h-10.323v-94.972c0-29.019-23.628-52.532-52.532-52.532h-161.6117c-29.019 0-52.5324 23.628-52.5324 52.532v147.619c0 29.019 23.6281 52.532 52.5324 52.532h79.3717c3.327 0 6.538-.688 9.406-1.95 2.982 1.377 6.308 2.065 9.749 2.065h20.187c3.097 0 6.194-.574 9.062-1.835.344-.115.688-.23.917-.459 1.147.459 2.409.803 3.556 1.032 3.441.803 7.111 1.262 10.667 1.147 2.523 0 8.373-.114 12.961-1.376 1.032-.23 1.95-.574 2.982-.918 3.212 1.491 6.653 2.409 10.323 2.409 3.785 0 7.341-.918 10.667-2.523.23.114.459.229.688.344 2.868 1.376 6.08 2.064 9.176 2.179h.574.229.115.688c1.95-.115 3.9-.344 5.735-.918 1.721.459 3.556.803 5.506.803h21.563c2.18 0 4.244-.229 6.194-.803 1.721.574 3.671.803 5.506.803h26.151c2.065 0 4.129-.229 6.079-.803 1.721.574 3.556.803 5.506.803h26.151c13.076 0 23.858-10.667 23.858-23.857 0-12.617-9.979-23.055-22.481-23.743z" fill="#fff"/><path d="m113.104 177.305-38.1951 45.421c-.4588.459-1.0323.688-1.6058.688-.4588 0-.9176-.115-1.3764-.459-.9176-.688-1.0323-2.064-.2294-2.867l38.1947-45.421c.688-.918 2.065-1.033 2.868-.23 1.032.689 1.147 1.95.344 2.868zm-30.0514 19.958c-6.0791 0-11.1259-4.933-11.1259-11.126 0-6.079 4.9321-11.126 11.1259-11.126 6.1937 0 11.1258 4.932 11.1258 11.126 0 6.079-5.0468 11.126-11.1258 11.126zm0-6.424c2.5233 0 4.7026-2.064 4.7026-4.702 0-2.524-2.0646-4.703-4.7026-4.703-2.6381 0-4.7027 2.065-4.7027 4.703s2.1793 4.702 4.7027 4.702zm18.6964 9.291c6.079 0 11.125 4.932 11.125 11.126 0 6.079-4.932 11.126-11.125 11.126-6.1942 0-11.1263-4.932-11.1263-11.126 0-6.079 5.0468-11.126 11.1263-11.126zm0 6.423c-2.5238 0-4.7031 2.065-4.7031 4.703 0 2.523 2.0646 4.703 4.7031 4.703 2.638 0 4.702-2.065 4.702-4.703s-2.179-4.703-4.702-4.703zm25.578 11.7c-1.147 0-2.065.917-2.065 2.064s.918 2.065 2.065 2.065h27.298c1.147 0 2.065-.918 2.065-2.065s-.918-2.064-2.065-2.064zm153.582-72.72v176.637c0 .803-.229 1.606-.458 2.294v.115c-.345.688-.689 1.377-1.262 1.835-.574.574-1.147.918-1.835 1.262-.689.344-1.491.459-2.18.459-.802 0-1.72-.23-2.408-.574-.803-.344-1.491-.917-1.95-1.491-.574-.688-.918-1.376-1.147-2.179 0-.115 0-.115 0-.229-.115-.459-.23-.918-.23-1.492v-23.398c-.114-.115-.114-.23-.229-.344-.229-.23-.573-.344-.918-.344h-7.111c-.344 0-.688.114-.918.344-.229.229-.344.573-.344.917v22.94c0 1.491-.573 2.982-1.72 4.129-1.032 1.033-2.524 1.721-4.129 1.721-1.606 0-2.983-.574-4.13-1.721-1.032-1.032-1.72-2.523-1.72-4.129v-58.038s0 0 0-.115c0 0 0 0 0-.114 0-1.491.573-2.982 1.72-4.129 1.033-1.033 2.524-1.721 4.13-1.721 1.605 0 2.982.574 4.129 1.721 1.032 1.032 1.72 2.523 1.72 4.129v.114.115 21.564c0 .344.115.688.344.917.23.23.574.344.918.344h7.111c.345 0 .689-.114.918-.344.115-.114.229-.229.229-.344v-123.761h-207.7206v130.528c0 12.732 10.323 23.055 23.0546 23.055h79.372c3.212 0 5.85 2.638 5.85 5.85 0 3.211-2.638 5.849-5.85 5.849h-79.372c-19.1548 0-34.754-15.599-34.754-34.754v-147.618c0-19.155 15.5992-34.754 34.754-34.754h161.612c18.81-.115 34.524 15.485 34.524 34.754zm-11.699 5.391v-5.506c0-12.731-10.323-23.054-23.055-23.054h-161.7261c-12.7316 0-23.0546 10.323-23.0546 23.054v5.506zm-65.952 165.053h-13.65c-.114 0-.229 0-.344-.115-.114 0-.229-.115-.229-.229-.115-.115-.115-.23-.115-.345 0-.114 0-.229 0-.344l19.843-49.435c.344-.803.459-1.721.344-2.524-.114-.917-.344-1.72-.917-2.408-.459-.688-1.147-1.262-1.95-1.721s-1.606-.573-2.523-.573h-20.876c-.114 0-.229 0-.344 0-.803 0-1.491.114-2.294.459-.688.344-1.376.688-1.95 1.261-.573.574-1.032 1.147-1.261 1.95-.345.688-.459 1.491-.459 2.294s.114 1.491.459 2.294c.344.688.688 1.377 1.261 1.95.574.574 1.147 1.032 1.95 1.262.688.344 1.491.459 2.294.459h.23 10.781c.115 0 .23 0 .344.114.115 0 .23.115.23.23.114.114.114.229.114.344v.344l-17.204 42.897c-.345.803-.459 1.606-.459 2.409v5.276c0 1.721.688 3.327 1.835 4.588 1.262 1.262 2.867 1.836 4.588 1.836h20.187c.803 0 1.606-.115 2.294-.459s1.376-.803 1.95-1.262c.573-.573 1.032-1.262 1.262-1.95.344-.688.458-1.491.458-2.294 0-1.606-.688-3.097-1.72-4.244-1.032-1.376-2.638-2.064-4.129-2.064zm37.965-54.024c-1.032-1.147-2.523-2.064-4.358-2.523-1.835-.574-4.129-.803-7.112-.803-2.752 0-5.849.229-7.799.803-1.721.459-3.327 1.261-4.474 2.523s-1.949 2.982-2.408 5.047-.688 4.703-.688 7.914c0 3.097 0 5.506.114 7.456.115 1.491.23 3.097.574 4.588.229 1.032.688 1.95 1.147 2.867.573.803 1.147 1.491 1.835 2.065.918.803 1.95 1.606 3.097 2.179 1.262.688 2.523 1.376 3.785 2.065 1.262.688 2.523 1.376 3.67 2.064 1.147.574 2.065 1.377 2.983 2.18.344.344.688.802 1.032 1.261.229.23.344.574.459.918.114.344.229.573.229.917.115.459.115.918.115 1.377.114.688.114 1.72.114 2.867 0 1.721-.114 3.327-.229 5.047-.115.918-.344 1.835-.688 2.753-.344.573-.803.917-1.491 1.147-.574.229-2.753.229-3.671.229-.688 0-1.491-.114-2.179-.229-.573-.23-1.032-.688-1.376-1.262-.344-.803-.574-1.72-.689-2.638-.114-1.491-.229-2.982-.229-4.473 0-.115 0-.344 0-.459-.115-1.147-.803-2.294-1.606-2.982-.917-.803-2.064-1.262-3.211-1.262s-2.294.459-3.212 1.262c-.917.803-1.491 1.835-1.606 2.982v.573.115.115 2.753c0 3.441.23 6.308.688 8.487.574 2.18 1.377 3.786 2.524 5.047 1.147 1.262 2.753 2.065 4.359 2.409 2.179.459 4.358.803 6.537.688 2.983 0 6.768-.229 8.718-.803 1.835-.459 3.44-1.491 4.702-2.982s2.065-3.556 2.524-6.079c.573-2.638.803-6.079.803-10.208 0-2.983-.115-5.391-.23-7.226 0-1.491-.344-3.097-.803-4.474-.344-1.032-.917-2.064-1.72-2.867s-1.721-1.491-2.638-2.179c-.918-.574-1.836-1.033-2.753-1.492-1.033-.573-2.179-1.147-3.326-1.72-1.147-.574-2.294-1.147-3.327-1.721-.917-.573-1.835-1.147-2.638-1.835-.344-.344-.803-.688-1.147-1.032-.229-.459-.459-.803-.573-1.376-.115-.689-.23-1.377-.23-2.065v-3.326c0-1.262 0-2.524.23-3.785.114-.803.344-1.491.688-2.18.344-.458.803-.803 1.376-1.032.574-.229 2.065-.229 2.982-.229 1.95 0 3.212.573 3.671 1.72.344.688.573 1.491.688 2.294v2.409c0 1.261.574 2.523 1.491 3.441.918.917 2.179 1.491 3.556 1.491 1.261 0 2.523-.574 3.556-1.491.917-.918 1.491-2.18 1.491-3.441 0-1.033 0-1.835 0-2.409 0-2.294-.23-4.588-.689-6.882-.802-2.064-1.491-3.556-2.638-4.588zm143.031 53.909h-15.37c-.573 0-1.147-.459-1.147-1.147v-50.812c0-3.097-2.523-5.62-5.62-5.62s-5.621 2.523-5.621 5.62v62.282c0 .918.689 1.606 1.606 1.606h26.152c3.326 0 6.079-2.638 6.079-6.079-.115-3.212-2.753-5.85-6.079-5.85zm-37.851 0h-15.37c-.573 0-1.147-.459-1.147-1.147v-50.812c0-3.097-2.523-5.62-5.62-5.62s-5.62 2.523-5.62 5.62v62.282c0 .918.688 1.606 1.605 1.606h26.152c3.326 0 5.964-2.638 5.964-6.079.115-3.212-2.638-5.85-5.964-5.85zm-48.977-46.109h11.47c3.212 0 5.735-2.524 5.735-5.735 0-3.212-2.523-5.735-5.735-5.735h-22.022c-1.262 0-2.294 1.032-2.294 2.294v65.149c0 1.262 1.032 2.179 2.179 2.179h21.564c3.326 0 5.964-2.638 5.964-6.079 0-3.326-2.638-5.964-5.964-5.964h-11.126c-.803 0-1.377-.574-1.377-1.376v-15.255c0-.803.574-1.377 1.377-1.377h11.584c2.983 0 5.506-2.409 5.506-5.505 0-2.983-2.409-5.506-5.506-5.506h-11.584c-.803 0-1.377-.574-1.377-1.376v-14.338c.23-.688.918-1.376 1.606-1.376z" fill="#000"/></svg>