<svg fill="none" height="439" viewBox="0 0 439 439" width="439" xmlns="http://www.w3.org/2000/svg"><path d="m375.119 129.484c-3.069-6.138-6.905-11.508-11.508-16.111-6.649-6.649-13.81-10.229-18.668-12.275-1.79-.767-3.581-1.2787-5.371-1.7901-7.927-2.3016-16.11-3.0688-24.038-2.0458-5.626.7671-11.252 2.3015-16.367 4.6029-7.416-3.3243-15.343-5.1144-23.527-5.1144-8.183 0-16.11 1.7901-23.271 4.8584-.767-.255-1.534-.511-2.301-.767-7.928-2.3013-16.878-3.5799-27.875-3.5799-11.508 0-21.481 1.2786-29.408 3.3249-1.535.511-3.069.767-4.348 1.278-7.416-3.58-15.599-5.3701-24.294-5.3701h-47.31c-7.927 0-15.343 1.5343-22.7595 4.6031-.7672.256-1.5343.767-2.3015 1.023-3.0688 2.301-9.7177 5.37-16.1109 11.763-5.8817 5.882-10.2291 12.531-13.0421 19.947-2.5573 6.649-4.0917 13.809-4.0917 21.226 0 7.927 1.5344 15.343 4.6031 22.759.2558.768.7672 1.535 1.023 2.302 1.5343 3.069 4.8588 9.462 11.252 16.111 2.0458 2.046 4.3474 4.091 6.3932 5.626l-18.6682 47.565c-2.813 6.905-4.3473 14.321-4.3473 22.249v11.763c0 14.832 5.626 29.153 15.8551 40.405.5115.511 1.0229 1.023 1.5344 1.534 10.9963 10.997 26.0844 17.134 41.9394 17.134h45.008c8.439 0 16.367-1.79 23.783-5.114 2.301.767 4.347 1.278 6.649 1.79 5.881 1.278 13.298 2.557 21.992 2.557h2.813c8.695 0 20.459-.767 30.176-3.324 1.279-.256 2.813-.768 4.092-1.279 7.416 3.324 15.344 5.114 23.527 5.114s16.366-1.79 23.783-5.114c0 0 .255 0 .255.256 7.672 3.324 15.344 4.858 23.016 4.858 8.95 0 17.134-2.045 24.805-5.626 3.325-1.534 10.485-5.114 17.134-12.786 5.115-5.37 7.928-10.741 9.718-14.321 3.836-7.416 5.626-16.111 5.626-24.805v-123.261c.256-2.302.511-4.603.511-6.905v-.256c-.255-8.694-2.301-17.133-5.881-24.805z" fill="#fff"/><g fill="#000"><path d="m176.422 283.686c0-3.58-1.535-6.905-3.836-9.462-2.558-2.557-5.882-3.836-9.462-3.836h-.256-30.176c-.256 0-.511 0-.767-.255-.256 0-.512-.256-.512-.512-.255-.256-.255-.511-.255-.767s0-.512 0-.767l44.241-110.219c.767-1.79 1.023-3.836.767-5.626-.256-2.046-.767-3.836-2.046-5.37-1.023-1.535-2.557-2.813-4.347-3.836s-3.581-1.279-5.626-1.279h-46.543c-.256 0-.511 0-.767 0-1.79 0-3.325.256-5.115 1.023-1.534.767-3.068 1.534-4.347 2.813s-2.302 2.557-2.813 4.347c-.767 1.535-1.023 3.325-1.023 5.115s.256 3.324 1.023 5.114c.767 1.535 1.534 3.069 2.813 4.348s2.557 2.301 4.347 2.813c1.535.767 3.325 1.023 5.115 1.023h.511 24.039c.256 0 .511 0 .767.256.256 0 .511.255.511.511.256.256.256.511.256.767v.767l-38.359 95.643c-.767 1.79-1.023 3.58-1.023 5.37v11.763c0 3.836 1.534 7.416 4.092 10.229 2.813 2.813 6.393 4.092 10.229 4.092h45.008c1.79 0 3.58-.256 5.115-1.023 1.534-.767 3.068-1.79 4.347-2.813 1.279-1.278 2.301-2.813 2.813-4.347 1.023-2.302 1.279-4.092 1.279-5.882z"/><path d="m254.166 175.005c0-5.115-.511-10.229-1.534-15.344-.767-4.092-2.557-7.672-4.859-9.973-2.301-2.558-5.626-4.603-9.717-5.626-4.092-1.279-9.207-1.79-15.856-1.79-6.137 0-13.042.511-17.389 1.79-3.836 1.023-7.416 2.813-9.973 5.626-2.558 2.813-4.348 6.649-5.371 11.252s-1.534 10.485-1.534 17.645c0 6.905 0 12.275.256 16.622.255 3.325.511 6.905 1.278 10.229.512 2.302 1.535 4.348 2.558 6.394 1.278 1.79 2.557 3.324 4.091 4.603 2.046 1.79 4.348 3.58 6.905 4.859 2.813 1.534 5.626 3.068 8.439 4.603 2.813 1.534 5.626 3.068 8.183 4.603 2.557 1.278 4.603 3.068 6.649 4.859.767.767 1.534 1.79 2.302 2.813.511.511.767 1.278 1.023 2.045.255.768.511 1.279.511 2.046.256 1.023.256 2.046.256 3.069.255 1.534.255 3.836.255 6.393 0 3.836-.255 7.416-.511 11.252-.256 2.046-.767 4.092-1.534 6.138-.768 1.278-1.79 2.046-3.325 2.557-1.278.511-6.137.511-8.183.511-1.534 0-3.325-.255-4.859-.511-1.279-.511-2.301-1.534-3.069-2.813-.767-1.79-1.278-3.836-1.534-5.882-.256-3.324-.511-6.649-.511-9.973 0-.256 0-.767 0-1.023-.256-2.557-1.791-5.115-3.581-6.649-2.046-1.79-4.603-2.813-7.16-2.813s-5.115 1.023-7.16 2.813c-2.046 1.79-3.325 4.092-3.581 6.649v1.279.255.256 6.137c0 7.672.512 14.065 1.535 18.924 1.278 4.859 3.068 8.439 5.626 11.252 2.557 2.813 6.137 4.603 9.717 5.371 4.859 1.023 9.718 1.79 14.577 1.534 6.649 0 15.088-.511 19.435-1.79 4.092-1.023 7.672-3.325 10.485-6.649s4.603-7.928 5.626-13.554c1.279-5.881 1.79-13.553 1.79-22.759 0-6.649-.256-12.02-.511-16.111 0-3.325-.767-6.905-1.79-9.974-.768-2.301-2.046-4.603-3.836-6.393s-3.836-3.324-5.882-4.859c-2.046-1.278-4.092-2.301-6.138-3.324-2.301-1.279-4.858-2.557-7.416-3.836-2.557-1.279-5.114-2.557-7.416-3.836-2.046-1.279-4.091-2.557-5.881-4.092-.768-.767-1.791-1.534-2.558-2.301-.511-1.023-1.023-1.79-1.278-3.069-.256-1.534-.512-3.069-.512-4.603v-7.416c0-2.813 0-5.626.512-8.439.255-1.79.767-3.325 1.534-4.859.767-1.023 1.79-1.79 3.069-2.302 1.278-.511 4.603-.511 6.649-.511 4.347 0 7.16 1.279 8.183 3.836.767 1.534 1.279 3.324 1.534 5.115v5.37c0 2.813 1.279 5.626 3.325 7.672 2.046 2.045 4.859 3.324 7.927 3.324 2.813 0 5.626-1.279 7.928-3.324 2.046-2.046 3.324-4.859 3.324-7.672-1.023-2.557-1.023-4.603-1.023-5.626z"/><path d="m335.994 154.544c0-1.79-.256-3.58-1.023-5.114s-1.79-3.069-3.069-4.347c-1.278-1.279-2.813-2.046-4.603-2.813-1.79-.512-3.58-.768-5.37-.768-1.79.256-3.58.768-5.115 1.535-1.534.767-3.068 2.046-4.091 3.58s-1.79 3.069-2.302 4.859c-.511 1.79-.511 3.58-.255 5.37v46.031c0 .767-.256 1.534-.768 2.046-.511.511-1.278.767-2.046.767h-15.855c-.767 0-1.534-.256-2.045-.767-.512-.512-.768-1.279-.768-2.046v-47.821s0 0 0-.256c0 0 0 0 0-.256 0-3.324-1.278-6.648-3.836-9.206-2.301-2.301-5.626-3.836-9.206-3.836-3.324 0-6.649 1.279-9.206 3.836-2.302 2.302-3.836 5.626-3.836 9.206v.256.256 129.398c0 3.325 1.279 6.649 3.836 9.206 2.302 2.302 5.626 3.836 9.206 3.836 3.325 0 6.649-1.278 9.206-3.836 2.302-2.301 3.836-5.626 3.836-9.206v-51.145c0-.768.256-1.535.768-2.046.511-.512 1.278-.767 2.045-.767h15.855c.768 0 1.535.255 2.046.767.512.511.768 1.278.768 2.046v49.099c-.256 1.791-.256 3.836.255 5.626.512 1.791 1.279 3.581 2.558 4.859 1.278 1.279 2.813 2.558 4.347 3.325 1.79.767 3.58 1.278 5.37 1.278s3.325-.255 4.859-1.023c1.534-.767 3.069-1.534 4.092-2.813 1.278-1.278 2.045-2.557 2.813-4.091.767-1.535 1.023-3.325 1.023-4.859v-130.166c.511.256.511.256.511 0z"/></g></svg>