<svg fill="none" height="439" viewBox="0 0 439 439" width="439" xmlns="http://www.w3.org/2000/svg"><path d="m385.846 212.356-4.49-10.532c-.572-1.347-1.348-2.612-2.286-3.714-.123-.408-.286-.817-.45-1.225l-4.571-10.613c-.735-1.674-1.756-3.184-2.98-4.45l-.123-.326c-1.306-3.756-2.939-8.45-6.082-12.94-.204-.899-.49-1.837-.857-2.735l-4.491-10.491c-.612-1.429-1.428-2.735-2.449-3.878-.122-.368-.245-.735-.408-1.143-.408-.98-.816-1.919-1.225-2.899-1.102-2.694-2.245-5.429-3.674-8.286-.367-.735-.775-1.429-1.224-2.041-1.96-5.797-7.47-9.961-13.92-9.961h-21.635c-3.919 0-7.674 1.552-10.45 4.368-1.47 1.47-2.572 3.266-3.307 5.144-.734.979-1.388 2.041-1.877 3.225l-4.491 10.531c-1.388 3.266-1.51 6.777-.571 9.92-.082 1.224-.041 2.449.204 3.714.694 3.96 2.531 8.083 3.551 10.165.776 1.551 2.001 4.082 4.042 6.449.694 3.103 2 6.287 3.102 8.573h-19.39c-3.919 0-7.674 1.551-10.409 4.327-1.062 1.061-1.919 2.245-2.613 3.551-.04-.081-.041-.163-.081-.245l-4.531-10.572c-.613-1.429-1.429-2.694-2.409-3.837-.163-.449-.326-.898-.49-1.307-.49-1.143-1.02-2.326-1.51-3.592-.98-2.368-2-4.817-3.266-7.388-.367-.735-.775-1.429-1.265-2.082-1.307-3.797-4.082-6.899-7.634-8.573.694-2.939.49-6.164-.775-9.144l-4.491-10.531c-.449-1.102-1.061-2.123-1.755-3.062-2.041-5.674-7.47-9.674-13.797-9.674h-21.594c-3.919 0-7.675 1.551-10.451 4.367-1.469 1.47-2.571 3.225-3.306 5.144-.776.98-1.388 2.082-1.878 3.225l-4.49 10.531c-.163.409-.327.817-.449 1.225-.939 1.102-1.755 2.368-2.327 3.756l-4.49 10.491c-.163.408-.327.816-.449 1.224-.98 1.143-1.796 2.409-2.368 3.796l-4.49 10.41c-.245.53-.408 1.061-.572 1.592-.857 1.061-1.551 2.204-2.122 3.47l-4.531 10.45c-.041.081-.041.163-.082.245-2.449-4.736-7.389-7.92-13.063-7.92h-3.224c0-.081 0-.163 0-.245v-13.307c0-.368-.001-.694-.041-1.061.04-.368.041-.735.041-1.143v-13.308c0-3.878-1.552-7.633-4.287-10.409-.857-.858-1.796-1.592-2.816-2.205l-3.266-7.674c-.449-1.102-1.061-2.123-1.755-3.061-2.041-5.634-7.47-9.675-13.798-9.675h-21.594c-3.9186 0-7.6741 1.551-10.4499 4.368-1.4696 1.469-2.5718 3.265-3.3066 5.184-.7347.98-1.3878 2.041-1.8777 3.225l-4.4902 10.491c-.1633.408-.3266.857-.4899 1.306-.9389 1.102-1.7145 2.327-2.286 3.674l-4.4903 10.491c-.1632.408-.3266.816-.449 1.225-.9797 1.142-1.7961 2.449-2.4084 3.837l-4.4903 10.491c-.2041.489-.4082.979-.5307 1.51-.8572 1.061-1.5511 2.204-2.1226 3.47l-4.5312 10.45c-.2041.449-.3674.898-.4898 1.306-.9797 1.102-1.7553 2.368-2.3676 3.756l-4.4903 10.491c-1.3063 3.02-1.5103 6.286-.7756 9.266-.3265 2.572.0001 5.225 1.0614 7.756l4.531 10.491c1.5512 3.633 4.5312 6.449 8.2051 7.878 1.7144.653 3.5105.98 5.2658.98.5715 0 1.143-.041 1.6737-.082.3674.041.7756.082 1.143.082 1.8777.857 3.9596 1.347 6.1231 1.347h3.2657v.898c0 .367-.0001.735.0407 1.102-.0408.368-.0407.776-.0407 1.143v13.267c0 .367-.0001.775.0407 1.143-.0408.367-.0407.735-.0407 1.143v13.267c0 .367-.0001.694.0407 1.02-.0408.408-.0407.816-.0407 1.225v13.266c0 3.919 1.5511 7.675 4.3678 10.451 2.735 2.735 6.4905 4.245 10.3276 4.245h.1224.4899c1.9596 0 3.7966-.408 5.4696-1.102 1.633.612 3.429.979 5.266.979h14.328c3.47 0 6.817-1.224 9.43-3.428 2.613-1.592 4.654-3.96 5.878-6.777l4.45-10.491c.163-.326.285-.694.408-1.061 1.02-1.143 1.878-2.49 2.49-3.919l4.49-10.491c.204-.449.368-.898.49-1.388.898-1.061 1.633-2.286 2.204-3.592l4.491-10.45c.163-.367.285-.776.449-1.143 1.02-1.184 1.877-2.49 2.49-3.96l4.449-10.49c.163-.368.286-.735.408-1.143.041.04.041.04.082.081.122.408.286.817.449 1.225l4.49 10.45c.572 1.306 1.307 2.531 2.205 3.592.163.531.367 1.061.612 1.592.449 1.061.939 2.164 1.429 3.388.979 2.409 2.122 5.144 3.551 7.919 1.796 3.429 4.735 5.879 8.164 7.062-.163 1.919.041 3.838.572 5.634-.041.857-.041 1.755.081 2.653.449 3.756 2.164 7.919 3.511 10.736 2.408 5.062 5.796 10.45 12.491 12.165 1.021.244 2.082.408 3.102.449.899.204 1.797.285 2.654.326 1.878.857 3.919 1.347 6.123 1.347h14.328c3.511 0 6.94-1.265 9.593-3.551 2.531-1.592 4.531-3.919 5.715-6.695l4.449-10.491c.164-.367.286-.735.408-1.102 1.021-1.143 1.878-2.49 2.491-3.919l4.449-10.491c.204-.489.367-.979.531-1.469.775-.939 1.469-2 2-3.184 1.551-3.388 3.102-7.021 4.776-11.185.082-.245.204-.49.286-.735 1.02-1.143 1.837-2.49 2.49-3.919l4.49-10.491c.163-.408.327-.775.449-1.183.041.081.122.122.163.204.123.285.204.612.327.898.286.694.571 1.388.857 2.122 1.225 3.021 2.49 6.124 4.082 9.308.531 1.102 1.225 2.081 1.96 2.98.775 2.694 2 5.755 3.347 8.531 1.02 2.082 2.245 4.245 3.878 6.123.694 3.184 2.082 6.45 3.184 8.736 1.143 2.327 2.49 4.735 4.245 6.817.041.204.123.408.164.571 1.428 4.531 3.184 9.348 6.204 14.043 2.776 4.286 7.471 6.694 12.328 6.694h.327c.857.164 1.673.245 2.531.245 1.796.776 3.714 1.184 5.796 1.184h14.328c3.388 0 6.613-1.143 9.226-3.266 2.653-1.592 4.776-3.959 6.041-6.858l4.49-10.49c1.103-2.531 1.429-5.226 1.062-7.797.735-3.103.53-6.409-.898-9.511-.49-1.062-.939-2.205-1.47-3.429-.979-2.368-2.082-5.062-3.51-7.756-.449-.858-.98-1.674-1.592-2.409-.164-.571-.368-1.102-.613-1.673l-3.143-7.267.939-2.204c1.347.408 2.735.612 4.205.612h14.45c3.919 0 7.674-1.592 10.45-4.367.694-.694 1.306-1.47 1.878-2.327 1.919-2.164 3.633-5.062 5.225-8.817 1.429-3.389 2.735-7.144 2.694-11.022 1.184-4 1.102-7.919-.367-11.43zm-14.287-21.308c.122-.449.244-.939.326-1.429.694.367 1.347.776 1.837 1.184zm-105.604-.327c.082-.367.164-.735.245-1.061.49.286.98.571 1.388.898z" style="fill:#fff;stroke:#fff;stroke-width:2.04104;stroke-miterlimit:10;stroke-linecap:round;stroke-linejoin:round"/><g fill="#000"><path d="m103.18 141.528h21.594v.408c-7.184 0-14.409 0-21.594 0 0-.123 0-.286 0-.408z"/><path d="m135.514 204.144c0-4.408 0-8.858 0-13.511 1.061 1.306 1.184 11.919 0 13.511z"/><path d="m113.631 188.676c0-4.449 0-8.858 0-13.307h.449v13.307c-.163 0-.286 0-.449 0z"/><path d="m114.201 190.878v13.267c-.163 0-.326 0-.531 0 0-4.408 0-8.858 0-13.267z"/><path d="m114.201 159.859v13.267c-.163 0-.326 0-.531 0 0-4.409 0-8.858 0-13.267z"/><path d="m135.801 175.897c.203 0 .368-4.222.368-9.43s-.165-9.43-.368-9.43c-.202 0-.367 4.222-.367 9.43s.165 9.43.367 9.43z"/><path d="m136.044 175.329v13.308c-.164 0-.327 0-.49 0 0-4.45 0-8.899 0-13.308z"/><path d="m114.119 206.348v13.308c-.163 0-.285 0-.449 0 0-4.45 0-8.858 0-13.308z"/><path d="m113.631 235.172c0-4.449 0-8.858 0-13.307h.531v13.307c-.205 0-.368 0-.531 0z"/><path d="m124.772 157.532c-4.776 0-9.552 0-14.328 0 0-.122 0-.245 0-.408h14.328z"/><path d="m139.511 203.573h14.45v.409c-4.817 0-9.633 0-14.45 0 0-.123 0-.286 0-.409z"/><path d="m110.444 296.645h14.328v.449c-4.776 0-9.552 0-14.328 0 0-.163 0-.327 0-.449z"/><path d="m154.001 219.579c-4.817 0-9.634 0-14.451 0 0-.164 0-.286 0-.449h14.451z"/><path d="m95.6269 235.088c-4.8169 0-9.6338 0-14.4506 0 0-.163 0-.286 0-.449h14.4506z"/><path d="m99.3368 206.881c.1804 0 .3266-4.203.3266-9.389 0-5.185-.1462-9.388-.3266-9.388-.1803 0-.3265 4.203-.3265 9.388 0 5.186.1462 9.389.3265 9.389z"/><path d="m99.5929 237.415v13.266c-.1633 0-.3266 0-.4899 0 0-4.408 0-8.817 0-13.266z"/><path d="m99.0635 235.171c0-4.408 0-8.858 0-13.266h.449v13.266c-.1224 0-.2857 0-.449 0z"/><path d="m99.3368 222.39c.1804 0 .3266-4.203.3266-9.388 0-5.186-.1462-9.389-.3266-9.389-.1803 0-.3265 4.203-.3265 9.389 0 5.185.1462 9.388.3265 9.388z"/><path d="m99.3368 268.926c.1804 0 .3266-4.203.3266-9.388 0-5.186-.1462-9.389-.3266-9.389-.1803 0-.3265 4.203-.3265 9.389 0 5.185.1462 9.388.3265 9.388z"/><path d="m99.3368 284.443c.1804 0 .3266-4.204.3266-9.389s-.1462-9.389-.3266-9.389c-.1803 0-.3265 4.204-.3265 9.389s.1462 9.389.3265 9.389z"/><path d="m99.103 297.217c0-4.408 0-8.858 0-13.267h.4899v13.267c-.1633 0-.3266 0-.4899 0z"/><path d="m74.7227 202.351c1.5103-3.47 3.0207-6.98 4.5311-10.45.2449.123.4899.245.7348.327-1.5104 3.51-2.9799 6.98-4.4903 10.491-.2449-.123-.5307-.245-.7756-.368z"/><path d="m125.754 248.887c1.51-3.47 3.021-6.98 4.531-10.45.245.122.49.245.776.326-1.47 3.511-2.98 7.022-4.45 10.491-.326-.122-.612-.245-.857-.367z"/><path d="m67.3799 217.862c1.5104-3.511 3.0207-6.98 4.4903-10.491.2449.123.5307.245.7756.327-1.4695 3.51-2.98 7.021-4.4495 10.491-.2857-.082-.5307-.205-.8164-.327z"/><path d="m125.754 217.902c1.469-3.511 2.98-7.022 4.449-10.491.286.122.531.245.817.367-1.47 3.511-2.98 7.021-4.45 10.491-.285-.122-.571-.245-.816-.367z"/><path d="m133.097 279.913c1.51-3.47 3.02-6.98 4.531-10.45.245.122.49.245.735.326-1.511 3.511-2.98 6.981-4.491 10.491-.245-.122-.53-.245-.775-.367z"/><path d="m131.019 285.299c-1.47 3.511-2.98 7.021-4.45 10.491-.245-.122-.531-.245-.776-.326 1.47-3.511 2.98-7.022 4.45-10.491.245.081.531.204.776.326z"/><path d="m133.097 233.418c1.51-3.51 2.98-6.98 4.49-10.491.245.123.531.245.776.368-1.47 3.51-2.98 7.021-4.45 10.491-.286-.123-.571-.245-.816-.368z"/><path d="m74.7227 233.371c1.5103-3.51 3.0207-6.98 4.4902-10.491.245.123.5308.245.7757.327-1.4696 3.511-2.98 7.021-4.4495 10.491-.2858-.082-.5307-.204-.8164-.327z"/><path d="m72.1902 233.739c-1.5103-3.511-3.0207-6.981-4.531-10.491.2857-.123.5306-.245.8164-.368 1.5104 3.511 2.9799 6.981 4.4903 10.491-.2858.123-.5308.245-.7757.368z"/><path d="m123.756 223.248c-1.469 3.51-2.98 7.021-4.449 10.491-.286-.123-.531-.245-.817-.368 1.47-3.51 2.98-7.021 4.45-10.491.285.123.53.245.816.368z"/><path d="m160.208 223.248c-1.511 3.51-3.021 7.021-4.491 10.532-.285-.123-.53-.245-.816-.368 1.51-3.51 3.021-7.021 4.49-10.532.286.123.572.245.817.368z"/><path d="m116.401 238.803c-1.51 3.511-3.021 6.98-4.531 10.491-.245-.122-.531-.245-.776-.327 1.511-3.51 2.98-6.98 4.491-10.49.285.081.53.204.816.326z"/><path d="m123.756 254.274c-1.51 3.51-3.021 6.98-4.49 10.491-.245-.123-.531-.245-.776-.368 1.511-3.51 2.98-7.021 4.491-10.491.244.164.489.286.775.368z"/><path d="m116.4 269.784c-1.47 3.51-2.98 7.021-4.45 10.491-.286-.123-.53-.245-.816-.368 1.469-3.51 2.98-7.021 4.449-10.49.286.122.531.244.817.367z"/><path d="m109.177 285.294c-1.51 3.511-3.02 7.022-4.531 10.491-.245-.122-.53-.245-.775-.367 1.51-3.511 2.98-7.021 4.49-10.532.286.164.571.286.816.408z"/><path d="m96.5674 155.856c1.5104-3.51 2.9799-6.98 4.4906-10.491.245.123.53.245.775.368-1.51 3.51-2.8572 7.062-4.5308 10.45-.2449-.123-.4899-.245-.7348-.327z"/><path d="m108.733 156.184c-1.51-3.511-3.02-6.981-4.531-10.491.286-.123.531-.245.817-.368 1.51 3.47 2.979 6.981 4.49 10.45-.286.164-.531.286-.776.409z"/><path d="m126.861 145.325c1.51 3.511 2.98 7.021 4.49 10.532-.245.122-.53.245-.775.327-1.511-3.47-2.98-6.981-4.491-10.451.245-.122.49-.245.776-.408z"/><path d="m96.5674 186.882c1.5104-3.51 2.9799-6.98 4.4906-10.491.245.123.49.204.734.327-1.387 3.551-2.8162 7.062-4.4898 10.491-.2449-.123-.4899-.245-.7348-.327z"/><path d="m137.921 218.227c-1.511-3.47-3.021-6.98-4.531-10.45.245-.122.489-.245.734-.327 1.715 3.389 3.021 6.94 4.531 10.41-.244.122-.489.245-.734.367z"/><path d="m156.047 207.411c1.511 3.51 2.98 6.98 4.491 10.491-.245.122-.45.204-.694.326-1.756-3.388-3.021-6.939-4.532-10.45.205-.122.45-.245.735-.367z"/><path d="m81.9473 217.862c1.5103-3.511 2.9799-6.98 4.4902-10.491.245.123.5307.245.7756.367-1.5104 3.511-3.0208 7.022-4.5311 10.491-.245-.122-.4898-.245-.7347-.367z"/><path d="m89.3037 202.352c1.5104-3.51 2.9799-6.98 4.4903-10.491.2449.123.5306.245.7755.368-1.5103 3.51-2.9799 7.021-4.4902 10.531-.245-.122-.5307-.285-.7756-.408z"/><path d="m147.678 248.888c1.51-3.51 2.98-6.98 4.49-10.491.245.123.531.245.776.327-1.47 3.51-2.98 7.021-4.45 10.491-.286-.082-.571-.204-.816-.327z"/><path d="m87.2131 176.712c-1.5104 3.511-3.0207 6.981-4.4903 10.491-.2449-.122-.5306-.245-.7755-.367 1.5103-3.511 2.9799-6.98 4.4902-10.491.245.163.4899.245.7756.367z"/><path d="m145.587 254.316c-1.511 3.47-2.98 6.981-4.491 10.45-.245-.122-.53-.245-.775-.367 1.51-3.511 2.98-7.021 4.49-10.532.245.204.49.327.776.449z"/><path d="m89.3037 171.326c1.5104-3.51 3.0207-6.98 4.4903-10.491.2449.123.5306.245.7755.368-1.5103 3.51-2.9799 7.021-4.4902 10.531-.2858-.163-.5307-.285-.7756-.408z"/></g><path d="m77.415 212.102c.5637 0 1.0206-.457 1.0206-1.02 0-.564-.4569-1.021-1.0206-1.021-.5636 0-1.0205.457-1.0205 1.021 0 .563.4569 1.02 1.0205 1.02z" fill="#f15a24"/><path d="m77.415 216.59c.5637 0 1.0206-.457 1.0206-1.02 0-.564-.4569-1.021-1.0206-1.021-.5636 0-1.0205.457-1.0205 1.021 0 .563.4569 1.02 1.0205 1.02z" fill="#f15a24"/><path d="m84.6021 196.67c.5636 0 1.0205-.457 1.0205-1.021 0-.563-.4569-1.02-1.0205-1.02-.5637 0-1.0206.457-1.0206 1.02 0 .564.4569 1.021 1.0206 1.021z" fill="#f15a24"/><path d="m84.6021 201.158c.5636 0 1.0205-.457 1.0205-1.021 0-.563-.4569-1.02-1.0205-1.02-.5637 0-1.0206.457-1.0206 1.02 0 .564.4569 1.021 1.0206 1.021z" fill="#f15a24"/><path d="m92.1025 181.167c.5637 0 1.0206-.457 1.0206-1.021 0-.563-.4569-1.02-1.0206-1.02-.5636 0-1.0205.457-1.0205 1.02 0 .564.4569 1.021 1.0205 1.021z" fill="#f15a24"/><path d="m92.1025 185.655c.5637 0 1.0206-.457 1.0206-1.02 0-.564-.4569-1.021-1.0206-1.021-.5636 0-1.0205.457-1.0205 1.021 0 .563.4569 1.02 1.0205 1.02z" fill="#f15a24"/><path d="m113.744 258.392c.564 0 1.021-.457 1.021-1.02 0-.564-.457-1.021-1.021-1.021-.563 0-1.02.457-1.02 1.021 0 .563.457 1.02 1.02 1.02z" fill="#f15a24"/><path d="m113.744 262.881c.564 0 1.021-.457 1.021-1.021 0-.563-.457-1.02-1.021-1.02-.563 0-1.02.457-1.02 1.02 0 .564.457 1.021 1.02 1.021z" fill="#f15a24"/><path d="m120.931 242.96c.563 0 1.02-.457 1.02-1.021 0-.563-.457-1.02-1.02-1.02-.564 0-1.021.457-1.021 1.02 0 .564.457 1.021 1.021 1.021z" fill="#f15a24"/><path d="m120.931 247.448c.563 0 1.02-.457 1.02-1.02 0-.564-.457-1.021-1.02-1.021-.564 0-1.021.457-1.021 1.021 0 .563.457 1.02 1.021 1.02z" fill="#f15a24"/><path d="m128.432 227.457c.564 0 1.021-.457 1.021-1.021 0-.563-.457-1.02-1.021-1.02-.563 0-1.02.457-1.02 1.02 0 .564.457 1.021 1.02 1.021z" fill="#f15a24"/><path d="m128.432 231.945c.564 0 1.021-.457 1.021-1.02 0-.564-.457-1.021-1.021-1.021-.563 0-1.02.457-1.02 1.021 0 .563.457 1.02 1.02 1.02z" fill="#f15a24"/><path d="m99.1797 165.526c.5636 0 1.0203-.457 1.0203-1.02 0-.564-.4567-1.021-1.0203-1.021s-1.0205.457-1.0205 1.021c0 .563.4569 1.02 1.0205 1.02z" fill="#f15a24"/><path d="m99.1797 170.014c.5636 0 1.0203-.456 1.0203-1.02s-.4567-1.021-1.0203-1.021-1.0205.457-1.0205 1.021.4569 1.02 1.0205 1.02z" fill="#f15a24"/><path d="m106.391 165.526c.564 0 1.021-.457 1.021-1.02 0-.564-.457-1.021-1.021-1.021-.563 0-1.02.457-1.02 1.021 0 .563.457 1.02 1.02 1.02z" fill="#f15a24"/><path d="m106.391 170.014c.564 0 1.021-.456 1.021-1.02s-.457-1.021-1.021-1.021c-.563 0-1.02.457-1.02 1.021s.457 1.02 1.02 1.02z" fill="#f15a24"/><path d="m106.391 181.167c.564 0 1.021-.457 1.021-1.021 0-.563-.457-1.02-1.021-1.02-.563 0-1.02.457-1.02 1.02 0 .564.457 1.021 1.02 1.021z" fill="#f15a24"/><path d="m106.391 185.655c.564 0 1.021-.457 1.021-1.02 0-.564-.457-1.021-1.021-1.021-.563 0-1.02.457-1.02 1.021 0 .563.457 1.02 1.02 1.02z" fill="#f15a24"/><path d="m106.391 196.798c.564 0 1.021-.457 1.021-1.02 0-.564-.457-1.021-1.021-1.021-.563 0-1.02.457-1.02 1.021 0 .563.457 1.02 1.02 1.02z" fill="#f15a24"/><path d="m106.391 201.287c.564 0 1.021-.457 1.021-1.021 0-.563-.457-1.02-1.021-1.02-.563 0-1.02.457-1.02 1.02 0 .564.457 1.021 1.02 1.021z" fill="#f15a24"/><path d="m106.391 212.474c.564 0 1.021-.457 1.021-1.02 0-.564-.457-1.021-1.021-1.021-.563 0-1.02.457-1.02 1.021 0 .563.457 1.02 1.02 1.02z" fill="#f15a24"/><path d="m106.391 216.963c.564 0 1.021-.457 1.021-1.021 0-.563-.457-1.02-1.021-1.02-.563 0-1.02.457-1.02 1.02 0 .564.457 1.021 1.02 1.021z" fill="#f15a24"/><path d="m106.391 228.109c.564 0 1.021-.457 1.021-1.021 0-.563-.457-1.02-1.021-1.02-.563 0-1.02.457-1.02 1.02 0 .564.457 1.021 1.02 1.021z" fill="#f15a24"/><path d="m106.391 232.597c.564 0 1.021-.457 1.021-1.021 0-.563-.457-1.02-1.021-1.02-.563 0-1.02.457-1.02 1.02 0 .564.457 1.021 1.02 1.021z" fill="#f15a24"/><path d="m106.391 243.743c.564 0 1.021-.457 1.021-1.02 0-.564-.457-1.021-1.021-1.021-.563 0-1.02.457-1.02 1.021 0 .563.457 1.02 1.02 1.02z" fill="#f15a24"/><path d="m106.391 248.231c.564 0 1.021-.456 1.021-1.02s-.457-1.021-1.021-1.021c-.563 0-1.02.457-1.02 1.021s.457 1.02 1.02 1.02z" fill="#f15a24"/><path d="m106.391 259.42c.564 0 1.021-.457 1.021-1.021 0-.563-.457-1.02-1.021-1.02-.563 0-1.02.457-1.02 1.02 0 .564.457 1.021 1.02 1.021z" fill="#f15a24"/><path d="m106.391 263.908c.564 0 1.021-.457 1.021-1.021 0-.563-.457-1.02-1.021-1.02-.563 0-1.02.457-1.02 1.02 0 .564.457 1.021 1.02 1.021z" fill="#f15a24"/><path d="m106.391 275.051c.564 0 1.021-.457 1.021-1.02 0-.564-.457-1.021-1.021-1.021-.563 0-1.02.457-1.02 1.021 0 .563.457 1.02 1.02 1.02z" fill="#f15a24"/><path d="m106.391 279.54c.564 0 1.021-.457 1.021-1.021s-.457-1.02-1.021-1.02c-.563 0-1.02.456-1.02 1.02s.457 1.021 1.02 1.021z" fill="#f15a24"/><path d="m314.993 141.739h21.594v.408c-7.185 0-14.41 0-21.594 0 0-.122 0-.286 0-.408z" fill="#000"/><path d="m307.401 204.234c-7.226 0-14.41 0-21.635 0 0-.163 0-.286 0-.449h21.635z" fill="#000"/><path d="m351.323 234.731h14.451v.449c-4.817 0-9.634 0-14.451 0 0-.122 0-.286 0-.449z" fill="#000"/><path d="m322.256 281.307h14.328v.449c-4.776 0-9.552 0-14.328 0 0-.123 0-.286 0-.449z" fill="#000"/><path d="m322.256 296.856h14.328v.368c-4.776 0-9.552 0-14.328 0 0-.123 0-.245 0-.368z" fill="#000"/><path d="m329.239 250.769c-4.735 0-9.511 0-14.246 0 0-.163 0-.285 0-.449h14.246z" fill="#000"/><path d="m351.323 219.301h14.451v.449c-4.817 0-9.634 0-14.451 0 0-.163 0-.327 0-.449z" fill="#000"/><path d="m360.55 192.073c1.51 3.51 3.02 6.98 4.572 10.613-1.307-.367-4.736-7.756-5.021-10.368.122-.123.285-.164.449-.245z" fill="#000"/><path d="m294.823 254.118c1.51 3.511 3.02 6.98 4.572 10.654-1.266-.449-4.082-6.286-5.185-10.287.205-.163.409-.245.613-.367z" fill="#000"/><path d="m279.192 218.113c1.47-3.511 2.98-7.021 4.45-10.491.286.123.53.245.816.367-1.469 3.511-2.98 7.022-4.449 10.491-.286-.122-.572-.245-.817-.367z" fill="#000"/><path d="m342.832 285.551c-1.51 3.51-3.02 6.98-4.49 10.491-.245-.123-.531-.245-.776-.327 1.47-3.511 2.98-7.021 4.45-10.491.286.082.53.204.816.327z" fill="#000"/><path d="m294.829 223.092c1.51 3.51 2.98 6.98 4.49 10.491-.204.122-.449.204-.653.326-1.837-3.347-2.98-6.98-4.654-10.409.286-.122.531-.286.817-.408z" fill="#000"/><path d="m344.909 233.63c1.511-3.511 2.98-7.022 4.49-10.491.245.122.531.245.776.367-1.47 3.511-2.98 7.021-4.449 10.491-.286-.122-.572-.245-.817-.367z" fill="#000"/><path d="m302.176 269.628c1.511 3.511 2.98 6.98 4.531 10.573-1.224-.327-4.653-7.471-5.02-10.328.163-.082.326-.163.489-.245z" fill="#000"/><path d="m357.371 187.211c-2.204-3.184-3.347-6.858-4.653-10.409 2.204 3.143 3.388 6.817 4.653 10.409z" fill="#000"/><path d="m291.279 218.401c-1.469-3.47-2.98-6.94-4.531-10.573 1.347.531 4.858 8.164 5.021 10.45-.163.041-.327.082-.49.123z" fill="#000"/><path d="m308.38 218.073c1.51-3.51 2.98-6.98 4.49-10.49.245.122.49.204.735.326-1.388 3.551-2.858 7.062-4.45 10.491-.285-.082-.53-.204-.775-.327z" fill="#000"/><path d="m322.907 218.073c1.51-3.51 2.98-6.98 4.49-10.49.245.122.531.244.776.326-1.511 3.511-2.98 6.98-4.491 10.491-.204-.082-.49-.204-.775-.327z" fill="#000"/><path d="m349.692 218.444c-1.51-3.47-2.979-6.94-4.49-10.45 1.184.163 4.286 6.531 5.062 10.205-.204.082-.367.163-.572.245z" fill="#000"/><path d="m371.482 218.4c-1.47-3.511-2.98-6.98-4.45-10.491.245-.122.531-.245.776-.326 1.51 3.51 2.98 7.021 4.49 10.531-.245.082-.531.204-.816.286z" fill="#000"/><path d="m283.923 233.91c-1.47-3.47-2.98-6.939-4.531-10.572 1.347.53 4.857 8.164 5.021 10.45-.164.041-.327.081-.49.122z" fill="#000"/><path d="m320.99 223.459c-1.511 3.511-3.021 6.981-4.531 10.491-.245-.122-.49-.245-.776-.367 1.51-3.511 2.98-7.021 4.49-10.491.286.122.572.245.817.367z" fill="#000"/><path d="m338.621 223.139c1.511 3.469 3.021 6.98 4.491 10.45-.245.122-.49.245-.735.367-1.511-3.47-3.021-6.939-4.531-10.45.245-.122.53-.245.775-.367z" fill="#000"/><path d="m366.633 233.912c1.592-3.756 3.103-7.226 4.654-10.9.694 1.388-2.98 9.961-4.654 10.9z" fill="#000"/><path d="m308.38 249.1c1.51-3.511 2.98-6.981 4.49-10.491.245.122.531.245.776.367-1.511 3.511-3.021 7.021-4.491 10.573-.285-.204-.53-.327-.775-.449z" fill="#000"/><path d="m335.569 239.017c-1.511 3.47-2.98 6.939-4.491 10.409-.245-.122-.53-.245-.775-.326 1.469-3.511 2.98-6.981 4.449-10.491.286.122.531.285.817.408z" fill="#000"/><path d="m313.603 264.773c-2.163-3.184-3.306-6.817-4.612-10.409 2.204 3.184 3.347 6.817 4.612 10.409z" fill="#000"/><path d="m320.505 280.492c-1.51-3.47-2.98-6.981-4.49-10.45.245-.123.49-.245.734-.368 1.633 3.429 3.021 6.94 4.491 10.45-.204.123-.49.245-.735.368z" fill="#000"/><path d="m342.377 280.491c-1.511-3.47-3.021-6.981-4.531-10.45.245-.123.449-.204.694-.327 1.755 3.347 3.02 6.94 4.572 10.369-.245.163-.49.285-.735.408z" fill="#000"/><path d="m313.601 295.794c-2.082-3.225-3.388-6.817-4.531-10.45 1.959 3.265 3.388 6.817 4.531 10.45z" fill="#000"/><path d="m315.723 295.589c1.51-3.511 2.98-6.981 4.49-10.491.245.122.531.245.775.367-1.51 3.511-3.02 7.021-4.49 10.532-.245-.123-.53-.245-.775-.408z" fill="#000"/><path d="m287.604 238.609c1.51 3.469 3.02 6.98 4.49 10.45-.245.122-.49.204-.735.326-1.714-3.388-3.061-6.939-4.531-10.45.286-.081.531-.204.776-.326z" fill="#000"/><path d="m308.38 156.068c1.51-3.51 2.98-7.021 4.49-10.531.286.122.531.245.817.367-1.511 3.511-3.021 7.021-4.491 10.491-.326-.082-.571-.204-.816-.327z" fill="#000"/><path d="m316.789 145.537c1.51 3.51 3.021 6.98 4.531 10.491-.245.122-.49.204-.694.326-1.796-3.347-2.98-6.98-4.572-10.409.204-.123.49-.245.735-.408z" fill="#000"/><path d="m342.336 156.393c-1.51-3.469-3.021-6.98-4.49-10.45.245-.122.49-.245.734-.326 1.674 3.388 3.021 6.939 4.532 10.45-.245.081-.531.204-.776.326z" fill="#000"/><path d="m309.441 161.086c1.511 3.47 3.021 6.94 4.531 10.451-1.183-.164-4.449-6.899-5.061-10.206.163-.081.367-.163.53-.245z" fill="#000"/><path d="m345.978 161.047c1.51 3.51 2.98 6.98 4.49 10.491-.245.122-.53.244-.775.367-1.511-3.511-3.021-6.98-4.531-10.491.285-.122.571-.245.816-.367z" fill="#000"/><path d="m316.294 176.762c.204.041.49.041.531.123 1.51 3.388 2.98 6.735 4.531 10.246-1.266-.327-4.695-7.471-5.062-10.369z" fill="#000"/><path d="m320.988 192.481c-1.51 3.511-2.979 6.98-4.49 10.491-.245-.123-.53-.245-.775-.367 1.51-3.511 2.98-7.022 4.49-10.532.245.122.531.245.775.408z" fill="#000"/><path d="m338.622 192.073c1.51 3.51 2.98 6.98 4.49 10.491-.245.122-.531.245-.776.367-1.51-3.511-3.02-6.98-4.531-10.491.286-.122.572-.245.817-.367z" fill="#000"/><path d="m335.032 264.975c-1.51-3.51-2.98-6.98-4.49-10.49.245-.123.49-.205.776-.327 1.51 3.47 3.02 6.98 4.531 10.45-.286.123-.531.245-.817.367z" fill="#000"/><path d="m335.073 187.42c-1.51-3.469-3.021-6.98-4.531-10.45.286-.122.531-.245.816-.367 1.47 3.51 2.98 6.98 4.45 10.491-.204.081-.49.204-.735.326z" fill="#000"/><path d="m301.076 233.583c1.51-3.511 3.02-6.981 4.49-10.491.245.122.531.245.776.326-1.511 3.511-2.98 7.022-4.491 10.532-.204-.122-.49-.245-.775-.367z" fill="#000"/><path d="m327.689 171.904c-1.51-3.511-2.98-6.98-4.49-10.491.245-.122.49-.204.775-.327 1.511 3.47 3.021 6.981 4.531 10.451-.285.122-.53.244-.816.367z" fill="#000"/><path d="m335.032 218.44c-1.51-3.511-2.98-6.981-4.49-10.491.245-.123.531-.245.776-.327 1.51 3.47 3.02 6.98 4.531 10.45-.286.123-.531.245-.817.368z" fill="#000"/><path d="m289.067 227.705c.564 0 1.021-.457 1.021-1.021 0-.563-.457-1.02-1.021-1.02-.563 0-1.02.457-1.02 1.02 0 .564.457 1.021 1.02 1.021z" fill="#f15a24"/><path d="m289.067 232.193c.564 0 1.021-.457 1.021-1.02 0-.564-.457-1.021-1.021-1.021-.563 0-1.02.457-1.02 1.021 0 .563.457 1.02 1.02 1.02z" fill="#f15a24"/><path d="m296.375 243.252c.564 0 1.021-.456 1.021-1.02s-.457-1.021-1.021-1.021c-.563 0-1.02.457-1.02 1.021s.457 1.02 1.02 1.02z" fill="#f15a24"/><path d="m296.375 247.741c.564 0 1.021-.457 1.021-1.021 0-.563-.457-1.02-1.021-1.02-.563 0-1.02.457-1.02 1.02 0 .564.457 1.021 1.02 1.021z" fill="#f15a24"/><path d="m303.716 243.252c.563 0 1.02-.456 1.02-1.02s-.457-1.021-1.02-1.021c-.564 0-1.021.457-1.021 1.021s.457 1.02 1.021 1.02z" fill="#f15a24"/><path d="m303.716 247.741c.563 0 1.02-.457 1.02-1.021 0-.563-.457-1.02-1.02-1.02-.564 0-1.021.457-1.021 1.02 0 .564.457 1.021 1.021 1.021z" fill="#f15a24"/><path d="m310.902 274.287c.564 0 1.021-.457 1.021-1.021 0-.563-.457-1.02-1.021-1.02-.563 0-1.02.457-1.02 1.02 0 .564.457 1.021 1.02 1.021z" fill="#f15a24"/><path d="m310.902 278.775c.564 0 1.021-.457 1.021-1.021 0-.563-.457-1.02-1.021-1.02-.563 0-1.02.457-1.02 1.02 0 .564.457 1.021 1.02 1.021z" fill="#f15a24"/><path d="m303.716 258.97c.563 0 1.02-.456 1.02-1.02s-.457-1.021-1.02-1.021c-.564 0-1.021.457-1.021 1.021s.457 1.02 1.021 1.02z" fill="#f15a24"/><path d="m303.716 263.459c.563 0 1.02-.457 1.02-1.021 0-.563-.457-1.02-1.02-1.02-.564 0-1.021.457-1.021 1.02 0 .564.457 1.021 1.021 1.021z" fill="#f15a24"/><path d="m310.902 227.705c.564 0 1.021-.457 1.021-1.021 0-.563-.457-1.02-1.021-1.02-.563 0-1.02.457-1.02 1.02 0 .564.457 1.021 1.02 1.021z" fill="#f15a24"/><path d="m310.902 232.193c.564 0 1.021-.457 1.021-1.02 0-.564-.457-1.021-1.021-1.021-.563 0-1.02.457-1.02 1.021 0 .563.457 1.02 1.02 1.02z" fill="#f15a24"/><path d="m318.34 212.195c.563 0 1.02-.457 1.02-1.02 0-.564-.457-1.021-1.02-1.021-.564 0-1.021.457-1.021 1.021 0 .563.457 1.02 1.021 1.02z" fill="#f15a24"/><path d="m318.34 216.684c.563 0 1.02-.457 1.02-1.021s-.457-1.02-1.02-1.02c-.564 0-1.021.456-1.021 1.02s.457 1.021 1.021 1.021z" fill="#f15a24"/><path d="m332.904 196.718c.564 0 1.021-.457 1.021-1.02 0-.564-.457-1.021-1.021-1.021-.563 0-1.02.457-1.02 1.021 0 .563.457 1.02 1.02 1.02z" fill="#f15a24"/><path d="m332.904 201.207c.564 0 1.021-.457 1.021-1.021s-.457-1.02-1.021-1.02c-.563 0-1.02.456-1.02 1.02s.457 1.021 1.02 1.021z" fill="#f15a24"/><path d="m340.181 212.195c.563 0 1.02-.457 1.02-1.02 0-.564-.457-1.021-1.02-1.021-.564 0-1.021.457-1.021 1.021 0 .563.457 1.02 1.021 1.02z" fill="#f15a24"/><path d="m340.181 216.684c.563 0 1.02-.457 1.02-1.021s-.457-1.02-1.02-1.02c-.564 0-1.021.456-1.021 1.02s.457 1.021 1.021 1.021z" fill="#f15a24"/><path d="m325.616 196.718c.563 0 1.02-.457 1.02-1.02 0-.564-.457-1.021-1.02-1.021-.564 0-1.021.457-1.021 1.021 0 .563.457 1.02 1.021 1.02z" fill="#f15a24"/><path d="m325.616 201.206c.563 0 1.02-.457 1.02-1.02 0-.564-.457-1.021-1.02-1.021-.564 0-1.021.457-1.021 1.021 0 .563.457 1.02 1.021 1.02z" fill="#f15a24"/><path d="m325.616 181.29c.563 0 1.02-.457 1.02-1.021s-.457-1.02-1.02-1.02c-.564 0-1.021.456-1.021 1.02s.457 1.021 1.021 1.021z" fill="#f15a24"/><path d="m325.616 185.778c.563 0 1.02-.457 1.02-1.02 0-.564-.457-1.021-1.02-1.021-.564 0-1.021.457-1.021 1.021 0 .563.457 1.02 1.021 1.02z" fill="#f15a24"/><path d="m318.255 165.7c.564 0 1.021-.457 1.021-1.021 0-.563-.457-1.02-1.021-1.02-.563 0-1.02.457-1.02 1.02 0 .564.457 1.021 1.02 1.021z" fill="#f15a24"/><path d="m318.255 170.188c.564 0 1.021-.457 1.021-1.021 0-.563-.457-1.02-1.021-1.02-.563 0-1.02.457-1.02 1.02 0 .564.457 1.021 1.02 1.021z" fill="#f15a24"/><g fill="#000"><path d="m209.056 141.615h21.594v.408c-7.185 0-14.41 0-21.594 0 0-.123 0-.286 0-.408z"/><path d="m230.647 157.619c-4.776 0-9.552 0-14.328 0 0-.122 0-.245 0-.408h14.328z"/><path d="m230.647 297.22c-4.776 0-9.552 0-14.328 0 0-.122 0-.245 0-.408h14.328z"/><path d="m245.426 219.177h14.45v.449c-4.817 0-9.633 0-14.45 0 0-.163 0-.286 0-.449z"/><path d="m180.598 202.438c1.511-3.469 3.021-6.98 4.531-10.45.245.123.49.245.776.327-1.511 3.51-2.98 7.021-4.49 10.491-.286-.123-.531-.245-.817-.368z"/><path d="m254.614 191.948c1.511 3.511 2.98 6.981 4.531 10.573-1.265-.367-4.694-7.593-5.02-10.368.163-.041.326-.123.489-.205z"/><path d="m188.89 254.034c1.511 3.51 2.98 6.98 4.491 10.491-.245.122-.49.204-.694.326-1.756-3.388-3.021-6.98-4.572-10.45.285-.122.53-.245.775-.367z"/><path d="m188.886 222.968c1.51 3.51 3.02 6.98 4.572 10.613-1.266-.449-4.082-6.327-5.185-10.287.205-.081.409-.204.613-.326z"/><path d="m178.521 207.865c-1.51 3.511-2.98 6.981-4.49 10.491-.245-.122-.531-.245-.776-.367 1.511-3.511 2.98-7.021 4.491-10.491.245.122.53.245.775.367z"/><path d="m231.629 295.509c1.511-3.47 2.98-6.939 4.491-10.409.245.122.53.245.775.326-1.469 3.511-2.98 6.981-4.449 10.491-.286-.163-.531-.285-.817-.408z"/><path d="m236.895 238.893c-1.51 3.469-2.98 6.98-4.49 10.45-.245-.123-.531-.245-.776-.368 1.511-3.51 2.98-6.98 4.491-10.491.245.164.53.286.775.409z"/><path d="m244.239 269.871c-1.47 3.511-2.98 7.021-4.449 10.491-.286-.122-.531-.245-.817-.367 1.47-3.511 2.98-7.022 4.45-10.491.285.122.571.245.816.367z"/><path d="m244.239 223.423c-1.51 3.469-2.98 6.939-4.49 10.409-.245-.123-.531-.245-.776-.327 1.47-3.51 2.98-7.021 4.45-10.491.285.123.571.245.816.409z"/><path d="m231.629 171.371c1.511-3.469 2.98-6.939 4.491-10.409.245.123.53.245.775.327-1.469 3.51-2.98 7.021-4.449 10.491-.286-.123-.531-.245-.817-.409z"/><path d="m251.02 187.337c-1.51-3.511-3.021-6.981-4.531-10.491.245-.123.49-.245.735-.367 1.673 3.388 3.02 6.98 4.531 10.45-.245.122-.49.285-.735.408z"/><path d="m243.796 218.314c-1.51-3.469-3.02-6.98-4.531-10.45.245-.122.49-.245.735-.326 1.714 3.388 3.021 6.939 4.531 10.409-.245.122-.49.245-.735.367z"/><path d="m261.878 207.498c1.511 3.47 3.021 6.939 4.531 10.491-1.224-.204-4.49-7.021-5.061-10.246.204-.082.367-.164.53-.245z"/><path d="m178.066 233.831c-1.511-3.47-3.021-6.981-4.531-10.45.245-.123.49-.245.734-.327 1.715 3.388 2.98 6.98 4.532 10.409-.245.123-.49.245-.735.368z"/><path d="m209.786 233.459c1.51-3.511 2.98-6.981 4.49-10.491.245.122.531.245.775.367-1.51 3.511-3.02 7.021-4.49 10.532-.245-.123-.53-.286-.775-.408z"/><path d="m229.633 223.381c-1.51 3.51-3.021 6.98-4.531 10.49-.245-.122-.531-.244-.776-.326 1.511-3.511 2.98-6.98 4.49-10.491.286.082.531.204.817.327z"/><path d="m266.083 223.341c-1.592 3.47-2.776 7.103-4.613 10.45-.204-.082-.449-.204-.653-.286 1.51-3.51 2.98-6.98 4.49-10.491.245.123.531.205.776.327z"/><path d="m185.381 249.34c-1.51-3.469-2.98-6.98-4.49-10.45.245-.122.449-.204.694-.326 1.796 3.347 3.021 6.98 4.613 10.409-.286.122-.531.245-.817.367z"/><path d="m207.709 238.891c-1.511 3.511-2.98 6.981-4.491 10.491-.244-.122-.53-.245-.775-.367 1.469-3.511 2.98-7.021 4.449-10.491.286.122.572.245.817.367z"/><path d="m222.275 238.893c-1.51 3.469-3.021 6.939-4.49 10.45-.245-.123-.531-.245-.776-.368 1.511-3.51 2.98-6.98 4.491-10.491.244.164.53.286.775.409z"/><path d="m209.786 264.525c1.51-3.511 2.98-6.981 4.49-10.491.245.122.531.245.775.326-1.469 3.511-2.816 7.062-4.531 10.45-.285-.081-.489-.204-.734-.285z"/><path d="m229.633 254.4c-1.51 3.511-3.021 6.981-4.531 10.491-.245-.122-.49-.245-.776-.326 1.511-3.511 2.98-6.981 4.49-10.491.286.081.572.204.817.326z"/><path d="m207.709 269.912c-1.511 3.51-2.98 6.98-4.491 10.491-.244-.123-.53-.245-.775-.368 1.51-3.51 2.98-7.021 4.49-10.531.245.122.531.285.776.408z"/><path d="m222.276 269.916c-1.51 3.511-3.02 6.981-4.531 10.491-.245-.122-.53-.245-.775-.326 1.51-3.511 2.98-6.981 4.49-10.491.286.081.571.204.816.326z"/><path d="m203.544 285.02c1.51 3.47 2.979 6.98 4.531 10.573-1.266-.327-4.695-7.593-5.021-10.328.163-.082.326-.163.49-.245z"/><path d="m215.051 285.426c-1.51 3.511-2.979 6.981-4.49 10.491-.245-.122-.53-.245-.775-.326 1.469-3.511 2.98-7.021 4.449-10.491.286.081.572.204.816.326z"/><path d="m207.709 145.821c-1.511 3.51-2.98 6.98-4.491 10.49-.244-.122-.53-.244-.775-.367 1.51-3.51 2.98-7.021 4.49-10.532.245.123.531.286.776.409z"/><path d="m210.357 145.618c.204.041.49.041.531.123 1.51 3.388 2.98 6.735 4.531 10.246-1.266-.286-4.654-7.471-5.062-10.369z"/><path d="m232.736 145.412c1.511 3.511 2.98 7.022 4.491 10.532-.245.123-.531.245-.776.367-1.51-3.469-2.98-6.98-4.49-10.45.245-.163.49-.285.775-.449z"/><path d="m215.091 161.291c-1.51 3.51-3.021 7.021-4.49 10.49-.245-.122-.531-.244-.776-.367 1.511-3.511 2.98-7.021 4.49-10.532.205.164.49.286.776.409z"/><path d="m207.709 176.84c-1.511 3.511-3.021 6.981-4.491 10.491-.244-.122-.53-.245-.775-.367 1.51-3.511 2.98-7.021 4.49-10.532.245.123.531.286.776.408z"/><path d="m217.009 186.923c1.511-3.511 2.98-6.98 4.491-10.491.244.123.53.245.775.327-1.51 3.51-2.98 6.98-4.49 10.491-.245-.082-.531-.204-.776-.327z"/><path d="m209.786 202.479c1.51-3.51 2.98-6.98 4.49-10.491.245.123.531.245.775.368-1.51 3.51-2.816 7.062-4.571 10.45-.205-.123-.449-.245-.694-.327z"/><path d="m236.44 202.807c-1.511-3.511-3.021-6.981-4.531-10.491.285-.123.53-.245.816-.368 1.51 3.511 2.98 6.981 4.49 10.491-.285.164-.53.245-.775.368z"/><path d="m207.748 207.826c-1.51 3.511-3.02 7.022-4.49 10.491-.245-.122-.531-.245-.776-.367 1.511-3.511 2.98-7.021 4.491-10.532.204.163.49.286.775.408z"/><path d="m217.009 217.949c1.511-3.51 2.98-6.98 4.491-10.491.244.123.53.245.775.327-1.51 3.51-2.98 6.98-4.49 10.491-.245-.082-.531-.204-.776-.327z"/><path d="m225.428 207.498c1.511 3.47 2.98 6.939 4.532 10.491-1.225-.245-4.205-6.368-5.103-10.205.204-.082.367-.205.571-.286z"/><path d="m253.553 248.974c1.511-3.47 2.98-6.98 4.491-10.45.285.122.53.245.816.367-1.51 3.511-3.021 6.981-4.49 10.491-.327-.163-.572-.286-.817-.408z"/><path d="m200.445 192.356c-1.51 3.51-2.98 6.98-4.49 10.491-.245-.123-.531-.245-.776-.368 1.511-3.51 2.98-6.98 4.49-10.491.245.123.531.245.776.368z"/><path d="m187.822 217.949c1.511-3.51 2.98-6.98 4.491-10.491.244.123.53.245.775.327-1.469 3.51-2.98 7.021-4.449 10.532-.286-.123-.572-.245-.817-.368z"/><path d="m225.378 176.479c1.51 3.469 3.021 6.98 4.531 10.45-.245.122-.531.245-.776.367-1.551-3.47-3.061-6.94-4.408-10.491.204-.122.449-.245.653-.326z"/><path d="m187.822 186.888c1.511-3.47 2.98-6.94 4.491-10.409.244.122.489.204.693.326-1.387 3.551-2.816 7.062-4.531 10.45-.204-.122-.449-.245-.653-.367z"/><path d="m246.196 264.485c1.511-3.511 2.98-6.981 4.491-10.491.244.122.489.245.734.326-1.428 3.552-2.898 7.021-4.49 10.491-.245-.081-.49-.204-.735-.326z"/><path d="m195.179 264.485c1.511-3.511 2.98-6.981 4.49-10.491.245.122.531.245.776.326-1.47 3.511-2.98 7.021-4.449 10.532-.286-.122-.572-.245-.817-.367z"/><path d="m195.179 171.413c1.511-3.51 2.98-6.98 4.49-10.491.245.123.49.245.735.327-1.428 3.511-2.898 7.021-4.49 10.491-.245-.082-.49-.204-.735-.327z"/><path d="m200.445 223.382c-1.51 3.47-2.98 6.98-4.49 10.45-.245-.123-.531-.245-.776-.327 1.47-3.51 2.98-7.021 4.45-10.491.285.123.53.245.816.368z"/><path d="m238.242 172.641h7.021c0 .122.041.245.041.367-2.327 0-4.694 0-7.021 0-.041-.122-.041-.245-.041-.367z"/><path d="m208.815 266.201c-2.368 0-4.735 0-7.103 0 0-.163 0-.285 0-.449h7.103z"/><path d="m201.498 219.625c-2.367 0-4.735 0-7.102 0 0-.123 0-.245 0-.409h7.102z"/><path d="m223.675 172.641h6.98v.449c-2.327 0-4.653 0-6.98 0 0-.123 0-.286 0-.449z"/></g><path d="m183.218 212.19c.564 0 1.021-.457 1.021-1.021 0-.563-.457-1.02-1.021-1.02-.563 0-1.02.457-1.02 1.02 0 .564.457 1.021 1.02 1.021z" fill="#f15a24"/><path d="m183.218 216.678c.564 0 1.021-.457 1.021-1.021 0-.563-.457-1.02-1.021-1.02-.563 0-1.02.457-1.02 1.02 0 .564.457 1.021 1.02 1.021z" fill="#f15a24"/><path d="m183.218 227.862c.564 0 1.021-.457 1.021-1.02 0-.564-.457-1.021-1.021-1.021-.563 0-1.02.457-1.02 1.021 0 .563.457 1.02 1.02 1.02z" fill="#f15a24"/><path d="m183.218 232.351c.564 0 1.021-.457 1.021-1.021s-.457-1.02-1.021-1.02c-.563 0-1.02.456-1.02 1.02s.457 1.021 1.02 1.021z" fill="#f15a24"/><path d="m190.359 196.757c.564 0 1.02-.457 1.02-1.02 0-.564-.456-1.021-1.02-1.021s-1.021.457-1.021 1.021c0 .563.457 1.02 1.021 1.02z" fill="#f15a24"/><path d="m190.359 201.246c.564 0 1.02-.457 1.02-1.021s-.456-1.02-1.02-1.02-1.021.456-1.021 1.02.457 1.021 1.021 1.021z" fill="#f15a24"/><path d="m205.046 165.614c.564 0 1.021-.457 1.021-1.021 0-.563-.457-1.02-1.021-1.02-.563 0-1.02.457-1.02 1.02 0 .564.457 1.021 1.02 1.021z" fill="#f15a24"/><path d="m205.046 170.102c.564 0 1.021-.457 1.021-1.02 0-.564-.457-1.021-1.021-1.021-.563 0-1.02.457-1.02 1.021 0 .563.457 1.02 1.02 1.02z" fill="#f15a24"/><path d="m197.898 181.248c.564 0 1.021-.457 1.021-1.02 0-.564-.457-1.021-1.021-1.021-.563 0-1.02.457-1.02 1.021 0 .563.457 1.02 1.02 1.02z" fill="#f15a24"/><path d="m197.898 185.737c.564 0 1.021-.457 1.021-1.021s-.457-1.02-1.021-1.02c-.563 0-1.02.456-1.02 1.02s.457 1.021 1.02 1.021z" fill="#f15a24"/><path d="m197.5 243.295c.564 0 1.021-.457 1.021-1.021 0-.563-.457-1.02-1.021-1.02s-1.021.457-1.021 1.02c0 .564.457 1.021 1.021 1.021z" fill="#f15a24"/><path d="m197.5 247.783c.564 0 1.021-.457 1.021-1.021 0-.563-.457-1.02-1.021-1.02s-1.021.457-1.021 1.02c0 .564.457 1.021 1.021 1.021z" fill="#f15a24"/><path d="m190.437 243.295c.563 0 1.02-.457 1.02-1.021 0-.563-.457-1.02-1.02-1.02-.564 0-1.021.457-1.021 1.02 0 .564.457 1.021 1.021 1.021z" fill="#f15a24"/><path d="m190.437 247.783c.563 0 1.02-.457 1.02-1.02 0-.564-.457-1.021-1.02-1.021-.564 0-1.021.457-1.021 1.021 0 .563.457 1.02 1.021 1.02z" fill="#f15a24"/><path d="m204.648 227.862c.564 0 1.021-.457 1.021-1.02 0-.564-.457-1.021-1.021-1.021-.563 0-1.02.457-1.02 1.021 0 .563.457 1.02 1.02 1.02z" fill="#f15a24"/><path d="m204.648 232.351c.564 0 1.021-.457 1.021-1.021s-.457-1.02-1.021-1.02c-.563 0-1.02.456-1.02 1.02s.457 1.021 1.02 1.021z" fill="#f15a24"/><path d="m219.348 196.677c.564 0 1.021-.457 1.021-1.021 0-.563-.457-1.02-1.021-1.02-.563 0-1.02.457-1.02 1.02 0 .564.457 1.021 1.02 1.021z" fill="#f15a24"/><path d="m219.348 201.165c.564 0 1.021-.457 1.021-1.02 0-.564-.457-1.021-1.021-1.021-.563 0-1.02.457-1.02 1.021 0 .563.457 1.02 1.02 1.02z" fill="#f15a24"/><path d="m212.201 212.353c.563 0 1.02-.457 1.02-1.02 0-.564-.457-1.021-1.02-1.021-.564 0-1.021.457-1.021 1.021 0 .563.457 1.02 1.021 1.02z" fill="#f15a24"/><path d="m212.201 216.842c.563 0 1.02-.457 1.02-1.021s-.457-1.02-1.02-1.02c-.564 0-1.021.456-1.021 1.02s.457 1.021 1.021 1.021z" fill="#f15a24"/><path d="m212.561 274.438c.563 0 1.02-.457 1.02-1.02 0-.564-.457-1.021-1.02-1.021-.564 0-1.021.457-1.021 1.021 0 .563.457 1.02 1.021 1.02z" fill="#f15a24"/><path d="m212.561 278.927c.563 0 1.02-.457 1.02-1.021s-.457-1.021-1.02-1.021c-.564 0-1.021.457-1.021 1.021s.457 1.021 1.021 1.021z" fill="#f15a24"/><path d="m219.708 259.01c.564 0 1.021-.457 1.021-1.021s-.457-1.02-1.021-1.02-1.02.456-1.02 1.02.456 1.021 1.02 1.021z" fill="#f15a24"/><path d="m219.708 263.498c.564 0 1.021-.457 1.021-1.021 0-.563-.457-1.02-1.021-1.02s-1.02.457-1.02 1.02c0 .564.456 1.021 1.02 1.021z" fill="#f15a24"/><path d="m234.408 227.862c.564 0 1.021-.457 1.021-1.02 0-.564-.457-1.021-1.021-1.021-.563 0-1.02.457-1.02 1.021 0 .563.457 1.02 1.02 1.02z" fill="#f15a24"/><path d="m234.408 232.351c.564 0 1.021-.457 1.021-1.021s-.457-1.02-1.021-1.02c-.563 0-1.02.456-1.02 1.02s.457 1.021 1.02 1.021z" fill="#f15a24"/><path d="m226.849 196.677c.564 0 1.021-.457 1.021-1.02 0-.564-.457-1.021-1.021-1.021-.563 0-1.02.457-1.02 1.021 0 .563.457 1.02 1.02 1.02z" fill="#f15a24"/><path d="m226.849 201.165c.564 0 1.021-.457 1.021-1.02 0-.564-.457-1.021-1.021-1.021-.563 0-1.02.457-1.02 1.021 0 .563.457 1.02 1.02 1.02z" fill="#f15a24"/><path d="m234.126 212.19c.564 0 1.021-.457 1.021-1.021 0-.563-.457-1.02-1.021-1.02s-1.021.457-1.021 1.02c0 .564.457 1.021 1.021 1.021z" fill="#f15a24"/><path d="m234.126 216.678c.564 0 1.021-.457 1.021-1.021 0-.563-.457-1.02-1.021-1.02s-1.021.457-1.021 1.02c0 .564.457 1.021 1.021 1.021z" fill="#f15a24"/><path d="m227.261 243.5c.563 0 1.02-.457 1.02-1.02 0-.564-.457-1.021-1.02-1.021-.564 0-1.021.457-1.021 1.021 0 .563.457 1.02 1.021 1.02z" fill="#f15a24"/><path d="m227.261 247.988c.563 0 1.02-.457 1.02-1.02 0-.564-.457-1.021-1.02-1.021-.564 0-1.021.457-1.021 1.021 0 .563.457 1.02 1.021 1.02z" fill="#f15a24"/></svg>