<svg fill="none" height="439" viewBox="0 0 440 439" width="440" xmlns="http://www.w3.org/2000/svg"><path d="m388.733 211.397v-9.497c0-11.705-9.497-21.202-21.201-21.202h-5.112c-1.743 0-3.456.204-5.112.61-1.655-.406-3.369-.61-5.111-.61h-25.558c-1.742 0-3.456.204-5.111.61-1.656-.406-3.369-.61-5.112-.61h-25.558c-1.742 0-3.456.204-5.111.61-1.656-.406-3.369-.61-5.112-.61h-5.111c-2.701 0-5.286.523-7.668 1.423-2.381-.929-4.966-1.423-7.667-1.423h-5.112c-2.701 0-5.285.494-7.667 1.423-2.381-.929-4.966-1.423-7.667-1.423h-9.497v-9.497c0-11.704-9.497-21.201-21.202-21.201h-66.479c-7.115 0-13.505 3.514-17.367 9.003-.988.697-1.888 1.452-2.759 2.324-.872.871-1.627 1.8-2.324 2.788-.639.465-1.278.958-1.859 1.481-1.51-.348-3.107-.523-4.734-.523h-10.223c-6.0407 0-11.4717 2.527-15.3344 6.593-3.8627-4.066-9.3228-6.593-15.3347-6.593h-20.4462c-11.7042 0-21.2013 9.497-21.2013 21.202v20.446c0 6.041 2.5267 11.472 6.5927 15.334-4.066 3.863-6.5927 9.323-6.5927 15.335v20.446c0 11.705 9.4971 21.202 21.2013 21.202h10.2231c6.0409 0 11.472-2.527 15.3347-6.593 3.8627 4.066 9.3227 6.593 15.3346 6.593h12.5469c3.717 6.128 10.455 10.223 18.122 10.223h71.591c11.704 0 21.202-9.497 21.202-21.202v-8.248c.726-.523 1.394-1.103 2.062-1.742 1.829.522 3.775.784 5.779.784h15.335c2.701 0 5.286-.494 7.667-1.423 2.382.929 4.966 1.423 7.667 1.423h5.112c2.701 0 5.286-.523 7.667-1.423 2.382.929 4.967 1.423 7.668 1.423h5.111c1.743 0 3.456-.204 5.112-.61 1.655.406 3.369.61 5.111.61h25.558c1.743 0 3.456-.204 5.112-.61 1.655.406 3.369.61 5.111.61h25.558c1.742 0 3.456-.204 5.111-.61 1.656.406 3.369.61 5.112.61h25.558c11.704 0 21.201-9.497 21.201-21.202v-5.111c.029-11.385-9.061-20.737-20.417-21.143z" fill="#fff"/><g fill="#000"><path d="m113.505 186.278v20.446h-10.223v10.223h-10.2524v10.224h-10.2231v10.223h-10.2231v10.223h-10.2231v10.223h-10.2231v-20.446h10.2231v-10.223h10.2231v-10.224h10.2231v-10.223h10.2231v-10.223h10.2234v-10.223zm-40.9216 0v20.446h-20.4462v-20.446zm20.4462 51.145h20.4464v20.446h-20.4464z"/><path d="m123.731 257.867h71.591v10.223h-71.591z"/><path d="m127.183 253.053v-66.479h5.111v-5.112h5.112v-5.111h5.111v-5.112h66.479v66.48h-5.111v5.111h-5.112v5.112h-5.111v5.111zm61.367-5.111v-56.256h-56.256v56.256zm5.112-66.48h5.111v-5.111h-56.256v5.111h-5.111v5.112h56.256zm5.111 56.257h5.112v-56.257h-5.112v5.112h-5.111v56.256h5.111z"/></g><path d="m147.627 237.72v-10.223h5.111v-5.111h5.112v-5.112h5.112v-5.112h5.111v-5.024h-20.446v-5.199h25.558v10.223h-5.112v5.112h-5.111v5.112h-5.112v5.111h-5.112v5.112h20.447v5.111z" fill="#f15a24"/><g fill="#000"><path d="m219.25 217.274v-10.223h5.111v-5.112h15.335v5.112h5.111v5.111h-5.111v-5.111h-15.335v10.223zm5.111 20.446v-5.111h-5.111v-5.112h5.111v5.112h15.335v-10.223h5.111v10.223h-5.111v5.111zm0-15.334v-5.112h15.335v5.112z"/><path d="m255.027 237.72v-35.781h5.112v15.335h15.335v-15.335h5.111v35.81h-5.111v-15.451l-15.335.088v15.334z"/><path d="m290.843 237.72v-35.781h25.558v5.112h-20.447v10.223h20.447v5.112h-20.447v10.223h20.447v5.111z"/><path d="m362.427 237.72v-35.781h5.111v30.699h20.447v5.111h-25.558z"/><path d="m326.375 237.72v-35.781h5.111v30.699h20.446v5.111h-25.557z"/></g></svg>